<?xml version="1.0" encoding="UTF-8"?>
<!DOCTYPE svg PUBLIC "-//W3C//DTD SVG 1.1//EN" "http://www.w3.org/Graphics/SVG/1.1/DTD/svg11.dtd">
<svg xmlns="http://www.w3.org/2000/svg" version="1.1" width="306px" height="306px" style="shape-rendering:geometricPrecision; text-rendering:geometricPrecision; image-rendering:optimizeQuality; fill-rule:evenodd; clip-rule:evenodd" xmlns:xlink="http://www.w3.org/1999/xlink">
<g><path style="opacity:1" fill="#000000" d="M -0.5,-0.5 C 101.5,-0.5 203.5,-0.5 305.5,-0.5C 305.5,101.5 305.5,203.5 305.5,305.5C 203.5,305.5 101.5,305.5 -0.5,305.5C -0.5,203.5 -0.5,101.5 -0.5,-0.5 Z"/></g>
<g><path style="opacity:1" fill="#1ac937" d="M 6.5,6.5 C 13.9818,5.50797 21.6484,5.17464 29.5,5.5C 29.8254,13.3516 29.492,21.0182 28.5,28.5C 21.5,20.8333 14.1667,13.5 6.5,6.5 Z"/></g>
<g><path style="opacity:1" fill="#9e4800" d="M 35.5,5.5 C 43.5,5.5 51.5,5.5 59.5,5.5C 59.5,13.8333 59.5,22.1667 59.5,30.5C 51.5,30.5 43.5,30.5 35.5,30.5C 35.5,22.1667 35.5,13.8333 35.5,5.5 Z"/></g>
<g><path style="opacity:1" fill="#9e4800" d="M 65.5,5.5 C 73.5,5.5 81.5,5.5 89.5,5.5C 89.5,13.8333 89.5,22.1667 89.5,30.5C 81.5,30.5 73.5,30.5 65.5,30.5C 65.5,22.1667 65.5,13.8333 65.5,5.5 Z"/></g>
<g><path style="opacity:1" fill="#9e4800" d="M 95.5,5.5 C 103.5,5.5 111.5,5.5 119.5,5.5C 119.5,13.8333 119.5,22.1667 119.5,30.5C 111.5,30.5 103.5,30.5 95.5,30.5C 95.5,22.1667 95.5,13.8333 95.5,5.5 Z"/></g>
<g><path style="opacity:1" fill="#9e4800" d="M 125.5,5.5 C 133.5,5.5 141.5,5.5 149.5,5.5C 149.5,13.8333 149.5,22.1667 149.5,30.5C 141.5,30.5 133.5,30.5 125.5,30.5C 125.5,22.1667 125.5,13.8333 125.5,5.5 Z"/></g>
<g><path style="opacity:1" fill="#9e4800" d="M 155.5,5.5 C 163.5,5.5 171.5,5.5 179.5,5.5C 179.5,13.8333 179.5,22.1667 179.5,30.5C 171.5,30.5 163.5,30.5 155.5,30.5C 155.5,22.1667 155.5,13.8333 155.5,5.5 Z"/></g>
<g><path style="opacity:1" fill="#9e4800" d="M 185.5,5.5 C 193.5,5.5 201.5,5.5 209.5,5.5C 209.5,13.8333 209.5,22.1667 209.5,30.5C 201.5,30.5 193.5,30.5 185.5,30.5C 185.5,22.1667 185.5,13.8333 185.5,5.5 Z"/></g>
<g><path style="opacity:1" fill="#9e4800" d="M 215.5,5.5 C 223.5,5.5 231.5,5.5 239.5,5.5C 239.5,13.8333 239.5,22.1667 239.5,30.5C 231.5,30.5 223.5,30.5 215.5,30.5C 215.5,22.1667 215.5,13.8333 215.5,5.5 Z"/></g>
<g><path style="opacity:1" fill="#9e4800" d="M 245.5,5.5 C 253.5,5.5 261.5,5.5 269.5,5.5C 269.5,13.8333 269.5,22.1667 269.5,30.5C 261.5,30.5 253.5,30.5 245.5,30.5C 245.5,22.1667 245.5,13.8333 245.5,5.5 Z"/></g>
<g><path style="opacity:1" fill="#fe7c00" d="M 276.5,6.5 C 284.316,5.50761 292.316,5.17428 300.5,5.5C 300.666,13.5069 300.5,21.5069 300,29.5C 299.617,28.944 299.117,28.6107 298.5,28.5C 291.5,20.8333 284.167,13.5 276.5,6.5 Z"/></g>
<g><path style="opacity:1" fill="#924202" d="M 6.5,6.5 C 14.1667,13.5 21.5,20.8333 28.5,28.5C 29.492,21.0182 29.8254,13.3516 29.5,5.5C 21.6484,5.17464 13.9818,5.50797 6.5,6.5 Z"/></g>
<g><path style="opacity:1" fill="#924202" d="M 276.5,6.5 C 284.167,13.5 291.5,20.8333 298.5,28.5C 291.018,29.492 283.352,29.8254 275.5,29.5C 275.175,21.6484 275.508,13.9818 276.5,6.5 Z"/></g>
<g><path style="opacity:1" fill="#1ac937" d="M 5.5,35.5 C 13.8333,35.5 22.1667,35.5 30.5,35.5C 30.5,43.5 30.5,51.5 30.5,59.5C 22.1667,59.5 13.8333,59.5 5.5,59.5C 5.5,51.5 5.5,43.5 5.5,35.5 Z"/></g>
<g><path style="opacity:1" fill="#fefffe" d="M 35.5,35.5 C 113.5,35.5 191.5,35.5 269.5,35.5C 269.5,113.5 269.5,191.5 269.5,269.5C 191.5,269.5 113.5,269.5 35.5,269.5C 35.5,191.5 35.5,113.5 35.5,35.5 Z"/></g>
<g><path style="opacity:1" fill="#fe7c00" d="M 275.5,35.5 C 283.833,35.5 292.167,35.5 300.5,35.5C 300.5,43.5 300.5,51.5 300.5,59.5C 292.167,59.5 283.833,59.5 275.5,59.5C 275.5,51.5 275.5,43.5 275.5,35.5 Z"/></g>
<g><path style="opacity:1" fill="#1ac937" d="M 5.5,65.5 C 13.8333,65.5 22.1667,65.5 30.5,65.5C 30.5,73.5 30.5,81.5 30.5,89.5C 22.1667,89.5 13.8333,89.5 5.5,89.5C 5.5,81.5 5.5,73.5 5.5,65.5 Z"/></g>
<g><path style="opacity:1" fill="#fe7c00" d="M 275.5,65.5 C 283.833,65.5 292.167,65.5 300.5,65.5C 300.5,73.5 300.5,81.5 300.5,89.5C 292.167,89.5 283.833,89.5 275.5,89.5C 275.5,81.5 275.5,73.5 275.5,65.5 Z"/></g>
<g><path style="opacity:1" fill="#1ac937" d="M 5.5,95.5 C 13.8333,95.5 22.1667,95.5 30.5,95.5C 30.5,103.5 30.5,111.5 30.5,119.5C 22.1667,119.5 13.8333,119.5 5.5,119.5C 5.5,111.5 5.5,103.5 5.5,95.5 Z"/></g>
<g><path style="opacity:1" fill="#fe7c00" d="M 275.5,95.5 C 283.833,95.5 292.167,95.5 300.5,95.5C 300.5,103.5 300.5,111.5 300.5,119.5C 292.167,119.5 283.833,119.5 275.5,119.5C 275.5,111.5 275.5,103.5 275.5,95.5 Z"/></g>
<g><path style="opacity:1" fill="#1ac937" d="M 5.5,125.5 C 13.8333,125.5 22.1667,125.5 30.5,125.5C 30.5,133.5 30.5,141.5 30.5,149.5C 22.1667,149.5 13.8333,149.5 5.5,149.5C 5.5,141.5 5.5,133.5 5.5,125.5 Z"/></g>
<g><path style="opacity:1" fill="#fe7c00" d="M 275.5,125.5 C 283.833,125.5 292.167,125.5 300.5,125.5C 300.5,133.5 300.5,141.5 300.5,149.5C 292.167,149.5 283.833,149.5 275.5,149.5C 275.5,141.5 275.5,133.5 275.5,125.5 Z"/></g>
<g><path style="opacity:1" fill="#1ac937" d="M 5.5,155.5 C 13.8333,155.5 22.1667,155.5 30.5,155.5C 30.5,163.5 30.5,171.5 30.5,179.5C 22.1667,179.5 13.8333,179.5 5.5,179.5C 5.5,171.5 5.5,163.5 5.5,155.5 Z"/></g>
<g><path style="opacity:1" fill="#fe7c00" d="M 275.5,155.5 C 283.833,155.5 292.167,155.5 300.5,155.5C 300.5,163.5 300.5,171.5 300.5,179.5C 292.167,179.5 283.833,179.5 275.5,179.5C 275.5,171.5 275.5,163.5 275.5,155.5 Z"/></g>
<g><path style="opacity:1" fill="#1ac937" d="M 5.5,185.5 C 13.8333,185.5 22.1667,185.5 30.5,185.5C 30.5,193.5 30.5,201.5 30.5,209.5C 22.1667,209.5 13.8333,209.5 5.5,209.5C 5.5,201.5 5.5,193.5 5.5,185.5 Z"/></g>
<g><path style="opacity:1" fill="#fe7c00" d="M 275.5,185.5 C 283.833,185.5 292.167,185.5 300.5,185.5C 300.5,193.5 300.5,201.5 300.5,209.5C 292.167,209.5 283.833,209.5 275.5,209.5C 275.5,201.5 275.5,193.5 275.5,185.5 Z"/></g>
<g><path style="opacity:1" fill="#1ac937" d="M 5.5,215.5 C 13.8333,215.5 22.1667,215.5 30.5,215.5C 30.5,223.5 30.5,231.5 30.5,239.5C 22.1667,239.5 13.8333,239.5 5.5,239.5C 5.5,231.5 5.5,223.5 5.5,215.5 Z"/></g>
<g><path style="opacity:1" fill="#fe7c00" d="M 275.5,215.5 C 283.833,215.5 292.167,215.5 300.5,215.5C 300.5,223.5 300.5,231.5 300.5,239.5C 292.167,239.5 283.833,239.5 275.5,239.5C 275.5,231.5 275.5,223.5 275.5,215.5 Z"/></g>
<g><path style="opacity:1" fill="#1ac937" d="M 5.5,245.5 C 13.8333,245.5 22.1667,245.5 30.5,245.5C 30.5,253.5 30.5,261.5 30.5,269.5C 22.1667,269.5 13.8333,269.5 5.5,269.5C 5.5,261.5 5.5,253.5 5.5,245.5 Z"/></g>
<g><path style="opacity:1" fill="#fe7c00" d="M 275.5,245.5 C 283.833,245.5 292.167,245.5 300.5,245.5C 300.5,253.5 300.5,261.5 300.5,269.5C 292.167,269.5 283.833,269.5 275.5,269.5C 275.5,261.5 275.5,253.5 275.5,245.5 Z"/></g>
<g><path style="opacity:1" fill="#1ac937" d="M 6.5,276.5 C 13.9818,275.508 21.6484,275.175 29.5,275.5C 29.8254,283.352 29.492,291.018 28.5,298.5C 21.5,290.833 14.1667,283.5 6.5,276.5 Z"/></g>
<g><path style="opacity:1" fill="#8a2be2" d="M 35.5,275.5 C 43.5,275.5 51.5,275.5 59.5,275.5C 59.5,283.833 59.5,292.167 59.5,300.5C 51.5,300.5 43.5,300.5 35.5,300.5C 35.5,292.167 35.5,283.833 35.5,275.5 Z"/></g>
<g><path style="opacity:1" fill="#8a2be2" d="M 65.5,275.5 C 73.5,275.5 81.5,275.5 89.5,275.5C 89.5,283.833 89.5,292.167 89.5,300.5C 81.5,300.5 73.5,300.5 65.5,300.5C 65.5,292.167 65.5,283.833 65.5,275.5 Z"/></g>
<g><path style="opacity:1" fill="#8a2be2" d="M 95.5,275.5 C 103.5,275.5 111.5,275.5 119.5,275.5C 119.5,283.833 119.5,292.167 119.5,300.5C 111.5,300.5 103.5,300.5 95.5,300.5C 95.5,292.167 95.5,283.833 95.5,275.5 Z"/></g>
<g><path style="opacity:1" fill="#8a2be2" d="M 125.5,275.5 C 133.5,275.5 141.5,275.5 149.5,275.5C 149.5,283.833 149.5,292.167 149.5,300.5C 141.5,300.5 133.5,300.5 125.5,300.5C 125.5,292.167 125.5,283.833 125.5,275.5 Z"/></g>
<g><path style="opacity:1" fill="#8a2be2" d="M 155.5,275.5 C 163.5,275.5 171.5,275.5 179.5,275.5C 179.5,283.833 179.5,292.167 179.5,300.5C 171.5,300.5 163.5,300.5 155.5,300.5C 155.5,292.167 155.5,283.833 155.5,275.5 Z"/></g>
<g><path style="opacity:1" fill="#8a2be2" d="M 185.5,275.5 C 193.5,275.5 201.5,275.5 209.5,275.5C 209.5,283.833 209.5,292.167 209.5,300.5C 201.5,300.5 193.5,300.5 185.5,300.5C 185.5,292.167 185.5,283.833 185.5,275.5 Z"/></g>
<g><path style="opacity:1" fill="#8a2be2" d="M 215.5,275.5 C 223.5,275.5 231.5,275.5 239.5,275.5C 239.5,283.833 239.5,292.167 239.5,300.5C 231.5,300.5 223.5,300.5 215.5,300.5C 215.5,292.167 215.5,283.833 215.5,275.5 Z"/></g>
<g><path style="opacity:1" fill="#8a2be2" d="M 245.5,275.5 C 253.5,275.5 261.5,275.5 269.5,275.5C 269.5,283.833 269.5,292.167 269.5,300.5C 261.5,300.5 253.5,300.5 245.5,300.5C 245.5,292.167 245.5,283.833 245.5,275.5 Z"/></g>
<g><path style="opacity:1" fill="#ea7205" d="M 299.5,299.5 C 291.5,292.167 283.833,284.5 276.5,276.5C 284.316,275.508 292.316,275.174 300.5,275.5C 300.826,283.684 300.492,291.684 299.5,299.5 Z"/></g>
<g><path style="opacity:1" fill="#8129d0" d="M 6.5,276.5 C 14.1667,283.5 21.5,290.833 28.5,298.5C 28.6107,299.117 28.944,299.617 29.5,300C 21.5069,300.5 13.5069,300.666 5.5,300.5C 5.17428,292.316 5.50761,284.316 6.5,276.5 Z"/></g>
<g><path style="opacity:1" fill="#8a2be2" d="M 276.5,276.5 C 283.833,284.5 291.5,292.167 299.5,299.5C 300.492,291.684 300.826,283.684 300.5,275.5C 292.316,275.174 284.316,275.508 276.5,276.5 Z"/></g>
</svg>
