<?xml version="1.0" encoding="UTF-8"?>
<!DOCTYPE svg PUBLIC "-//W3C//DTD SVG 1.1//EN" "http://www.w3.org/Graphics/SVG/1.1/DTD/svg11.dtd">
<svg xmlns="http://www.w3.org/2000/svg" version="1.1" width="306px" height="306px" style="shape-rendering:geometricPrecision; text-rendering:geometricPrecision; image-rendering:optimizeQuality; fill-rule:evenodd; clip-rule:evenodd" xmlns:xlink="http://www.w3.org/1999/xlink">
<g><path style="opacity:1" fill="#000000" d="M -0.5,-0.5 C 101.5,-0.5 203.5,-0.5 305.5,-0.5C 305.5,101.5 305.5,203.5 305.5,305.5C 203.5,305.5 101.5,305.5 -0.5,305.5C -0.5,203.5 -0.5,101.5 -0.5,-0.5 Z"/></g>
<g><path style="opacity:1" fill="#023dff" d="M 5.5,5.5 C 13.5,5.5 21.5,5.5 29.5,5.5C 29.5,13.5 29.5,21.5 29.5,29.5C 21.5,29.5 13.5,29.5 5.5,29.5C 5.5,21.5 5.5,13.5 5.5,5.5 Z"/></g>
<g><path style="opacity:1" fill="#fe7c00" d="M 35.5,5.5 C 43.5,5.5 51.5,5.5 59.5,5.5C 59.5,13.5 59.5,21.5 59.5,29.5C 51.5,29.5 43.5,29.5 35.5,29.5C 35.5,21.5 35.5,13.5 35.5,5.5 Z"/></g>
<g><path style="opacity:1" fill="#1ac937" d="M 65.5,5.5 C 73.5,5.5 81.5,5.5 89.5,5.5C 89.5,13.5 89.5,21.5 89.5,29.5C 81.5,29.5 73.5,29.5 65.5,29.5C 65.5,21.5 65.5,13.5 65.5,5.5 Z"/></g>
<g><path style="opacity:1" fill="#e7000a" d="M 95.5,5.5 C 103.5,5.5 111.5,5.5 119.5,5.5C 119.5,13.5 119.5,21.5 119.5,29.5C 111.5,29.5 103.5,29.5 95.5,29.5C 95.5,21.5 95.5,13.5 95.5,5.5 Z"/></g>
<g><path style="opacity:1" fill="#8a2be2" d="M 125.5,5.5 C 133.5,5.5 141.5,5.5 149.5,5.5C 149.5,13.5 149.5,21.5 149.5,29.5C 141.5,29.5 133.5,29.5 125.5,29.5C 125.5,21.5 125.5,13.5 125.5,5.5 Z"/></g>
<g><path style="opacity:1" fill="#9e4800" d="M 155.5,5.5 C 163.5,5.5 171.5,5.5 179.5,5.5C 179.5,13.5 179.5,21.5 179.5,29.5C 171.5,29.5 163.5,29.5 155.5,29.5C 155.5,21.5 155.5,13.5 155.5,5.5 Z"/></g>
<g><path style="opacity:1" fill="#f04cc0" d="M 185.5,5.5 C 193.5,5.5 201.5,5.5 209.5,5.5C 209.5,13.5 209.5,21.5 209.5,29.5C 201.5,29.5 193.5,29.5 185.5,29.5C 185.5,21.5 185.5,13.5 185.5,5.5 Z"/></g>
<g><path style="opacity:1" fill="#a2a3a2" d="M 215.5,5.5 C 223.5,5.5 231.5,5.5 239.5,5.5C 239.5,13.5 239.5,21.5 239.5,29.5C 231.5,29.5 223.5,29.5 215.5,29.5C 215.5,21.5 215.5,13.5 215.5,5.5 Z"/></g>
<g><path style="opacity:1" fill="#fec400" d="M 245.5,5.5 C 253.5,5.5 261.5,5.5 269.5,5.5C 269.5,13.5 269.5,21.5 269.5,29.5C 261.5,29.5 253.5,29.5 245.5,29.5C 245.5,21.5 245.5,13.5 245.5,5.5 Z"/></g>
<g><path style="opacity:1" fill="#00d7ff" d="M 275.5,5.5 C 283.5,5.5 291.5,5.5 299.5,5.5C 299.5,13.5 299.5,21.5 299.5,29.5C 291.5,29.5 283.5,29.5 275.5,29.5C 275.5,21.5 275.5,13.5 275.5,5.5 Z"/></g>
<g><path style="opacity:1" fill="#023dff" d="M 5.5,35.5 C 13.5,35.5 21.5,35.5 29.5,35.5C 29.5,43.5 29.5,51.5 29.5,59.5C 21.5,59.5 13.5,59.5 5.5,59.5C 5.5,51.5 5.5,43.5 5.5,35.5 Z"/></g>
<g><path style="opacity:1" fill="#fefffe" d="M 35.5,35.5 C 113.5,35.5 191.5,35.5 269.5,35.5C 269.5,113.5 269.5,191.5 269.5,269.5C 191.5,269.5 113.5,269.5 35.5,269.5C 35.5,191.5 35.5,113.5 35.5,35.5 Z"/></g>
<g><path style="opacity:1" fill="#00d7ff" d="M 275.5,35.5 C 283.5,35.5 291.5,35.5 299.5,35.5C 299.5,43.5 299.5,51.5 299.5,59.5C 291.5,59.5 283.5,59.5 275.5,59.5C 275.5,51.5 275.5,43.5 275.5,35.5 Z"/></g>
<g><path style="opacity:1" fill="#023dff" d="M 5.5,65.5 C 13.5,65.5 21.5,65.5 29.5,65.5C 29.5,73.5 29.5,81.5 29.5,89.5C 21.5,89.5 13.5,89.5 5.5,89.5C 5.5,81.5 5.5,73.5 5.5,65.5 Z"/></g>
<g><path style="opacity:1" fill="#00d7ff" d="M 275.5,65.5 C 283.5,65.5 291.5,65.5 299.5,65.5C 299.5,73.5 299.5,81.5 299.5,89.5C 291.5,89.5 283.5,89.5 275.5,89.5C 275.5,81.5 275.5,73.5 275.5,65.5 Z"/></g>
<g><path style="opacity:1" fill="#023dff" d="M 5.5,95.5 C 13.5,95.5 21.5,95.5 29.5,95.5C 29.5,103.5 29.5,111.5 29.5,119.5C 21.5,119.5 13.5,119.5 5.5,119.5C 5.5,111.5 5.5,103.5 5.5,95.5 Z"/></g>
<g><path style="opacity:1" fill="#00d7ff" d="M 275.5,95.5 C 283.5,95.5 291.5,95.5 299.5,95.5C 299.5,103.5 299.5,111.5 299.5,119.5C 291.5,119.5 283.5,119.5 275.5,119.5C 275.5,111.5 275.5,103.5 275.5,95.5 Z"/></g>
<g><path style="opacity:1" fill="#023dff" d="M 5.5,125.5 C 13.5,125.5 21.5,125.5 29.5,125.5C 29.5,133.5 29.5,141.5 29.5,149.5C 21.5,149.5 13.5,149.5 5.5,149.5C 5.5,141.5 5.5,133.5 5.5,125.5 Z"/></g>
<g><path style="opacity:1" fill="#00d7ff" d="M 275.5,125.5 C 283.5,125.5 291.5,125.5 299.5,125.5C 299.5,133.5 299.5,141.5 299.5,149.5C 291.5,149.5 283.5,149.5 275.5,149.5C 275.5,141.5 275.5,133.5 275.5,125.5 Z"/></g>
<g><path style="opacity:1" fill="#023dff" d="M 5.5,155.5 C 13.5,155.5 21.5,155.5 29.5,155.5C 29.5,163.5 29.5,171.5 29.5,179.5C 21.5,179.5 13.5,179.5 5.5,179.5C 5.5,171.5 5.5,163.5 5.5,155.5 Z"/></g>
<g><path style="opacity:1" fill="#00d7ff" d="M 275.5,155.5 C 283.5,155.5 291.5,155.5 299.5,155.5C 299.5,163.5 299.5,171.5 299.5,179.5C 291.5,179.5 283.5,179.5 275.5,179.5C 275.5,171.5 275.5,163.5 275.5,155.5 Z"/></g>
<g><path style="opacity:1" fill="#023dff" d="M 5.5,185.5 C 13.5,185.5 21.5,185.5 29.5,185.5C 29.5,193.5 29.5,201.5 29.5,209.5C 21.5,209.5 13.5,209.5 5.5,209.5C 5.5,201.5 5.5,193.5 5.5,185.5 Z"/></g>
<g><path style="opacity:1" fill="#00d7ff" d="M 275.5,185.5 C 283.5,185.5 291.5,185.5 299.5,185.5C 299.5,193.5 299.5,201.5 299.5,209.5C 291.5,209.5 283.5,209.5 275.5,209.5C 275.5,201.5 275.5,193.5 275.5,185.5 Z"/></g>
<g><path style="opacity:1" fill="#023dff" d="M 5.5,215.5 C 13.5,215.5 21.5,215.5 29.5,215.5C 29.5,223.5 29.5,231.5 29.5,239.5C 21.5,239.5 13.5,239.5 5.5,239.5C 5.5,231.5 5.5,223.5 5.5,215.5 Z"/></g>
<g><path style="opacity:1" fill="#00d7ff" d="M 275.5,215.5 C 283.5,215.5 291.5,215.5 299.5,215.5C 299.5,223.5 299.5,231.5 299.5,239.5C 291.5,239.5 283.5,239.5 275.5,239.5C 275.5,231.5 275.5,223.5 275.5,215.5 Z"/></g>
<g><path style="opacity:1" fill="#023dff" d="M 5.5,245.5 C 13.5,245.5 21.5,245.5 29.5,245.5C 29.5,253.5 29.5,261.5 29.5,269.5C 21.5,269.5 13.5,269.5 5.5,269.5C 5.5,261.5 5.5,253.5 5.5,245.5 Z"/></g>
<g><path style="opacity:1" fill="#00d7ff" d="M 275.5,245.5 C 283.5,245.5 291.5,245.5 299.5,245.5C 299.5,253.5 299.5,261.5 299.5,269.5C 291.5,269.5 283.5,269.5 275.5,269.5C 275.5,261.5 275.5,253.5 275.5,245.5 Z"/></g>
<g><path style="opacity:1" fill="#023dff" d="M 5.5,275.5 C 13.5,275.5 21.5,275.5 29.5,275.5C 29.5,283.5 29.5,291.5 29.5,299.5C 21.5,299.5 13.5,299.5 5.5,299.5C 5.5,291.5 5.5,283.5 5.5,275.5 Z"/></g>
<g><path style="opacity:1" fill="#fe7c00" d="M 35.5,275.5 C 43.5,275.5 51.5,275.5 59.5,275.5C 59.5,283.5 59.5,291.5 59.5,299.5C 51.5,299.5 43.5,299.5 35.5,299.5C 35.5,291.5 35.5,283.5 35.5,275.5 Z"/></g>
<g><path style="opacity:1" fill="#1ac937" d="M 65.5,275.5 C 73.5,275.5 81.5,275.5 89.5,275.5C 89.5,283.5 89.5,291.5 89.5,299.5C 81.5,299.5 73.5,299.5 65.5,299.5C 65.5,291.5 65.5,283.5 65.5,275.5 Z"/></g>
<g><path style="opacity:1" fill="#e7000a" d="M 95.5,275.5 C 103.5,275.5 111.5,275.5 119.5,275.5C 119.5,283.5 119.5,291.5 119.5,299.5C 111.5,299.5 103.5,299.5 95.5,299.5C 95.5,291.5 95.5,283.5 95.5,275.5 Z"/></g>
<g><path style="opacity:1" fill="#8a2be2" d="M 125.5,275.5 C 133.5,275.5 141.5,275.5 149.5,275.5C 149.5,283.5 149.5,291.5 149.5,299.5C 141.5,299.5 133.5,299.5 125.5,299.5C 125.5,291.5 125.5,283.5 125.5,275.5 Z"/></g>
<g><path style="opacity:1" fill="#9e4800" d="M 155.5,275.5 C 163.5,275.5 171.5,275.5 179.5,275.5C 179.5,283.5 179.5,291.5 179.5,299.5C 171.5,299.5 163.5,299.5 155.5,299.5C 155.5,291.5 155.5,283.5 155.5,275.5 Z"/></g>
<g><path style="opacity:1" fill="#f04cc0" d="M 185.5,275.5 C 193.5,275.5 201.5,275.5 209.5,275.5C 209.5,283.5 209.5,291.5 209.5,299.5C 201.5,299.5 193.5,299.5 185.5,299.5C 185.5,291.5 185.5,283.5 185.5,275.5 Z"/></g>
<g><path style="opacity:1" fill="#a2a3a2" d="M 215.5,275.5 C 223.5,275.5 231.5,275.5 239.5,275.5C 239.5,283.5 239.5,291.5 239.5,299.5C 231.5,299.5 223.5,299.5 215.5,299.5C 215.5,291.5 215.5,283.5 215.5,275.5 Z"/></g>
<g><path style="opacity:1" fill="#fec400" d="M 245.5,275.5 C 253.5,275.5 261.5,275.5 269.5,275.5C 269.5,283.5 269.5,291.5 269.5,299.5C 261.5,299.5 253.5,299.5 245.5,299.5C 245.5,291.5 245.5,283.5 245.5,275.5 Z"/></g>
<g><path style="opacity:1" fill="#00d7ff" d="M 275.5,275.5 C 283.5,275.5 291.5,275.5 299.5,275.5C 299.5,283.5 299.5,291.5 299.5,299.5C 291.5,299.5 283.5,299.5 275.5,299.5C 275.5,291.5 275.5,283.5 275.5,275.5 Z"/></g>
</svg>
