<?xml version="1.0" encoding="UTF-8"?>
<svg xmlns="http://www.w3.org/2000/svg" xmlns:xlink="http://www.w3.org/1999/xlink" width="120" height="100" viewBox="0 0 120 100">
<rect x="-12" y="-10" width="144" height="120" fill="rgb(100%, 100%, 100%)" fill-opacity="1"/>
<path fill-rule="nonzero" fill="rgb(100%, 100%, 100%)" fill-opacity="0.75" stroke-width="0.75" stroke-linecap="butt" stroke-linejoin="miter" stroke="rgb(82.745098%, 82.745098%, 82.745098%)" stroke-opacity="1" stroke-miterlimit="10" d="M 6 27 L 6 7 L 26 7 L 26 27 Z M 6 27 "/>
<path fill-rule="nonzero" fill="rgb(11.353468%, 45%, 5%)" fill-opacity="0.75" stroke-width="0.75" stroke-linecap="butt" stroke-linejoin="miter" stroke="rgb(11.353468%, 45%, 5%)" stroke-opacity="1" stroke-miterlimit="10" d="M 28 27 L 28 7 L 48 7 L 48 27 Z M 28 27 "/>
<path fill-rule="nonzero" fill="rgb(100%, 100%, 100%)" fill-opacity="0.75" stroke-width="0.75" stroke-linecap="butt" stroke-linejoin="miter" stroke="rgb(82.745098%, 82.745098%, 82.745098%)" stroke-opacity="1" stroke-miterlimit="10" d="M 50 27 L 50 7 L 70 7 L 70 27 Z M 50 27 "/>
<path fill-rule="nonzero" fill="rgb(89.542703%, 98.647059%, 87.823529%)" fill-opacity="0.75" stroke-width="0.75" stroke-linecap="butt" stroke-linejoin="miter" stroke="rgb(11.353468%, 45%, 5%)" stroke-opacity="1" stroke-miterlimit="10" d="M 72 27 L 72 7 L 92 7 L 92 27 Z M 72 27 "/>
<path fill-rule="nonzero" fill="rgb(100%, 100%, 100%)" fill-opacity="0.75" stroke-width="0.75" stroke-linecap="butt" stroke-linejoin="miter" stroke="rgb(82.745098%, 82.745098%, 82.745098%)" stroke-opacity="1" stroke-miterlimit="10" d="M 94 27 L 94 7 L 114 7 L 114 27 Z M 94 27 "/>
<path fill-rule="nonzero" fill="rgb(100%, 100%, 100%)" fill-opacity="0.75" stroke-width="0.75" stroke-linecap="butt" stroke-linejoin="miter" stroke="rgb(82.745098%, 82.745098%, 82.745098%)" stroke-opacity="1" stroke-miterlimit="10" d="M 6 49 L 6 29 L 26 29 L 26 49 Z M 6 49 "/>
<path fill-rule="nonzero" fill="rgb(100%, 100%, 100%)" fill-opacity="0.75" stroke-width="0.75" stroke-linecap="butt" stroke-linejoin="miter" stroke="rgb(82.745098%, 82.745098%, 82.745098%)" stroke-opacity="1" stroke-miterlimit="10" d="M 28 49 L 28 29 L 48 29 L 48 49 Z M 28 49 "/>
<path fill-rule="nonzero" fill="rgb(100%, 100%, 100%)" fill-opacity="0.75" stroke-width="0.75" stroke-linecap="butt" stroke-linejoin="miter" stroke="rgb(82.745098%, 82.745098%, 82.745098%)" stroke-opacity="1" stroke-miterlimit="10" d="M 50 49 L 50 29 L 70 29 L 70 49 Z M 50 49 "/>
<path fill-rule="nonzero" fill="rgb(91.411882%, 98.888889%, 90%)" fill-opacity="0.75" stroke-width="0.75" stroke-linecap="butt" stroke-linejoin="miter" stroke="rgb(11.353468%, 45%, 5%)" stroke-opacity="1" stroke-miterlimit="10" d="M 72 49 L 72 29 L 92 29 L 92 49 Z M 72 49 "/>
<path fill-rule="nonzero" fill="rgb(14.099077%, 55.882353%, 6.20915%)" fill-opacity="0.75" stroke-width="0.75" stroke-linecap="butt" stroke-linejoin="miter" stroke="rgb(11.353468%, 45%, 5%)" stroke-opacity="1" stroke-miterlimit="10" d="M 94 49 L 94 29 L 114 29 L 114 49 Z M 94 49 "/>
<path fill-rule="nonzero" fill="rgb(100%, 100%, 100%)" fill-opacity="0.75" stroke-width="0.75" stroke-linecap="butt" stroke-linejoin="miter" stroke="rgb(82.745098%, 82.745098%, 82.745098%)" stroke-opacity="1" stroke-miterlimit="10" d="M 6 71 L 6 51 L 26 51 L 26 71 Z M 6 71 "/>
<path fill-rule="nonzero" fill="rgb(17.92809%, 71.058824%, 7.895425%)" fill-opacity="0.75" stroke-width="0.75" stroke-linecap="butt" stroke-linejoin="miter" stroke="rgb(11.353468%, 45%, 5%)" stroke-opacity="1" stroke-miterlimit="10" d="M 28 71 L 28 51 L 48 51 L 48 71 Z M 28 71 "/>
<path fill-rule="nonzero" fill="rgb(25.636999%, 90.379085%, 13.411765%)" fill-opacity="0.75" stroke-width="0.75" stroke-linecap="butt" stroke-linejoin="miter" stroke="rgb(11.353468%, 45%, 5%)" stroke-opacity="1" stroke-miterlimit="10" d="M 50 71 L 50 51 L 70 51 L 70 71 Z M 50 71 "/>
<path fill-rule="nonzero" fill="rgb(100%, 100%, 100%)" fill-opacity="0.75" stroke-width="0.75" stroke-linecap="butt" stroke-linejoin="miter" stroke="rgb(82.745098%, 82.745098%, 82.745098%)" stroke-opacity="1" stroke-miterlimit="10" d="M 72 71 L 72 51 L 92 51 L 92 71 Z M 72 71 "/>
<path fill-rule="nonzero" fill="rgb(100%, 100%, 100%)" fill-opacity="0.75" stroke-width="0.75" stroke-linecap="butt" stroke-linejoin="miter" stroke="rgb(82.745098%, 82.745098%, 82.745098%)" stroke-opacity="1" stroke-miterlimit="10" d="M 94 71 L 94 51 L 114 51 L 114 71 Z M 94 71 "/>
<path fill-rule="nonzero" fill="rgb(75.801714%, 96.869281%, 71.823529%)" fill-opacity="0.75" stroke-width="0.75" stroke-linecap="butt" stroke-linejoin="miter" stroke="rgb(11.353468%, 45%, 5%)" stroke-opacity="1" stroke-miterlimit="10" d="M 6 93 L 6 73 L 26 73 L 26 93 Z M 6 93 "/>
<path fill-rule="nonzero" fill="rgb(100%, 100%, 100%)" fill-opacity="0.75" stroke-width="0.75" stroke-linecap="butt" stroke-linejoin="miter" stroke="rgb(82.745098%, 82.745098%, 82.745098%)" stroke-opacity="1" stroke-miterlimit="10" d="M 28 93 L 28 73 L 48 73 L 48 93 Z M 28 93 "/>
<path fill-rule="nonzero" fill="rgb(86.663157%, 98.27451%, 84.470588%)" fill-opacity="0.75" stroke-width="0.75" stroke-linecap="butt" stroke-linejoin="miter" stroke="rgb(11.353468%, 45%, 5%)" stroke-opacity="1" stroke-miterlimit="10" d="M 50 93 L 50 73 L 70 73 L 70 93 Z M 50 93 "/>
<path fill-rule="nonzero" fill="rgb(100%, 100%, 100%)" fill-opacity="0.75" stroke-width="0.75" stroke-linecap="butt" stroke-linejoin="miter" stroke="rgb(82.745098%, 82.745098%, 82.745098%)" stroke-opacity="1" stroke-miterlimit="10" d="M 72 93 L 72 73 L 92 73 L 92 93 Z M 72 93 "/>
<path fill-rule="nonzero" fill="rgb(100%, 100%, 100%)" fill-opacity="0.75" stroke-width="0.75" stroke-linecap="butt" stroke-linejoin="miter" stroke="rgb(82.745098%, 82.745098%, 82.745098%)" stroke-opacity="1" stroke-miterlimit="10" d="M 94 93 L 94 73 L 114 73 L 114 93 Z M 94 93 "/>
<path fill="none" stroke-width="2" stroke-linecap="butt" stroke-linejoin="miter" stroke="rgb(11.353468%, 45%, 5%)" stroke-opacity="1" stroke-dasharray="7 4" stroke-miterlimit="10" d="M 2.5 96.5 L 2.5 3.5 L 117.5 3.5 L 117.5 96.5 Z M 2.5 96.5 "/>
</svg>
