<?xml version="1.0" encoding="UTF-8" standalone="no"?>
<!DOCTYPE svg PUBLIC "-//W3C//DTD SVG 1.1//EN" "http://www.w3.org/Graphics/SVG/1.1/DTD/svg11.dtd">
<svg xmlns:xl="http://www.w3.org/1999/xlink" xmlns="http://www.w3.org/2000/svg" xmlns:dc="http://purl.org/dc/elements/1.1/" version="1.1" viewBox="-214.5 1019.9961 876.8086 445.7018" width="876.8086" height="445.7018">
  <defs>
    <marker orient="auto" overflow="visible" markerUnits="strokeWidth" id="FilledArrow_Marker" stroke-linejoin="miter" stroke-miterlimit="10" viewBox="-1 -4 10 8" markerWidth="10" markerHeight="8" color="black">
      <g>
        <path d="M 8 0 L 0 -3 L 0 3 Z" fill="currentColor" stroke="currentColor" stroke-width="1"/>
      </g>
    </marker>
  </defs>
  <g id="版面___7" stroke-opacity="1" fill="none" stroke="none" fill-opacity="1" stroke-dasharray="none">
    <title>版面 7</title>
    <g id="版面___7_图层_2">
      <title>图层 2</title>
      <g id="Graphic_18">
        <path d="M -188.5 1133.9961 L 187.5 1133.9961 C 190.26142 1133.9961 192.5 1136.2347 192.5 1138.9961 L 192.5 1240.9961 C 192.5 1243.7575 190.26142 1245.9961 187.5 1245.9961 L -188.5 1245.9961 C -191.26142 1245.9961 -193.5 1243.7575 -193.5 1240.9961 L -193.5 1138.9961 C -193.5 1136.2347 -191.26142 1133.9961 -188.5 1133.9961 Z" fill="#d9d9d9"/>
        <path d="M -188.5 1133.9961 L 187.5 1133.9961 C 190.26142 1133.9961 192.5 1136.2347 192.5 1138.9961 L 192.5 1240.9961 C 192.5 1243.7575 190.26142 1245.9961 187.5 1245.9961 L -188.5 1245.9961 C -191.26142 1245.9961 -193.5 1243.7575 -193.5 1240.9961 L -193.5 1138.9961 C -193.5 1136.2347 -191.26142 1133.9961 -188.5 1133.9961 Z" stroke="gray" stroke-linecap="round" stroke-linejoin="round" stroke-width="2"/>
      </g>
      <g id="Line_25">
        <line x1="-181.8125" y1="1360.1133" x2="181.1875" y2="1360.1133" stroke="#7f8080" stroke-linecap="round" stroke-linejoin="round" stroke-width="2"/>
      </g>
      <g id="Graphic_26">
        <rect x="-150.9475" y="1255.4961" width="35.77" height="104.70178" fill="#f8dedf"/>
        <rect x="-150.9475" y="1255.4961" width="35.77" height="104.70178" stroke="gray" stroke-linecap="round" stroke-linejoin="round" stroke-width="2"/>
      </g>
      <g id="Graphic_27">
        <rect x="-63.17016" y="1331.6653" width="35.77" height="28.447998" fill="#fff3cc"/>
        <rect x="-63.17016" y="1331.6653" width="35.77" height="28.447998" stroke="gray" stroke-linecap="round" stroke-linejoin="round" stroke-width="2"/>
      </g>
      <g id="Graphic_28">
        <rect x="24.607187" y="1351.9961" width="35.77" height="8.1171875" fill="#dae9fc"/>
        <rect x="24.607187" y="1351.9961" width="35.77" height="8.1171875" stroke="gray" stroke-linecap="round" stroke-linejoin="round" stroke-width="2"/>
      </g>
      <g id="Graphic_29">
        <rect x="112.38453" y="1341.4961" width="35.77" height="18.617188" fill="#d7e9d6"/>
        <rect x="112.38453" y="1341.4961" width="35.77" height="18.617188" stroke="gray" stroke-linecap="round" stroke-linejoin="round" stroke-width="2"/>
      </g>
      <g id="Graphic_30">
        <path d="M 404.5586 1291.4961 L 492.0586 1291.4961 C 494.82 1291.4961 497.0586 1293.7347 497.0586 1296.4961 L 497.0586 1333.9961 C 497.0586 1336.7575 494.82 1338.9961 492.0586 1338.9961 L 404.5586 1338.9961 C 401.79717 1338.9961 399.5586 1336.7575 399.5586 1333.9961 L 399.5586 1296.4961 C 399.5586 1293.7347 401.79717 1291.4961 404.5586 1291.4961 Z" fill="#e3d5e8"/>
        <path d="M 404.5586 1291.4961 L 492.0586 1291.4961 C 494.82 1291.4961 497.0586 1293.7347 497.0586 1296.4961 L 497.0586 1333.9961 C 497.0586 1336.7575 494.82 1338.9961 492.0586 1338.9961 L 404.5586 1338.9961 C 401.79717 1338.9961 399.5586 1336.7575 399.5586 1333.9961 L 399.5586 1296.4961 C 399.5586 1293.7347 401.79717 1291.4961 404.5586 1291.4961 Z" stroke="gray" stroke-linecap="round" stroke-linejoin="round" stroke-width="2"/>
        <text transform="translate(404.5586 1305.7461)" fill="black">
          <tspan font-family="Helvetica" font-size="16" fill="black" x="5.0703125" y="15" xml:space="preserve">LLM / VLM</tspan>
        </text>
      </g>
      <g id="Group_35">
        <g id="Graphic_37">
          <path d="M 429.5586 1384.4961 L 467.0586 1384.4961 C 469.82 1384.4961 472.0586 1386.7347 472.0586 1389.4961 L 472.0586 1426.9961 C 472.0586 1429.7575 469.82 1431.9961 467.0586 1431.9961 L 429.5586 1431.9961 C 426.79717 1431.9961 424.5586 1429.7575 424.5586 1426.9961 L 424.5586 1389.4961 C 424.5586 1386.7347 426.79717 1384.4961 429.5586 1384.4961 Z" fill="#f8dedf"/>
          <path d="M 429.5586 1384.4961 L 467.0586 1384.4961 C 469.82 1384.4961 472.0586 1386.7347 472.0586 1389.4961 L 472.0586 1426.9961 C 472.0586 1429.7575 469.82 1431.9961 467.0586 1431.9961 L 429.5586 1431.9961 C 426.79717 1431.9961 424.5586 1429.7575 424.5586 1426.9961 L 424.5586 1389.4961 C 424.5586 1386.7347 426.79717 1384.4961 429.5586 1384.4961 Z" stroke="gray" stroke-linecap="round" stroke-linejoin="round" stroke-width="2"/>
        </g>
        <g id="Graphic_36">
          <text transform="translate(433.6328 1399.3489)" fill="black">
            <tspan font-family="Helvetica" font-size="16" fill="black" x="0" y="15" xml:space="preserve">Red</tspan>
          </text>
        </g>
      </g>
      <g id="Line_39">
        <line x1="-133.0625" y1="1361.1979" x2="-133.0625" y2="1386.2979" marker-end="url(#FilledArrow_Marker)" stroke="black" stroke-linecap="round" stroke-linejoin="round" stroke-width="1"/>
      </g>
      <g id="Line_40">
        <line x1="448.3086" y1="1339.9961" x2="448.3086" y2="1373.5961" marker-end="url(#FilledArrow_Marker)" stroke="black" stroke-linecap="round" stroke-linejoin="round" stroke-width="1"/>
      </g>
      <g id="Graphic_42">
        <path d="M -44.0625 1040.9961 L 43.4375 1040.9961 C 46.198924 1040.9961 48.4375 1043.2347 48.4375 1045.9961 L 48.4375 1083.4961 C 48.4375 1086.2575 46.198924 1088.4961 43.4375 1088.4961 L -44.0625 1088.4961 C -46.823924 1088.4961 -49.0625 1086.2575 -49.0625 1083.4961 L -49.0625 1045.9961 C -49.0625 1043.2347 -46.823924 1040.9961 -44.0625 1040.9961 Z" fill="#d9d9d9"/>
        <path d="M -44.0625 1040.9961 L 43.4375 1040.9961 C 46.198924 1040.9961 48.4375 1043.2347 48.4375 1045.9961 L 48.4375 1083.4961 C 48.4375 1086.2575 46.198924 1088.4961 43.4375 1088.4961 L -44.0625 1088.4961 C -46.823924 1088.4961 -49.0625 1086.2575 -49.0625 1083.4961 L -49.0625 1045.9961 C -49.0625 1043.2347 -46.823924 1040.9961 -44.0625 1040.9961 Z" stroke="gray" stroke-linecap="round" stroke-linejoin="round" stroke-width="2"/>
        <text transform="translate(-44.0625 1055.2461)" fill="black">
          <tspan font-family="Helvetica" font-size="16" fill="black" x="26.851562" y="15" xml:space="preserve">Data</tspan>
        </text>
      </g>
      <g id="Graphic_43">
        <path d="M 404.5586 1040.9961 L 492.0586 1040.9961 C 494.82 1040.9961 497.0586 1043.2347 497.0586 1045.9961 L 497.0586 1083.4961 C 497.0586 1086.2575 494.82 1088.4961 492.0586 1088.4961 L 404.5586 1088.4961 C 401.79717 1088.4961 399.5586 1086.2575 399.5586 1083.4961 L 399.5586 1045.9961 C 399.5586 1043.2347 401.79717 1040.9961 404.5586 1040.9961 Z" fill="#d9d9d9"/>
        <path d="M 404.5586 1040.9961 L 492.0586 1040.9961 C 494.82 1040.9961 497.0586 1043.2347 497.0586 1045.9961 L 497.0586 1083.4961 C 497.0586 1086.2575 494.82 1088.4961 492.0586 1088.4961 L 404.5586 1088.4961 C 401.79717 1088.4961 399.5586 1086.2575 399.5586 1083.4961 L 399.5586 1045.9961 C 399.5586 1043.2347 401.79717 1040.9961 404.5586 1040.9961 Z" stroke="gray" stroke-linecap="round" stroke-linejoin="round" stroke-width="2"/>
        <text transform="translate(404.5586 1055.2461)" fill="black">
          <tspan font-family="Helvetica" font-size="16" fill="black" x="26.851562" y="15" xml:space="preserve">Data</tspan>
        </text>
      </g>
      <g id="Line_44">
        <line x1="-.3495509" y1="1089.4961" x2="-.3998503" y2="1123.0961" marker-end="url(#FilledArrow_Marker)" stroke="black" stroke-linecap="round" stroke-linejoin="round" stroke-width="1"/>
      </g>
      <g id="Graphic_46">
        <text transform="translate(-188.10278 1110.5481)" fill="black">
          <tspan font-family="Helvetica" font-size="16" fill="black" x="2.2226562" y="15" xml:space="preserve">Predefined categories </tspan>
        </text>
      </g>
      <g id="Graphic_19">
        <text transform="translate(260.3086 1110.5481)" fill="black">
          <tspan font-family="Helvetica" font-size="16" fill="black" x="0" y="15" xml:space="preserve">Max Activating Examples</tspan>
        </text>
      </g>
      <g id="Graphic_47">
        <path d="M 260.3086 1133.9961 L 636.3086 1133.9961 C 639.07 1133.9961 641.3086 1136.2347 641.3086 1138.9961 L 641.3086 1240.9961 C 641.3086 1243.7575 639.07 1245.9961 636.3086 1245.9961 L 260.3086 1245.9961 C 257.54717 1245.9961 255.3086 1243.7575 255.3086 1240.9961 L 255.3086 1138.9961 C 255.3086 1136.2347 257.54717 1133.9961 260.3086 1133.9961 Z" fill="#d9d9d9"/>
        <path d="M 260.3086 1133.9961 L 636.3086 1133.9961 C 639.07 1133.9961 641.3086 1136.2347 641.3086 1138.9961 L 641.3086 1240.9961 C 641.3086 1243.7575 639.07 1245.9961 636.3086 1245.9961 L 260.3086 1245.9961 C 257.54717 1245.9961 255.3086 1243.7575 255.3086 1240.9961 L 255.3086 1138.9961 C 255.3086 1136.2347 257.54717 1133.9961 260.3086 1133.9961 Z" stroke="gray" stroke-linecap="round" stroke-linejoin="round" stroke-width="2"/>
      </g>
      <g id="Line_48">
        <line x1="448.3086" y1="1089.4961" x2="448.3086" y2="1123.0961" marker-end="url(#FilledArrow_Marker)" stroke="black" stroke-linecap="round" stroke-linejoin="round" stroke-width="1"/>
      </g>
      <g id="Line_49">
        <line x1="448.3086" y1="1246.9961" x2="448.3086" y2="1280.5961" marker-end="url(#FilledArrow_Marker)" stroke="black" stroke-linecap="round" stroke-linejoin="round" stroke-width="1"/>
      </g>
      <g id="Graphic_51">
        <text transform="translate(87.2807 1416.1379)" fill="black">
          <tspan font-family="Helvetica" font-size="20" fill="black" x="0" y="19" xml:space="preserve">Supervised</tspan>
        </text>
      </g>
      <g id="Graphic_52">
        <text transform="translate(513.676 1416.1379)" fill="black">
          <tspan font-family="Helvetica" font-size="20" fill="black" x="0" y="19" xml:space="preserve">Unsupervised</tspan>
        </text>
      </g>
      <g id="Line_55">
        <line x1="223.4043" y1="1040.9961" x2="223.4043" y2="1444.634" stroke="#a5a5a5" stroke-linecap="round" stroke-linejoin="round" stroke-width="2"/>
      </g>
      <g id="Graphic_56">
        <text transform="translate(-39.183594 1366.1133)" fill="black">
          <tspan font-family="Helvetica" font-size="16" fill="black" x="0" y="15" xml:space="preserve">Activations</tspan>
        </text>
      </g>
    </g>
    <g id="版面___7_图层_1">
      <title>图层 1</title>
      <g id="Graphic_2">
        <path d="M -151.8125 1170.9961 L -114.3125 1170.9961 C -111.55108 1170.9961 -109.3125 1173.2347 -109.3125 1175.9961 L -109.3125 1213.4961 C -109.3125 1216.2575 -111.55108 1218.4961 -114.3125 1218.4961 L -151.8125 1218.4961 C -154.57392 1218.4961 -156.8125 1216.2575 -156.8125 1213.4961 L -156.8125 1175.9961 C -156.8125 1173.2347 -154.57392 1170.9961 -151.8125 1170.9961 Z" fill="#f8dedf"/>
        <path d="M -151.8125 1170.9961 L -114.3125 1170.9961 C -111.55108 1170.9961 -109.3125 1173.2347 -109.3125 1175.9961 L -109.3125 1213.4961 C -109.3125 1216.2575 -111.55108 1218.4961 -114.3125 1218.4961 L -151.8125 1218.4961 C -154.57392 1218.4961 -156.8125 1216.2575 -156.8125 1213.4961 L -156.8125 1175.9961 C -156.8125 1173.2347 -154.57392 1170.9961 -151.8125 1170.9961 Z" stroke="gray" stroke-linecap="round" stroke-linejoin="round" stroke-width="2"/>
      </g>
      <g id="Graphic_3">
        <path d="M -64.03516 1170.9961 L -26.535156 1170.9961 C -23.773733 1170.9961 -21.535156 1173.2347 -21.535156 1175.9961 L -21.535156 1213.4961 C -21.535156 1216.2575 -23.773733 1218.4961 -26.535156 1218.4961 L -64.03516 1218.4961 C -66.79658 1218.4961 -69.03516 1216.2575 -69.03516 1213.4961 L -69.03516 1175.9961 C -69.03516 1173.2347 -66.79658 1170.9961 -64.03516 1170.9961 Z" fill="#fff3cc"/>
        <path d="M -64.03516 1170.9961 L -26.535156 1170.9961 C -23.773733 1170.9961 -21.535156 1173.2347 -21.535156 1175.9961 L -21.535156 1213.4961 C -21.535156 1216.2575 -23.773733 1218.4961 -26.535156 1218.4961 L -64.03516 1218.4961 C -66.79658 1218.4961 -69.03516 1216.2575 -69.03516 1213.4961 L -69.03516 1175.9961 C -69.03516 1173.2347 -66.79658 1170.9961 -64.03516 1170.9961 Z" stroke="gray" stroke-linecap="round" stroke-linejoin="round" stroke-width="2"/>
      </g>
      <g id="Graphic_4">
        <path d="M 23.742188 1170.9961 L 61.24219 1170.9961 C 64.00361 1170.9961 66.24219 1173.2347 66.24219 1175.9961 L 66.24219 1213.4961 C 66.24219 1216.2575 64.00361 1218.4961 61.24219 1218.4961 L 23.742188 1218.4961 C 20.980764 1218.4961 18.742188 1216.2575 18.742188 1213.4961 L 18.742188 1175.9961 C 18.742188 1173.2347 20.980764 1170.9961 23.742188 1170.9961 Z" fill="#dae9fc"/>
        <path d="M 23.742188 1170.9961 L 61.24219 1170.9961 C 64.00361 1170.9961 66.24219 1173.2347 66.24219 1175.9961 L 66.24219 1213.4961 C 66.24219 1216.2575 64.00361 1218.4961 61.24219 1218.4961 L 23.742188 1218.4961 C 20.980764 1218.4961 18.742188 1216.2575 18.742188 1213.4961 L 18.742188 1175.9961 C 18.742188 1173.2347 20.980764 1170.9961 23.742188 1170.9961 Z" stroke="gray" stroke-linecap="round" stroke-linejoin="round" stroke-width="2"/>
      </g>
      <g id="Graphic_5">
        <path d="M 111.51953 1170.9961 L 149.01953 1170.9961 C 151.78095 1170.9961 154.01953 1173.2347 154.01953 1175.9961 L 154.01953 1213.4961 C 154.01953 1216.2575 151.78095 1218.4961 149.01953 1218.4961 L 111.51953 1218.4961 C 108.75811 1218.4961 106.51953 1216.2575 106.51953 1213.4961 L 106.51953 1175.9961 C 106.51953 1173.2347 108.75811 1170.9961 111.51953 1170.9961 Z" fill="#d7e9d6"/>
        <path d="M 111.51953 1170.9961 L 149.01953 1170.9961 C 151.78095 1170.9961 154.01953 1173.2347 154.01953 1175.9961 L 154.01953 1213.4961 C 154.01953 1216.2575 151.78095 1218.4961 149.01953 1218.4961 L 111.51953 1218.4961 C 108.75811 1218.4961 106.51953 1216.2575 106.51953 1213.4961 L 106.51953 1175.9961 C 106.51953 1173.2347 108.75811 1170.9961 111.51953 1170.9961 Z" stroke="gray" stroke-linecap="round" stroke-linejoin="round" stroke-width="2"/>
      </g>
      <g id="Graphic_9">
        <path d="M 295.4175 1166.2461 L 332.9175 1166.2461 C 335.67892 1166.2461 337.9175 1168.4847 337.9175 1171.2461 L 337.9175 1208.7461 C 337.9175 1211.5075 335.67892 1213.7461 332.9175 1213.7461 L 295.4175 1213.7461 C 292.65608 1213.7461 290.4175 1211.5075 290.4175 1208.7461 L 290.4175 1171.2461 C 290.4175 1168.4847 292.65608 1166.2461 295.4175 1166.2461 Z" fill="#f8dedf"/>
        <path d="M 295.4175 1166.2461 L 332.9175 1166.2461 C 335.67892 1166.2461 337.9175 1168.4847 337.9175 1171.2461 L 337.9175 1208.7461 C 337.9175 1211.5075 335.67892 1213.7461 332.9175 1213.7461 L 295.4175 1213.7461 C 292.65608 1213.7461 290.4175 1211.5075 290.4175 1208.7461 L 290.4175 1171.2461 C 290.4175 1168.4847 292.65608 1166.2461 295.4175 1166.2461 Z" stroke="gray" stroke-linecap="round" stroke-linejoin="round" stroke-width="2"/>
      </g>
      <g id="Graphic_10">
        <path d="M 383.19484 1166.2461 L 420.69484 1166.2461 C 423.45627 1166.2461 425.69484 1168.4847 425.69484 1171.2461 L 425.69484 1208.7461 C 425.69484 1211.5075 423.45627 1213.7461 420.69484 1213.7461 L 383.19484 1213.7461 C 380.4334 1213.7461 378.19484 1211.5075 378.19484 1208.7461 L 378.19484 1171.2461 C 378.19484 1168.4847 380.4334 1166.2461 383.19484 1166.2461 Z" fill="#ffc0c0"/>
        <path d="M 383.19484 1166.2461 L 420.69484 1166.2461 C 423.45627 1166.2461 425.69484 1168.4847 425.69484 1171.2461 L 425.69484 1208.7461 C 425.69484 1211.5075 423.45627 1213.7461 420.69484 1213.7461 L 383.19484 1213.7461 C 380.4334 1213.7461 378.19484 1211.5075 378.19484 1208.7461 L 378.19484 1171.2461 C 378.19484 1168.4847 380.4334 1166.2461 383.19484 1166.2461 Z" stroke="gray" stroke-linecap="round" stroke-linejoin="round" stroke-width="2"/>
      </g>
      <g id="Graphic_11">
        <path d="M 470.9722 1166.2461 L 508.4722 1166.2461 C 511.2336 1166.2461 513.4722 1168.4847 513.4722 1171.2461 L 513.4722 1208.7461 C 513.4722 1211.5075 511.2336 1213.7461 508.4722 1213.7461 L 470.9722 1213.7461 C 468.21076 1213.7461 465.9722 1211.5075 465.9722 1208.7461 L 465.9722 1171.2461 C 465.9722 1168.4847 468.21076 1166.2461 470.9722 1166.2461 Z" fill="#fbcbe0"/>
        <path d="M 470.9722 1166.2461 L 508.4722 1166.2461 C 511.2336 1166.2461 513.4722 1168.4847 513.4722 1171.2461 L 513.4722 1208.7461 C 513.4722 1211.5075 511.2336 1213.7461 508.4722 1213.7461 L 470.9722 1213.7461 C 468.21076 1213.7461 465.9722 1211.5075 465.9722 1208.7461 L 465.9722 1171.2461 C 465.9722 1168.4847 468.21076 1166.2461 470.9722 1166.2461 Z" stroke="gray" stroke-linecap="round" stroke-linejoin="round" stroke-width="2"/>
      </g>
      <g id="Graphic_12">
        <path d="M 558.7495 1166.2461 L 596.2495 1166.2461 C 599.01095 1166.2461 601.2495 1168.4847 601.2495 1171.2461 L 601.2495 1208.7461 C 601.2495 1211.5075 599.01095 1213.7461 596.2495 1213.7461 L 558.7495 1213.7461 C 555.9881 1213.7461 553.7495 1211.5075 553.7495 1208.7461 L 553.7495 1171.2461 C 553.7495 1168.4847 555.9881 1166.2461 558.7495 1166.2461 Z" fill="#ff99a5"/>
        <path d="M 558.7495 1166.2461 L 596.2495 1166.2461 C 599.01095 1166.2461 601.2495 1168.4847 601.2495 1171.2461 L 601.2495 1208.7461 C 601.2495 1211.5075 599.01095 1213.7461 596.2495 1213.7461 L 558.7495 1213.7461 C 555.9881 1213.7461 553.7495 1211.5075 553.7495 1208.7461 L 553.7495 1171.2461 C 553.7495 1168.4847 555.9881 1166.2461 558.7495 1166.2461 Z" stroke="gray" stroke-linecap="round" stroke-linejoin="round" stroke-width="2"/>
      </g>
      <g id="Graphic_14">
        <text transform="translate(-147.73828 1147.5481)" fill="black">
          <tspan font-family="Helvetica" font-size="16" fill="black" x="0" y="15" xml:space="preserve">Red</tspan>
        </text>
      </g>
      <g id="Graphic_15">
        <text transform="translate(-68.11719 1147.5481)" fill="black">
          <tspan font-family="Helvetica" font-size="16" fill="black" x="0" y="15" xml:space="preserve">Yellow</tspan>
        </text>
      </g>
      <g id="Graphic_16">
        <text transform="translate(26.48047 1147.5481)" fill="black">
          <tspan font-family="Helvetica" font-size="16" fill="black" x="0" y="15" xml:space="preserve">Blue</tspan>
        </text>
      </g>
      <g id="Graphic_17">
        <text transform="translate(108.03516 1147.5481)" fill="black">
          <tspan font-family="Helvetica" font-size="16" fill="black" x="0" y="15" xml:space="preserve">Green</tspan>
        </text>
      </g>
      <g id="Group_33">
        <g id="Graphic_21">
          <path d="M -151.8125 1397.1979 L -114.3125 1397.1979 C -111.55108 1397.1979 -109.3125 1399.4365 -109.3125 1402.1979 L -109.3125 1439.6979 C -109.3125 1442.4593 -111.55108 1444.6979 -114.3125 1444.6979 L -151.8125 1444.6979 C -154.57392 1444.6979 -156.8125 1442.4593 -156.8125 1439.6979 L -156.8125 1402.1979 C -156.8125 1399.4365 -154.57392 1397.1979 -151.8125 1397.1979 Z" fill="#f8dedf"/>
          <path d="M -151.8125 1397.1979 L -114.3125 1397.1979 C -111.55108 1397.1979 -109.3125 1399.4365 -109.3125 1402.1979 L -109.3125 1439.6979 C -109.3125 1442.4593 -111.55108 1444.6979 -114.3125 1444.6979 L -151.8125 1444.6979 C -154.57392 1444.6979 -156.8125 1442.4593 -156.8125 1439.6979 L -156.8125 1402.1979 C -156.8125 1399.4365 -154.57392 1397.1979 -151.8125 1397.1979 Z" stroke="gray" stroke-linecap="round" stroke-linejoin="round" stroke-width="2"/>
        </g>
        <g id="Graphic_20">
          <text transform="translate(-147.73828 1412.0507)" fill="black">
            <tspan font-family="Helvetica" font-size="16" fill="black" x="0" y="15" xml:space="preserve">Red</tspan>
          </text>
        </g>
      </g>
    </g>
  </g>
</svg>
