<?xml version="1.0" encoding="UTF-8" standalone="no"?>
<!DOCTYPE svg PUBLIC "-//W3C//DTD SVG 1.1//EN" "http://www.w3.org/Graphics/SVG/1.1/DTD/svg11.dtd">
<svg xmlns:xl="http://www.w3.org/1999/xlink" xmlns="http://www.w3.org/2000/svg" xmlns:dc="http://purl.org/dc/elements/1.1/" version="1.1" viewBox="-401.13477 664.2539 792.9342 494.21615" width="792.9342" height="494.21615">
  <defs>
    <marker orient="auto" overflow="visible" markerUnits="strokeWidth" id="FilledArrow_Marker" stroke-linejoin="miter" stroke-miterlimit="10" viewBox="-1 -4 10 8" markerWidth="10" markerHeight="8" color="black">
      <g>
        <path d="M 8 0 L 0 -3 L 0 3 Z" fill="currentColor" stroke="currentColor" stroke-width="1"/>
      </g>
    </marker>
    <marker orient="auto" overflow="visible" markerUnits="strokeWidth" id="FilledArrow_Marker_2" stroke-linejoin="miter" stroke-miterlimit="10" viewBox="-1 -4 10 8" markerWidth="10" markerHeight="8" color="black">
      <g>
        <path d="M 8 0 L 0 -3 L 0 3 Z" fill="currentColor" stroke="currentColor" stroke-width="1"/>
      </g>
    </marker>
    <marker orient="auto" overflow="visible" markerUnits="strokeWidth" id="FilledArrow_Marker_3" stroke-linejoin="miter" stroke-miterlimit="10" viewBox="-9 -4 10 8" markerWidth="10" markerHeight="8" color="black">
      <g>
        <path d="M -8 0 L 0 3 L 0 -3 Z" fill="currentColor" stroke="currentColor" stroke-width="1"/>
      </g>
    </marker>
  </defs>
  <g id="Logit_Lens" stroke-opacity="1" fill="none" stroke="none" fill-opacity="1" stroke-dasharray="none">
    <title>Logit Lens</title>
    <g id="Logit_Lens_图层_2">
      <title>图层 2</title>
      <g id="Graphic_126">
        <path d="M -227.1418 898.7969 L -201.0418 898.7969 C -192.3418 898.7969 -187.9918 898.7969 -182.7718 899.7669 C -178.4218 900.7369 -174.0718 903.1619 -172.3318 905.5869 C -170.5918 908.4969 -170.5918 910.9219 -170.5918 915.7719 L -170.5918 930.3219 C -170.5918 935.1719 -170.5918 937.5969 -172.3318 940.5069 C -174.0718 942.9319 -178.4218 945.3569 -182.7718 946.3269 C -187.9918 947.2969 -192.3418 947.2969 -201.0418 947.2969 L -227.1418 947.2969 C -235.8418 947.2969 -240.1918 947.2969 -245.4118 946.3269 C -249.7618 945.3569 -254.1118 942.9319 -255.8518 940.5069 C -257.5918 937.5969 -257.5918 935.1719 -257.5918 930.3219 L -257.5918 915.7719 C -257.5918 910.9219 -257.5918 908.4969 -255.8518 905.5869 C -254.1118 903.1619 -249.7618 900.7369 -245.4118 899.7669 C -240.1918 898.7969 -235.8418 898.7969 -227.1418 898.7969 M -227.1418 898.7969" fill="#f8dedf"/>
        <path d="M -227.1418 898.7969 L -201.0418 898.7969 C -192.3418 898.7969 -187.9918 898.7969 -182.7718 899.7669 C -178.4218 900.7369 -174.0718 903.1619 -172.3318 905.5869 C -170.5918 908.4969 -170.5918 910.9219 -170.5918 915.7719 L -170.5918 930.3219 C -170.5918 935.1719 -170.5918 937.5969 -172.3318 940.5069 C -174.0718 942.9319 -178.4218 945.3569 -182.7718 946.3269 C -187.9918 947.2969 -192.3418 947.2969 -201.0418 947.2969 L -227.1418 947.2969 C -235.8418 947.2969 -240.1918 947.2969 -245.4118 946.3269 C -249.7618 945.3569 -254.1118 942.9319 -255.8518 940.5069 C -257.5918 937.5969 -257.5918 935.1719 -257.5918 930.3219 L -257.5918 915.7719 C -257.5918 910.9219 -257.5918 908.4969 -255.8518 905.5869 C -254.1118 903.1619 -249.7618 900.7369 -245.4118 899.7669 C -240.1918 898.7969 -235.8418 898.7969 -227.1418 898.7969 M -227.1418 898.7969" stroke="#a5a5a5" stroke-linecap="round" stroke-linejoin="round" stroke-width="2"/>
        <text transform="translate(-252.5918 913.5469)" fill="black">
          <tspan font-family="Helvetica" font-size="16" fill="black" x="13.152344" y="15" xml:space="preserve">Embed</tspan>
        </text>
      </g>
      <g id="Graphic_125">
        <path d="M -349.68477 898.7969 L -323.58477 898.7969 C -314.88477 898.7969 -310.53477 898.7969 -305.31477 899.7669 C -300.96477 900.7369 -296.61477 903.1619 -294.87477 905.5869 C -293.13477 908.4969 -293.13477 910.9219 -293.13477 915.7719 L -293.13477 930.3219 C -293.13477 935.1719 -293.13477 937.5969 -294.87477 940.5069 C -296.61477 942.9319 -300.96477 945.3569 -305.31477 946.3269 C -310.53477 947.2969 -314.88477 947.2969 -323.58477 947.2969 L -349.68477 947.2969 C -358.38477 947.2969 -362.73477 947.2969 -367.95477 946.3269 C -372.30477 945.3569 -376.65477 942.9319 -378.39477 940.5069 C -380.13477 937.5969 -380.13477 935.1719 -380.13477 930.3219 L -380.13477 915.7719 C -380.13477 910.9219 -380.13477 908.4969 -378.39477 905.5869 C -376.65477 903.1619 -372.30477 900.7369 -367.95477 899.7669 C -362.73477 898.7969 -358.38477 898.7969 -349.68477 898.7969 M -349.68477 898.7969" fill="#f8dedf"/>
        <path d="M -349.68477 898.7969 L -323.58477 898.7969 C -314.88477 898.7969 -310.53477 898.7969 -305.31477 899.7669 C -300.96477 900.7369 -296.61477 903.1619 -294.87477 905.5869 C -293.13477 908.4969 -293.13477 910.9219 -293.13477 915.7719 L -293.13477 930.3219 C -293.13477 935.1719 -293.13477 937.5969 -294.87477 940.5069 C -296.61477 942.9319 -300.96477 945.3569 -305.31477 946.3269 C -310.53477 947.2969 -314.88477 947.2969 -323.58477 947.2969 L -349.68477 947.2969 C -358.38477 947.2969 -362.73477 947.2969 -367.95477 946.3269 C -372.30477 945.3569 -376.65477 942.9319 -378.39477 940.5069 C -380.13477 937.5969 -380.13477 935.1719 -380.13477 930.3219 L -380.13477 915.7719 C -380.13477 910.9219 -380.13477 908.4969 -378.39477 905.5869 C -376.65477 903.1619 -372.30477 900.7369 -367.95477 899.7669 C -362.73477 898.7969 -358.38477 898.7969 -349.68477 898.7969 M -349.68477 898.7969" stroke="#a5a5a5" stroke-linecap="round" stroke-linejoin="round" stroke-width="2"/>
        <text transform="translate(-375.13477 913.5469)" fill="black">
          <tspan font-family="Helvetica" font-size="16" fill="black" x="13.152344" y="15" xml:space="preserve">Tokens</tspan>
        </text>
      </g>
      <g id="Line_124">
        <line x1="-292.13477" y1="923.0469" x2="-268.4918" y2="923.0469" marker-end="url(#FilledArrow_Marker)" stroke="black" stroke-linecap="round" stroke-linejoin="round" stroke-width="1"/>
      </g>
      <g id="Graphic_123">
        <path d="M 314.24948 900.1302 L 340.34948 900.1302 C 349.04948 900.1302 353.3995 900.1302 358.6195 901.1002 C 362.9695 902.0702 367.3195 904.4952 369.0595 906.9202 C 370.7995 909.8302 370.7995 912.2552 370.7995 917.1052 L 370.7995 931.6552 C 370.7995 936.5052 370.7995 938.9302 369.0595 941.8402 C 367.3195 944.2652 362.9695 946.6902 358.6195 947.6602 C 353.3995 948.6302 349.04948 948.6302 340.34948 948.6302 L 314.24948 948.6302 C 305.54948 948.6302 301.19948 948.6302 295.97948 947.6602 C 291.62948 946.6902 287.27948 944.2652 285.53948 941.8402 C 283.79948 938.9302 283.79948 936.5052 283.79948 931.6552 L 283.79948 917.1052 C 283.79948 912.2552 283.79948 909.8302 285.53948 906.9202 C 287.27948 904.4952 291.62948 902.0702 295.97948 901.1002 C 301.19948 900.1302 305.54948 900.1302 314.24948 900.1302 M 314.24948 900.1302" fill="#f8dedf"/>
        <path d="M 314.24948 900.1302 L 340.34948 900.1302 C 349.04948 900.1302 353.3995 900.1302 358.6195 901.1002 C 362.9695 902.0702 367.3195 904.4952 369.0595 906.9202 C 370.7995 909.8302 370.7995 912.2552 370.7995 917.1052 L 370.7995 931.6552 C 370.7995 936.5052 370.7995 938.9302 369.0595 941.8402 C 367.3195 944.2652 362.9695 946.6902 358.6195 947.6602 C 353.3995 948.6302 349.04948 948.6302 340.34948 948.6302 L 314.24948 948.6302 C 305.54948 948.6302 301.19948 948.6302 295.97948 947.6602 C 291.62948 946.6902 287.27948 944.2652 285.53948 941.8402 C 283.79948 938.9302 283.79948 936.5052 283.79948 931.6552 L 283.79948 917.1052 C 283.79948 912.2552 283.79948 909.8302 285.53948 906.9202 C 287.27948 904.4952 291.62948 902.0702 295.97948 901.1002 C 301.19948 900.1302 305.54948 900.1302 314.24948 900.1302 M 314.24948 900.1302" stroke="#a5a5a5" stroke-linecap="round" stroke-linejoin="round" stroke-width="2"/>
        <text transform="translate(288.79948 914.8802)" fill="black">
          <tspan font-family="Helvetica" font-size="16" fill="black" x="17.152344" y="15" xml:space="preserve">Logits</tspan>
        </text>
      </g>
      <g id="Graphic_122">
        <path d="M 187.2651 900.1302 L 213.3651 900.1302 C 222.0651 900.1302 226.4151 900.1302 231.6351 901.1002 C 235.9851 902.0702 240.3351 904.4952 242.0751 906.9202 C 243.8151 909.8302 243.8151 912.2552 243.8151 917.1052 L 243.8151 931.6552 C 243.8151 936.5052 243.8151 938.9302 242.0751 941.8402 C 240.3351 944.2652 235.9851 946.6902 231.6351 947.6602 C 226.4151 948.6302 222.0651 948.6302 213.3651 948.6302 L 187.2651 948.6302 C 178.5651 948.6302 174.2151 948.6302 168.9951 947.6602 C 164.6451 946.6902 160.2951 944.2652 158.5551 941.8402 C 156.8151 938.9302 156.8151 936.5052 156.8151 931.6552 L 156.8151 917.1052 C 156.8151 912.2552 156.8151 909.8302 158.5551 906.9202 C 160.2951 904.4952 164.6451 902.0702 168.9951 901.1002 C 174.2151 900.1302 178.5651 900.1302 187.2651 900.1302 M 187.2651 900.1302" fill="#f8dedf"/>
        <path d="M 187.2651 900.1302 L 213.3651 900.1302 C 222.0651 900.1302 226.4151 900.1302 231.6351 901.1002 C 235.9851 902.0702 240.3351 904.4952 242.0751 906.9202 C 243.8151 909.8302 243.8151 912.2552 243.8151 917.1052 L 243.8151 931.6552 C 243.8151 936.5052 243.8151 938.9302 242.0751 941.8402 C 240.3351 944.2652 235.9851 946.6902 231.6351 947.6602 C 226.4151 948.6302 222.0651 948.6302 213.3651 948.6302 L 187.2651 948.6302 C 178.5651 948.6302 174.2151 948.6302 168.9951 947.6602 C 164.6451 946.6902 160.2951 944.2652 158.5551 941.8402 C 156.8151 938.9302 156.8151 936.5052 156.8151 931.6552 L 156.8151 917.1052 C 156.8151 912.2552 156.8151 909.8302 158.5551 906.9202 C 160.2951 904.4952 164.6451 902.0702 168.9951 901.1002 C 174.2151 900.1302 178.5651 900.1302 187.2651 900.1302 M 187.2651 900.1302" stroke="#a5a5a5" stroke-linecap="round" stroke-linejoin="round" stroke-width="2"/>
        <text transform="translate(161.8151 914.8802)" fill="black">
          <tspan font-family="Helvetica" font-size="16" fill="black" x="3.8125" y="15" xml:space="preserve">Unembed</tspan>
        </text>
      </g>
      <g id="Line_121">
        <line x1="244.8151" y1="924.3802" x2="272.89948" y2="924.3802" marker-end="url(#FilledArrow_Marker)" stroke="black" stroke-linecap="round" stroke-linejoin="round" stroke-width="1"/>
      </g>
      <g id="Graphic_120">
        <path d="M 48.166146 685.5039 L 34.516146 685.5039 C 29.966146 685.5039 27.691146 685.5039 24.961146 689.4126 C 22.686146 693.32125 20.411146 703.0929 19.501146 712.8646 C 18.591146 724.5906 18.591146 734.3623 18.591146 753.9057 L 18.591146 812.5357 C 18.591146 832.0791 18.591146 841.8508 19.501146 853.5768 C 20.411146 863.3485 22.686146 873.1202 24.961146 877.0288 C 27.691146 880.9375 29.966146 880.9375 34.516146 880.9375 L 48.166146 880.9375 C 52.716146 880.9375 54.991146 880.9375 57.721146 877.0288 C 59.996146 873.1202 62.271146 863.3485 63.181146 853.5768 C 64.091146 841.8508 64.091146 832.0791 64.091146 812.5357 L 64.091146 753.9057 C 64.091146 734.3623 64.091146 724.5906 63.181146 712.8646 C 62.271146 703.0929 59.996146 693.32125 57.721146 689.4126 C 54.991146 685.5039 52.716146 685.5039 48.166146 685.5039 M 48.166146 685.5039" fill="#d7e9d6"/>
        <path d="M 48.166146 685.5039 L 34.516146 685.5039 C 29.966146 685.5039 27.691146 685.5039 24.961146 689.4126 C 22.686146 693.32125 20.411146 703.0929 19.501146 712.8646 C 18.591146 724.5906 18.591146 734.3623 18.591146 753.9057 L 18.591146 812.5357 C 18.591146 832.0791 18.591146 841.8508 19.501146 853.5768 C 20.411146 863.3485 22.686146 873.1202 24.961146 877.0288 C 27.691146 880.9375 29.966146 880.9375 34.516146 880.9375 L 48.166146 880.9375 C 52.716146 880.9375 54.991146 880.9375 57.721146 877.0288 C 59.996146 873.1202 62.271146 863.3485 63.181146 853.5768 C 64.091146 841.8508 64.091146 832.0791 64.091146 812.5357 L 64.091146 753.9057 C 64.091146 734.3623 64.091146 724.5906 63.181146 712.8646 C 62.271146 703.0929 59.996146 693.32125 57.721146 689.4126 C 54.991146 685.5039 52.716146 685.5039 48.166146 685.5039 M 48.166146 685.5039" stroke="#a5a5a5" stroke-linecap="round" stroke-linejoin="round" stroke-width="2"/>
        <text transform="translate(23.591146 773.7207)" fill="black">
          <tspan font-family="Helvetica" font-size="16" fill="black" x="1.3007812" y="15" xml:space="preserve">MLP</tspan>
        </text>
      </g>
      <g id="Group_117">
        <g id="Graphic_119">
          <circle cx="87.70313" cy="924.3275" r="18.0000287622342" fill="#e3d5e8"/>
          <circle cx="87.70313" cy="924.3275" r="18.0000287622342" stroke="#a5a5a5" stroke-linecap="round" stroke-linejoin="round" stroke-width="2"/>
        </g>
        <g id="Graphic_118">
          <text transform="translate(78.94336 903.4635)" fill="black">
            <tspan font-family="Helvetica" font-size="30" fill="black" x="0" y="29" xml:space="preserve">+</tspan>
          </text>
        </g>
      </g>
      <g id="Group_114">
        <g id="Graphic_116">
          <path d="M -86.81777 832.1875 L -74.77207 832.1875 C -70.75684 832.1875 -68.74922 832.1875 -66.34008 833.1575 C -64.33246 834.1275 -62.324844 836.5525 -61.5218 838.9775 C -60.71875 841.8875 -60.71875 844.3125 -60.71875 849.1625 L -60.71875 863.7125 C -60.71875 868.5625 -60.71875 870.9875 -61.5218 873.8975 C -62.324844 876.3225 -64.33246 878.7475 -66.34008 879.7175 C -68.74922 880.6875 -70.75684 880.6875 -74.77207 880.6875 L -86.81777 880.6875 C -90.83301 880.6875 -92.84062 880.6875 -95.24977 879.7175 C -97.25738 878.7475 -99.265 876.3225 -100.06805 873.8975 C -100.87109 870.9875 -100.87109 868.5625 -100.87109 863.7125 L -100.87109 849.1625 C -100.87109 844.3125 -100.87109 841.8875 -100.06805 838.9775 C -99.265 836.5525 -97.25738 834.1275 -95.24977 833.1575 C -92.84062 832.1875 -90.83301 832.1875 -86.81777 832.1875 M -86.81777 832.1875" fill="#dae9fc"/>
          <path d="M -86.81777 832.1875 L -74.77207 832.1875 C -70.75684 832.1875 -68.74922 832.1875 -66.34008 833.1575 C -64.33246 834.1275 -62.324844 836.5525 -61.5218 838.9775 C -60.71875 841.8875 -60.71875 844.3125 -60.71875 849.1625 L -60.71875 863.7125 C -60.71875 868.5625 -60.71875 870.9875 -61.5218 873.8975 C -62.324844 876.3225 -64.33246 878.7475 -66.34008 879.7175 C -68.74922 880.6875 -70.75684 880.6875 -74.77207 880.6875 L -86.81777 880.6875 C -90.83301 880.6875 -92.84062 880.6875 -95.24977 879.7175 C -97.25738 878.7475 -99.265 876.3225 -100.06805 873.8975 C -100.87109 870.9875 -100.87109 868.5625 -100.87109 863.7125 L -100.87109 849.1625 C -100.87109 844.3125 -100.87109 841.8875 -100.06805 838.9775 C -99.265 836.5525 -97.25738 834.1275 -95.24977 833.1575 C -92.84062 832.1875 -90.83301 832.1875 -86.81777 832.1875 M -86.81777 832.1875" stroke="#a5a5a5" stroke-linecap="round" stroke-linejoin="round" stroke-width="2"/>
        </g>
        <g id="Graphic_115">
          <rect x="-93.29492" y="840.2461" width="25" height="32" fill="#dae9fc"/>
          <text transform="translate(-88.29492 845.2461)" fill="black"/>
        </g>
      </g>
      <g id="Group_111">
        <g id="Graphic_113">
          <path d="M -86.81777 758.9707 L -74.77207 758.9707 C -70.75684 758.9707 -68.74922 758.9707 -66.34008 759.9407 C -64.33246 760.9107 -62.324844 763.3357 -61.5218 765.7607 C -60.71875 768.6707 -60.71875 771.0957 -60.71875 775.9457 L -60.71875 790.4957 C -60.71875 795.3457 -60.71875 797.7707 -61.5218 800.6807 C -62.324844 803.1057 -64.33246 805.5307 -66.34008 806.5007 C -68.74922 807.4707 -70.75684 807.4707 -74.77207 807.4707 L -86.81777 807.4707 C -90.83301 807.4707 -92.84062 807.4707 -95.24977 806.5007 C -97.25738 805.5307 -99.265 803.1057 -100.06805 800.6807 C -100.87109 797.7707 -100.87109 795.3457 -100.87109 790.4957 L -100.87109 775.9457 C -100.87109 771.0957 -100.87109 768.6707 -100.06805 765.7607 C -99.265 763.3357 -97.25738 760.9107 -95.24977 759.9407 C -92.84062 758.9707 -90.83301 758.9707 -86.81777 758.9707 M -86.81777 758.9707" fill="#dae9fc"/>
          <path d="M -86.81777 758.9707 L -74.77207 758.9707 C -70.75684 758.9707 -68.74922 758.9707 -66.34008 759.9407 C -64.33246 760.9107 -62.324844 763.3357 -61.5218 765.7607 C -60.71875 768.6707 -60.71875 771.0957 -60.71875 775.9457 L -60.71875 790.4957 C -60.71875 795.3457 -60.71875 797.7707 -61.5218 800.6807 C -62.324844 803.1057 -64.33246 805.5307 -66.34008 806.5007 C -68.74922 807.4707 -70.75684 807.4707 -74.77207 807.4707 L -86.81777 807.4707 C -90.83301 807.4707 -92.84062 807.4707 -95.24977 806.5007 C -97.25738 805.5307 -99.265 803.1057 -100.06805 800.6807 C -100.87109 797.7707 -100.87109 795.3457 -100.87109 790.4957 L -100.87109 775.9457 C -100.87109 771.0957 -100.87109 768.6707 -100.06805 765.7607 C -99.265 763.3357 -97.25738 760.9107 -95.24977 759.9407 C -92.84062 758.9707 -90.83301 758.9707 -86.81777 758.9707 M -86.81777 758.9707" stroke="#a5a5a5" stroke-linecap="round" stroke-linejoin="round" stroke-width="2"/>
        </g>
        <g id="Graphic_112">
          <rect x="-91.29492" y="767.5293" width="23" height="31.5" fill="#dae9fc"/>
          <text transform="translate(-86.29492 772.5293)" fill="black"/>
        </g>
      </g>
      <g id="Group_108">
        <g id="Graphic_110">
          <path d="M -86.87109 685.2539 L -74.87109 685.2539 C -70.87109 685.2539 -68.87109 685.2539 -66.47109 686.2339 C -64.47109 687.2139 -62.471094 689.6639 -61.671094 692.1139 C -60.871094 695.0539 -60.871094 697.5039 -60.871094 702.4039 L -60.871094 717.1039 C -60.871094 722.0039 -60.871094 724.4539 -61.671094 727.3939 C -62.471094 729.8439 -64.47109 732.2939 -66.47109 733.2739 C -68.87109 734.2539 -70.87109 734.2539 -74.87109 734.2539 L -86.87109 734.2539 C -90.87109 734.2539 -92.87109 734.2539 -95.27109 733.2739 C -97.27109 732.2939 -99.27109 729.8439 -100.07109 727.3939 C -100.87109 724.4539 -100.87109 722.0039 -100.87109 717.1039 L -100.87109 702.4039 C -100.87109 697.5039 -100.87109 695.0539 -100.07109 692.1139 C -99.27109 689.6639 -97.27109 687.2139 -95.27109 686.2339 C -92.87109 685.2539 -90.87109 685.2539 -86.87109 685.2539 M -86.87109 685.2539" fill="#dae9fc"/>
          <path d="M -86.87109 685.2539 L -74.87109 685.2539 C -70.87109 685.2539 -68.87109 685.2539 -66.47109 686.2339 C -64.47109 687.2139 -62.471094 689.6639 -61.671094 692.1139 C -60.871094 695.0539 -60.871094 697.5039 -60.871094 702.4039 L -60.871094 717.1039 C -60.871094 722.0039 -60.871094 724.4539 -61.671094 727.3939 C -62.471094 729.8439 -64.47109 732.2939 -66.47109 733.2739 C -68.87109 734.2539 -70.87109 734.2539 -74.87109 734.2539 L -86.87109 734.2539 C -90.87109 734.2539 -92.87109 734.2539 -95.27109 733.2739 C -97.27109 732.2939 -99.27109 729.8439 -100.07109 727.3939 C -100.87109 724.4539 -100.87109 722.0039 -100.87109 717.1039 L -100.87109 702.4039 C -100.87109 697.5039 -100.87109 695.0539 -100.07109 692.1139 C -99.27109 689.6639 -97.27109 687.2139 -95.27109 686.2339 C -92.87109 685.2539 -90.87109 685.2539 -86.87109 685.2539 M -86.87109 685.2539" stroke="#a5a5a5" stroke-linecap="round" stroke-linejoin="round" stroke-width="2"/>
        </g>
        <g id="Graphic_109">
          <rect x="-93.13086" y="693.7539" width="25" height="31.5" fill="#dae9fc"/>
          <text transform="translate(-88.13086 698.7539)" fill="black"/>
        </g>
      </g>
      <g id="Line_107">
        <path d="M -124.4618 921.7422 L -124.4618 716.7422 C -124.4618 713.9808 -122.22322 711.7422 -119.4618 711.7422 L -110.92344 711.7422" marker-end="url(#FilledArrow_Marker_2)" stroke="black" stroke-linecap="round" stroke-linejoin="round" stroke-width="1"/>
      </g>
      <g id="Line_106">
        <path d="M -124.55469 923.7422 L -124.55469 788.7422 C -124.55469 785.9808 -122.31611 783.7422 -119.55469 783.7422 L -110.92344 783.7422" marker-end="url(#FilledArrow_Marker_2)" stroke="black" stroke-linecap="round" stroke-linejoin="round" stroke-width="1"/>
      </g>
      <g id="Line_105">
        <path d="M -124.55469 921.7422 L -124.55469 863.4036 C -124.55469 860.6421 -122.31611 858.4036 -119.55469 858.4036 L -110.92344 858.4036" marker-end="url(#FilledArrow_Marker_2)" stroke="black" stroke-linecap="round" stroke-linejoin="round" stroke-width="1"/>
      </g>
      <g id="Line_104">
        <line x1="-124.55469" y1="923.7422" x2="-63.886325" y2="923.6859" marker-end="url(#FilledArrow_Marker)" stroke="black" stroke-linecap="round" stroke-linejoin="round" stroke-width="1"/>
      </g>
      <g id="Line_103">
        <path d="M -36.98633 897.7969 L -36.98633 716.4401 C -36.98633 713.6787 -39.224904 711.4401 -41.98633 711.4401 L -58.53746 711.4401 C -58.9364 711.4401 -59.33391 711.48785 -59.7215 711.5823 L -60.37738 711.7422" stroke="black" stroke-linecap="round" stroke-linejoin="round" stroke-width="1"/>
      </g>
      <g id="Line_102">
        <path d="M -60.470274 783.7422 L -59.04422 783.8919 C -58.87076 783.9101 -58.69647 783.9193 -58.52206 783.9193 L -41.98633 783.9193 C -39.224904 783.9193 -36.98633 786.15785 -36.98633 788.9193 L -36.98633 883.2778" stroke="black" stroke-linecap="round" stroke-linejoin="round" stroke-width="1"/>
      </g>
      <g id="Group_99">
        <g id="Graphic_101">
          <circle cx="-36.98633" cy="923.6609" r="18.0000287622342" fill="#e3d5e8"/>
          <circle cx="-36.98633" cy="923.6609" r="18.0000287622342" stroke="#a5a5a5" stroke-linecap="round" stroke-linejoin="round" stroke-width="2"/>
        </g>
        <g id="Graphic_100">
          <text transform="translate(-45.746094 902.7969)" fill="black">
            <tspan font-family="Helvetica" font-size="30" fill="black" x="0" y="29" xml:space="preserve">+</tspan>
          </text>
        </g>
      </g>
      <g id="Line_98">
        <line x1="-17.986589" y1="923.7625" x2="58.80353" y2="924.173" marker-end="url(#FilledArrow_Marker)" stroke="black" stroke-linecap="round" stroke-linejoin="round" stroke-width="1"/>
      </g>
      <g id="Line_97">
        <path d="M -4.940104 923.7422 L -4.940104 788.7422 C -4.940104 785.9808 -2.701528 783.7422 .05989583 783.7422 L 8.691146 783.7422" marker-end="url(#FilledArrow_Marker_2)" stroke="black" stroke-linecap="round" stroke-linejoin="round" stroke-width="1"/>
      </g>
      <g id="Line_96">
        <path d="M 64.091146 783.7422 C 64.51044 783.52655 64.97513 783.4141 65.44662 783.4141 L 82.703125 783.4141 C 85.46455 783.4141 87.70313 785.6526 87.70313 788.4141 L 87.70313 897.4275" marker-end="url(#FilledArrow_Marker_2)" stroke="black" stroke-linecap="round" stroke-linejoin="round" stroke-width="1"/>
      </g>
      <g id="Line_95">
        <path d="M -60.566406 858.4036 L -59.983535 858.3873 C -59.93722 858.3861 -59.890894 858.3854 -59.84456 858.3854 L -41.98633 858.3854 C -39.224904 858.3854 -36.98633 860.624 -36.98633 863.3854 L -36.98633 896.7609" marker-end="url(#FilledArrow_Marker_2)" stroke="black" stroke-linecap="round" stroke-linejoin="round" stroke-width="1"/>
      </g>
      <g id="Line_94">
        <line x1="-171.5918" y1="923.3769" x2="-124.55469" y2="923.7422" stroke="black" stroke-linecap="round" stroke-linejoin="round" stroke-dasharray="4.0,4.0" stroke-width="1"/>
      </g>
      <g id="Line_93">
        <line x1="-171.5918" y1="923.3769" x2="-158.3129" y2="923.48" marker-end="url(#FilledArrow_Marker)" stroke="black" stroke-linecap="round" stroke-linejoin="round" stroke-width="1"/>
      </g>
      <g id="Line_92">
        <line x1="106.70313" y1="924.3364" x2="155.8151" y2="924.3594" stroke="black" stroke-linecap="round" stroke-linejoin="round" stroke-dasharray="4.0,4.0" stroke-width="1"/>
      </g>
      <g id="Line_91">
        <line x1="131.87034" y1="924.3482" x2="147.9151" y2="924.3557" marker-end="url(#FilledArrow_Marker)" stroke="black" stroke-linecap="round" stroke-linejoin="round" stroke-width="1"/>
      </g>
      <g id="Group_135">
        <g id="Graphic_137">
          <circle cx="-81.79492" cy="1036.1218" r="18.0000287622342" fill="#e3d5e8"/>
          <circle cx="-81.79492" cy="1036.1218" r="18.0000287622342" stroke="#a5a5a5" stroke-linecap="round" stroke-linejoin="round" stroke-width="2"/>
        </g>
        <g id="Graphic_136">
          <text transform="translate(-90.55469 1015.2578)" fill="black">
            <tspan font-family="Helvetica" font-size="30" fill="black" x="0" y="29" xml:space="preserve">×</tspan>
          </text>
        </g>
      </g>
      <g id="Line_144">
        <line x1="-81.72323" y1="880.6875" x2="-81.78252" y2="1009.2218" marker-end="url(#FilledArrow_Marker)" stroke="black" stroke-linecap="round" stroke-linejoin="round" stroke-width="1"/>
      </g>
      <g id="Group_151">
        <g id="Graphic_153">
          <circle cx="40.341146" cy="986.9109" r="18.0000287622342" fill="#e3d5e8"/>
          <circle cx="40.341146" cy="986.9109" r="18.0000287622342" stroke="#a5a5a5" stroke-linecap="round" stroke-linejoin="round" stroke-width="2"/>
        </g>
        <g id="Graphic_152">
          <text transform="translate(31.58138 966.0469)" fill="black">
            <tspan font-family="Helvetica" font-size="30" fill="black" x="0" y="29" xml:space="preserve">×</tspan>
          </text>
        </g>
      </g>
      <g id="Line_150">
        <line x1="40.412834" y1="880.9375" x2="40.359343" y2="960.0109" marker-end="url(#FilledArrow_Marker)" stroke="black" stroke-linecap="round" stroke-linejoin="round" stroke-width="1"/>
      </g>
      <g id="Line_154">
        <path d="M 67.241155 986.9109 L 196.5 986.9109 C 199.26142 986.9109 201.5 984.6723 201.5 981.9109 L 201.5 948.6302" marker-start="url(#FilledArrow_Marker_3)" stroke="black" stroke-linecap="round" stroke-linejoin="round" stroke-width="1"/>
      </g>
      <g id="Line_155">
        <path d="M -54.89491 1036.1218 L 196.58594 1036.1218 C 199.34736 1036.1218 201.58594 1033.8832 201.58594 1031.1218 L 201.58594 986.2968 C 201.58594 986.2917 201.58593 986.2865 201.58591 986.2813 L 201.50002 958.638 C 201.5 958.6328 201.5 958.6276 201.5 958.6224 L 201.5 948.6302" marker-start="url(#FilledArrow_Marker_3)" stroke="black" stroke-linecap="round" stroke-linejoin="round" stroke-width="1"/>
      </g>
      <g id="Graphic_156">
        <path d="M -94.84492 1088.97 L -68.74492 1088.97 C -60.04492 1088.97 -55.69492 1088.97 -50.47492 1089.94 C -46.12492 1090.91 -41.77492 1093.335 -40.03492 1095.76 C -38.29492 1098.67 -38.29492 1101.095 -38.29492 1105.945 L -38.29492 1120.495 C -38.29492 1125.345 -38.29492 1127.77 -40.03492 1130.68 C -41.77492 1133.105 -46.12492 1135.53 -50.47492 1136.5 C -55.69492 1137.47 -60.04492 1137.47 -68.74492 1137.47 L -94.84492 1137.47 C -103.54492 1137.47 -107.89492 1137.47 -113.11492 1136.5 C -117.46492 1135.53 -121.81492 1133.105 -123.55492 1130.68 C -125.29492 1127.77 -125.29492 1125.345 -125.29492 1120.495 L -125.29492 1105.945 C -125.29492 1101.095 -125.29492 1098.67 -123.55492 1095.76 C -121.81492 1093.335 -117.46492 1090.91 -113.11492 1089.94 C -107.89492 1088.97 -103.54492 1088.97 -94.84492 1088.97 M -94.84492 1088.97" fill="#f8dedf"/>
        <path d="M -94.84492 1088.97 L -68.74492 1088.97 C -60.04492 1088.97 -55.69492 1088.97 -50.47492 1089.94 C -46.12492 1090.91 -41.77492 1093.335 -40.03492 1095.76 C -38.29492 1098.67 -38.29492 1101.095 -38.29492 1105.945 L -38.29492 1120.495 C -38.29492 1125.345 -38.29492 1127.77 -40.03492 1130.68 C -41.77492 1133.105 -46.12492 1135.53 -50.47492 1136.5 C -55.69492 1137.47 -60.04492 1137.47 -68.74492 1137.47 L -94.84492 1137.47 C -103.54492 1137.47 -107.89492 1137.47 -113.11492 1136.5 C -117.46492 1135.53 -121.81492 1133.105 -123.55492 1130.68 C -125.29492 1127.77 -125.29492 1125.345 -125.29492 1120.495 L -125.29492 1105.945 C -125.29492 1101.095 -125.29492 1098.67 -123.55492 1095.76 C -121.81492 1093.335 -117.46492 1090.91 -113.11492 1089.94 C -107.89492 1088.97 -103.54492 1088.97 -94.84492 1088.97 M -94.84492 1088.97" stroke="#a5a5a5" stroke-linecap="round" stroke-linejoin="round" stroke-width="2"/>
        <text transform="translate(-120.29492 1103.72)" fill="black">
          <tspan font-family="Helvetica" font-size="16" fill="black" x="17.152344" y="15" xml:space="preserve">Logits</tspan>
        </text>
      </g>
      <g id="Graphic_157">
        <path d="M 27.797656 1088.97 L 53.897656 1088.97 C 62.597656 1088.97 66.94766 1088.97 72.16766 1089.94 C 76.51766 1090.91 80.86766 1093.335 82.60766 1095.76 C 84.34766 1098.67 84.34766 1101.095 84.34766 1105.945 L 84.34766 1120.495 C 84.34766 1125.345 84.34766 1127.77 82.60766 1130.68 C 80.86766 1133.105 76.51766 1135.53 72.16766 1136.5 C 66.94766 1137.47 62.597656 1137.47 53.897656 1137.47 L 27.797656 1137.47 C 19.097656 1137.47 14.747656 1137.47 9.527656 1136.5 C 5.177656 1135.53 .82765625 1133.105 -.9123437 1130.68 C -2.6523438 1127.77 -2.6523438 1125.345 -2.6523438 1120.495 L -2.6523438 1105.945 C -2.6523438 1101.095 -2.6523438 1098.67 -.9123437 1095.76 C .82765625 1093.335 5.177656 1090.91 9.527656 1089.94 C 14.747656 1088.97 19.097656 1088.97 27.797656 1088.97 M 27.797656 1088.97" fill="#f8dedf"/>
        <path d="M 27.797656 1088.97 L 53.897656 1088.97 C 62.597656 1088.97 66.94766 1088.97 72.16766 1089.94 C 76.51766 1090.91 80.86766 1093.335 82.60766 1095.76 C 84.34766 1098.67 84.34766 1101.095 84.34766 1105.945 L 84.34766 1120.495 C 84.34766 1125.345 84.34766 1127.77 82.60766 1130.68 C 80.86766 1133.105 76.51766 1135.53 72.16766 1136.5 C 66.94766 1137.47 62.597656 1137.47 53.897656 1137.47 L 27.797656 1137.47 C 19.097656 1137.47 14.747656 1137.47 9.527656 1136.5 C 5.177656 1135.53 .82765625 1133.105 -.9123437 1130.68 C -2.6523438 1127.77 -2.6523438 1125.345 -2.6523438 1120.495 L -2.6523438 1105.945 C -2.6523438 1101.095 -2.6523438 1098.67 -.9123437 1095.76 C .82765625 1093.335 5.177656 1090.91 9.527656 1089.94 C 14.747656 1088.97 19.097656 1088.97 27.797656 1088.97 M 27.797656 1088.97" stroke="#a5a5a5" stroke-linecap="round" stroke-linejoin="round" stroke-width="2"/>
        <text transform="translate(2.3476562 1103.72)" fill="black">
          <tspan font-family="Helvetica" font-size="16" fill="black" x="17.152344" y="15" xml:space="preserve">Logits</tspan>
        </text>
      </g>
      <g id="Line_159">
        <line x1="-81.79492" y1="1055.1218" x2="-81.79492" y2="1078.07" marker-end="url(#FilledArrow_Marker)" stroke="black" stroke-linecap="round" stroke-linejoin="round" stroke-width="1"/>
      </g>
      <g id="Line_160">
        <line x1="40.417337" y1="1005.9107" x2="40.7067" y2="1078.0701" marker-end="url(#FilledArrow_Marker)" stroke="black" stroke-linecap="round" stroke-linejoin="round" stroke-width="1"/>
      </g>
      <g id="Graphic_215">
        <path d="M -86.81777 832.1875 L -74.77207 832.1875 C -70.75684 832.1875 -68.74922 832.1875 -66.34008 833.1575 C -64.33246 834.1275 -62.324844 836.5525 -61.5218 838.9775 C -60.71875 841.8875 -60.71875 844.3125 -60.71875 849.1625 L -60.71875 863.7125 C -60.71875 868.5625 -60.71875 870.9875 -61.5218 873.8975 C -62.324844 876.3225 -64.33246 878.7475 -66.34008 879.7175 C -68.74922 880.6875 -70.75684 880.6875 -74.77207 880.6875 L -86.81777 880.6875 C -90.83301 880.6875 -92.84062 880.6875 -95.24977 879.7175 C -97.25738 878.7475 -99.265 876.3225 -100.06805 873.8975 C -100.87109 870.9875 -100.87109 868.5625 -100.87109 863.7125 L -100.87109 849.1625 C -100.87109 844.3125 -100.87109 841.8875 -100.06805 838.9775 C -99.265 836.5525 -97.25738 834.1275 -95.24977 833.1575 C -92.84062 832.1875 -90.83301 832.1875 -86.81777 832.1875 M -86.81777 832.1875" fill="#dae9fc"/>
        <path d="M -86.81777 832.1875 L -74.77207 832.1875 C -70.75684 832.1875 -68.74922 832.1875 -66.34008 833.1575 C -64.33246 834.1275 -62.324844 836.5525 -61.5218 838.9775 C -60.71875 841.8875 -60.71875 844.3125 -60.71875 849.1625 L -60.71875 863.7125 C -60.71875 868.5625 -60.71875 870.9875 -61.5218 873.8975 C -62.324844 876.3225 -64.33246 878.7475 -66.34008 879.7175 C -68.74922 880.6875 -70.75684 880.6875 -74.77207 880.6875 L -86.81777 880.6875 C -90.83301 880.6875 -92.84062 880.6875 -95.24977 879.7175 C -97.25738 878.7475 -99.265 876.3225 -100.06805 873.8975 C -100.87109 870.9875 -100.87109 868.5625 -100.87109 863.7125 L -100.87109 849.1625 C -100.87109 844.3125 -100.87109 841.8875 -100.06805 838.9775 C -99.265 836.5525 -97.25738 834.1275 -95.24977 833.1575 C -92.84062 832.1875 -90.83301 832.1875 -86.81777 832.1875 M -86.81777 832.1875" stroke="#a5a5a5" stroke-linecap="round" stroke-linejoin="round" stroke-width="2"/>
      </g>
      <g id="Graphic_214">
        <path d="M -86.81777 758.9707 L -74.77207 758.9707 C -70.75684 758.9707 -68.74922 758.9707 -66.34008 759.9407 C -64.33246 760.9107 -62.324844 763.3357 -61.5218 765.7607 C -60.71875 768.6707 -60.71875 771.0957 -60.71875 775.9457 L -60.71875 790.4957 C -60.71875 795.3457 -60.71875 797.7707 -61.5218 800.6807 C -62.324844 803.1057 -64.33246 805.5307 -66.34008 806.5007 C -68.74922 807.4707 -70.75684 807.4707 -74.77207 807.4707 L -86.81777 807.4707 C -90.83301 807.4707 -92.84062 807.4707 -95.24977 806.5007 C -97.25738 805.5307 -99.265 803.1057 -100.06805 800.6807 C -100.87109 797.7707 -100.87109 795.3457 -100.87109 790.4957 L -100.87109 775.9457 C -100.87109 771.0957 -100.87109 768.6707 -100.06805 765.7607 C -99.265 763.3357 -97.25738 760.9107 -95.24977 759.9407 C -92.84062 758.9707 -90.83301 758.9707 -86.81777 758.9707 M -86.81777 758.9707" fill="#dae9fc"/>
        <path d="M -86.81777 758.9707 L -74.77207 758.9707 C -70.75684 758.9707 -68.74922 758.9707 -66.34008 759.9407 C -64.33246 760.9107 -62.324844 763.3357 -61.5218 765.7607 C -60.71875 768.6707 -60.71875 771.0957 -60.71875 775.9457 L -60.71875 790.4957 C -60.71875 795.3457 -60.71875 797.7707 -61.5218 800.6807 C -62.324844 803.1057 -64.33246 805.5307 -66.34008 806.5007 C -68.74922 807.4707 -70.75684 807.4707 -74.77207 807.4707 L -86.81777 807.4707 C -90.83301 807.4707 -92.84062 807.4707 -95.24977 806.5007 C -97.25738 805.5307 -99.265 803.1057 -100.06805 800.6807 C -100.87109 797.7707 -100.87109 795.3457 -100.87109 790.4957 L -100.87109 775.9457 C -100.87109 771.0957 -100.87109 768.6707 -100.06805 765.7607 C -99.265 763.3357 -97.25738 760.9107 -95.24977 759.9407 C -92.84062 758.9707 -90.83301 758.9707 -86.81777 758.9707 M -86.81777 758.9707" stroke="#a5a5a5" stroke-linecap="round" stroke-linejoin="round" stroke-width="2"/>
      </g>
      <g id="Graphic_213">
        <path d="M -86.87109 685.2539 L -74.87109 685.2539 C -70.87109 685.2539 -68.87109 685.2539 -66.47109 686.2339 C -64.47109 687.2139 -62.471094 689.6639 -61.671094 692.1139 C -60.871094 695.0539 -60.871094 697.5039 -60.871094 702.4039 L -60.871094 717.1039 C -60.871094 722.0039 -60.871094 724.4539 -61.671094 727.3939 C -62.471094 729.8439 -64.47109 732.2939 -66.47109 733.2739 C -68.87109 734.2539 -70.87109 734.2539 -74.87109 734.2539 L -86.87109 734.2539 C -90.87109 734.2539 -92.87109 734.2539 -95.27109 733.2739 C -97.27109 732.2939 -99.27109 729.8439 -100.07109 727.3939 C -100.87109 724.4539 -100.87109 722.0039 -100.87109 717.1039 L -100.87109 702.4039 C -100.87109 697.5039 -100.87109 695.0539 -100.07109 692.1139 C -99.27109 689.6639 -97.27109 687.2139 -95.27109 686.2339 C -92.87109 685.2539 -90.87109 685.2539 -86.87109 685.2539 M -86.87109 685.2539" fill="#dae9fc"/>
        <path d="M -86.87109 685.2539 L -74.87109 685.2539 C -70.87109 685.2539 -68.87109 685.2539 -66.47109 686.2339 C -64.47109 687.2139 -62.471094 689.6639 -61.671094 692.1139 C -60.871094 695.0539 -60.871094 697.5039 -60.871094 702.4039 L -60.871094 717.1039 C -60.871094 722.0039 -60.871094 724.4539 -61.671094 727.3939 C -62.471094 729.8439 -64.47109 732.2939 -66.47109 733.2739 C -68.87109 734.2539 -70.87109 734.2539 -74.87109 734.2539 L -86.87109 734.2539 C -90.87109 734.2539 -92.87109 734.2539 -95.27109 733.2739 C -97.27109 732.2939 -99.27109 729.8439 -100.07109 727.3939 C -100.87109 724.4539 -100.87109 722.0039 -100.87109 717.1039 L -100.87109 702.4039 C -100.87109 697.5039 -100.87109 695.0539 -100.07109 692.1139 C -99.27109 689.6639 -97.27109 687.2139 -95.27109 686.2339 C -92.87109 685.2539 -90.87109 685.2539 -86.87109 685.2539 M -86.87109 685.2539" stroke="#a5a5a5" stroke-linecap="round" stroke-linejoin="round" stroke-width="2"/>
      </g>
      <g id="Group_210">
        <g id="Group_211">
          <title>glyph-0-0</title>
          <g id="Graphic_212">
            <path d="M -84.80055 848.1066 C -84.80055 848.0909 -84.80055 847.8878 -85.06617 847.8878 C -85.5193 847.8878 -86.97242 848.0441 -87.48805 848.0909 C -87.6443 848.1066 -87.86305 848.1222 -87.86305 848.4816 C -87.86305 848.7316 -87.69117 848.7316 -87.3943 848.7316 C -86.44117 848.7316 -86.3943 848.8722 -86.3943 849.0597 L -86.4568 849.4659 L -89.34742 860.9347 C -89.42555 861.2159 -89.42555 861.2628 -89.42555 861.3722 C -89.42555 861.8409 -89.0193 861.9347 -88.84742 861.9347 C -88.53492 861.9347 -88.2068 861.7003 -88.11305 861.4191 L -87.73805 859.9034 L -87.28492 858.1066 C -87.17555 857.6691 -87.05055 857.2316 -86.9568 856.7784 C -86.90992 856.6534 -86.75367 855.9972 -86.73805 855.8722 C -86.67555 855.7003 -86.05055 854.5909 -85.37867 854.0441 C -84.94117 853.7316 -84.31617 853.3566 -83.47242 853.3566 C -82.61305 853.3566 -82.3943 854.0284 -82.3943 854.7472 C -82.3943 855.8253 -83.1443 857.9972 -83.62867 859.2003 C -83.78492 859.6691 -83.87867 859.9034 -83.87867 860.2941 C -83.87867 861.2316 -83.19117 861.9347 -82.25367 861.9347 C -80.37867 861.9347 -79.6443 859.0284 -79.6443 858.8722 C -79.6443 858.6691 -79.81617 858.6691 -79.87867 858.6691 C -80.0818 858.6691 -80.0818 858.7316 -80.17555 859.0284 C -80.47242 860.0753 -81.11305 861.4972 -82.2068 861.4972 C -82.55055 861.4972 -82.69117 861.2941 -82.69117 860.8409 C -82.69117 860.3409 -82.50367 859.8566 -82.3318 859.4191 C -82.0193 858.5753 -81.11305 856.2003 -81.11305 855.0441 C -81.11305 853.7472 -81.90992 852.9034 -83.40992 852.9034 C -84.65992 852.9034 -85.61305 853.5284 -86.36305 854.4503 L -84.80055 848.1066" fill="black"/>
          </g>
        </g>
      </g>
      <g id="Group_207">
        <g id="Group_208">
          <title>glyph-1-0</title>
          <g id="Graphic_209">
            <path d="M -71.83617 860.2528 C -71.83617 858.7216 -72.02367 857.6122 -72.6643 856.6434 C -73.1018 856.0028 -73.96117 855.4403 -75.07055 855.4403 C -78.32055 855.4403 -78.32055 859.2528 -78.32055 860.2528 C -78.32055 861.2528 -78.32055 864.9872 -75.07055 864.9872 C -71.83617 864.9872 -71.83617 861.2528 -71.83617 860.2528 M -75.07055 864.5966 C -75.71117 864.5966 -76.57055 864.2216 -76.8518 863.0809 C -77.0393 862.2528 -77.0393 861.1122 -77.0393 860.0809 C -77.0393 859.0497 -77.0393 857.9872 -76.83617 857.2216 C -76.5393 856.1278 -75.64867 855.8309 -75.07055 855.8309 C -74.32055 855.8309 -73.6018 856.2997 -73.3518 857.0966 C -73.11742 857.8622 -73.1018 858.8622 -73.1018 860.0809 C -73.1018 861.1122 -73.1018 862.1434 -73.2893 863.0184 C -73.57055 864.2841 -74.52367 864.5966 -75.07055 864.5966" fill="black"/>
          </g>
        </g>
      </g>
      <g id="Group_204">
        <g id="Group_205">
          <title>glyph-0-0</title>
          <g id="Graphic_206">
            <path d="M -84.80055 775.0304 C -84.80055 775.0148 -84.80055 774.8116 -85.06617 774.8116 C -85.5193 774.8116 -86.97242 774.9679 -87.48805 775.0148 C -87.6443 775.0304 -87.86305 775.046 -87.86305 775.4054 C -87.86305 775.6554 -87.69117 775.6554 -87.3943 775.6554 C -86.44117 775.6554 -86.3943 775.796 -86.3943 775.9835 L -86.4568 776.3898 L -89.34742 787.8585 C -89.42555 788.1398 -89.42555 788.1866 -89.42555 788.296 C -89.42555 788.7648 -89.0193 788.8585 -88.84742 788.8585 C -88.53492 788.8585 -88.2068 788.6241 -88.11305 788.3429 L -87.73805 786.8273 L -87.28492 785.0304 C -87.17555 784.5929 -87.05055 784.1554 -86.9568 783.7023 C -86.90992 783.5773 -86.75367 782.921 -86.73805 782.796 C -86.67555 782.6241 -86.05055 781.5148 -85.37867 780.9679 C -84.94117 780.6554 -84.31617 780.2804 -83.47242 780.2804 C -82.61305 780.2804 -82.3943 780.9523 -82.3943 781.671 C -82.3943 782.7491 -83.1443 784.921 -83.62867 786.1241 C -83.78492 786.5929 -83.87867 786.8273 -83.87867 787.2179 C -83.87867 788.1554 -83.19117 788.8585 -82.25367 788.8585 C -80.37867 788.8585 -79.6443 785.9523 -79.6443 785.796 C -79.6443 785.5929 -79.81617 785.5929 -79.87867 785.5929 C -80.0818 785.5929 -80.0818 785.6554 -80.17555 785.9523 C -80.47242 786.9991 -81.11305 788.421 -82.2068 788.421 C -82.55055 788.421 -82.69117 788.2179 -82.69117 787.7648 C -82.69117 787.2648 -82.50367 786.7804 -82.3318 786.3429 C -82.0193 785.4991 -81.11305 783.1241 -81.11305 781.9679 C -81.11305 780.671 -81.90992 779.8273 -83.40992 779.8273 C -84.65992 779.8273 -85.61305 780.4523 -86.36305 781.3741 L -84.80055 775.0304" fill="black"/>
          </g>
        </g>
      </g>
      <g id="Group_201">
        <g id="Group_202">
          <title>glyph-1-0</title>
          <g id="Graphic_203">
            <path d="M -74.36742 782.7548 C -74.36742 782.3798 -74.39867 782.3641 -74.7893 782.3641 C -75.67992 783.2391 -76.94555 783.2548 -77.52367 783.2548 L -77.52367 783.7548 C -77.17992 783.7548 -76.25805 783.7548 -75.49242 783.3641 L -75.49242 790.4891 C -75.49242 790.9423 -75.49242 791.1298 -76.88305 791.1298 L -77.4143 791.1298 L -77.4143 791.6298 C -77.1643 791.6141 -75.44555 791.5673 -74.92992 791.5673 C -74.50805 791.5673 -72.74242 791.6141 -72.44555 791.6298 L -72.44555 791.1298 L -72.9768 791.1298 C -74.36742 791.1298 -74.36742 790.9423 -74.36742 790.4891 L -74.36742 782.7548" fill="black"/>
          </g>
        </g>
      </g>
      <g id="Group_198">
        <g id="Group_199">
          <title>glyph-0-0</title>
          <g id="Graphic_200">
            <path d="M -84.88648 701.5636 C -84.88648 701.548 -84.88648 701.34484 -85.15211 701.34484 C -85.60523 701.34484 -87.05836 701.5011 -87.57398 701.548 C -87.73023 701.5636 -87.94898 701.5792 -87.94898 701.9386 C -87.94898 702.1886 -87.77711 702.1886 -87.48023 702.1886 C -86.52711 702.1886 -86.48023 702.3292 -86.48023 702.5167 L -86.54273 702.923 L -89.43336 714.3917 C -89.51148 714.673 -89.51148 714.71984 -89.51148 714.8292 C -89.51148 715.298 -89.10523 715.3917 -88.93336 715.3917 C -88.62086 715.3917 -88.29273 715.15734 -88.19898 714.8761 L -87.82398 713.3605 L -87.37086 711.5636 C -87.26148 711.1261 -87.13648 710.6886 -87.04273 710.2355 C -86.99586 710.1105 -86.83961 709.4542 -86.82398 709.3292 C -86.76148 709.15734 -86.13648 708.048 -85.46461 707.5011 C -85.02711 707.1886 -84.40211 706.8136 -83.55836 706.8136 C -82.69898 706.8136 -82.48023 707.4855 -82.48023 708.2042 C -82.48023 709.28234 -83.23023 711.4542 -83.71461 712.65734 C -83.87086 713.1261 -83.96461 713.3605 -83.96461 713.7511 C -83.96461 714.6886 -83.27711 715.3917 -82.33961 715.3917 C -80.46461 715.3917 -79.73023 712.4855 -79.73023 712.3292 C -79.73023 712.1261 -79.90211 712.1261 -79.96461 712.1261 C -80.16773 712.1261 -80.16773 712.1886 -80.26148 712.4855 C -80.55836 713.53234 -81.19898 714.9542 -82.29273 714.9542 C -82.63648 714.9542 -82.77711 714.7511 -82.77711 714.298 C -82.77711 713.798 -82.58961 713.3136 -82.41773 712.8761 C -82.10523 712.03234 -81.19898 709.65734 -81.19898 708.5011 C -81.19898 707.2042 -81.99586 706.3605 -83.49586 706.3605 C -84.74586 706.3605 -85.69898 706.9855 -86.44898 707.90734 L -84.88648 701.5636" fill="black"/>
          </g>
        </g>
      </g>
      <g id="Group_195">
        <g id="Group_196">
          <title>glyph-1-0</title>
          <g id="Graphic_197">
            <path d="M -72.07836 715.6161 L -72.54711 715.6161 C -72.593984 715.9286 -72.73461 716.7567 -72.92211 716.89734 C -73.031484 716.9755 -74.10961 716.9755 -74.29711 716.9755 L -76.85961 716.9755 C -75.40648 715.6786 -74.90648 715.288 -74.07836 714.6317 C -73.04711 713.8036 -72.07836 712.9442 -72.07836 711.6161 C -72.07836 709.9286 -73.56273 708.89734 -75.34398 708.89734 C -77.07836 708.89734 -78.25023 710.1161 -78.25023 711.39734 C -78.25023 712.1005 -77.64086 712.1786 -77.50023 712.1786 C -77.17211 712.1786 -76.76586 711.9442 -76.76586 711.4442 C -76.76586 711.1786 -76.85961 710.6942 -77.59398 710.6942 C -77.15648 709.70984 -76.20336 709.39734 -75.54711 709.39734 C -74.15648 709.39734 -73.43773 710.4911 -73.43773 711.6161 C -73.43773 712.83484 -74.29711 713.788 -74.75023 714.3036 L -78.10961 717.6161 C -78.25023 717.7411 -78.25023 717.77234 -78.25023 718.163 L -72.500234 718.163 L -72.07836 715.6161" fill="black"/>
          </g>
        </g>
      </g>
    </g>
  </g>
</svg>
