<?xml version="1.0" encoding="UTF-8" standalone="no"?>
<!DOCTYPE svg PUBLIC "-//W3C//DTD SVG 1.1//EN" "http://www.w3.org/Graphics/SVG/1.1/DTD/svg11.dtd">
<svg xmlns:xl="http://www.w3.org/1999/xlink" xmlns="http://www.w3.org/2000/svg" xmlns:dc="http://purl.org/dc/elements/1.1/" version="1.1" viewBox="-543 723 835.6953 446.17023" width="835.6953" height="446.17023">
  <defs>
    <marker orient="auto" overflow="visible" markerUnits="strokeWidth" id="FilledArrow_Marker" stroke-linejoin="miter" stroke-miterlimit="10" viewBox="-1 -4 10 8" markerWidth="10" markerHeight="8" color="black">
      <g>
        <path d="M 8 0 L 0 -3 L 0 3 Z" fill="currentColor" stroke="currentColor" stroke-width="1"/>
      </g>
    </marker>
    <marker orient="auto" overflow="visible" markerUnits="strokeWidth" id="FilledArrow_Marker_2" stroke-linejoin="miter" stroke-miterlimit="10" viewBox="-1 -4 10 8" markerWidth="10" markerHeight="8" color="black">
      <g>
        <path d="M 8 0 L 0 -3 L 0 3 Z" fill="currentColor" stroke="currentColor" stroke-width="1"/>
      </g>
    </marker>
  </defs>
  <g id="Probing" stroke-opacity="1" fill="none" stroke="none" fill-opacity="1" stroke-dasharray="none">
    <title>Probing</title>
    <g id="Probing_图层_3">
      <title>图层 3</title>
      <g id="Graphic_102">
        <path d="M -369.00703 957.543 L -342.90703 957.543 C -334.20703 957.543 -329.85703 957.543 -324.63703 958.513 C -320.28703 959.483 -315.93703 961.908 -314.19703 964.333 C -312.45703 967.243 -312.45703 969.668 -312.45703 974.518 L -312.45703 989.068 C -312.45703 993.918 -312.45703 996.343 -314.19703 999.253 C -315.93703 1001.678 -320.28703 1004.103 -324.63703 1005.073 C -329.85703 1006.043 -334.20703 1006.043 -342.90703 1006.043 L -369.00703 1006.043 C -377.70703 1006.043 -382.05703 1006.043 -387.27703 1005.073 C -391.62703 1004.103 -395.97703 1001.678 -397.71703 999.253 C -399.45703 996.343 -399.45703 993.918 -399.45703 989.068 L -399.45703 974.518 C -399.45703 969.668 -399.45703 967.243 -397.71703 964.333 C -395.97703 961.908 -391.62703 959.483 -387.27703 958.513 C -382.05703 957.543 -377.70703 957.543 -369.00703 957.543 M -369.00703 957.543" fill="#f8dedf"/>
        <path d="M -369.00703 957.543 L -342.90703 957.543 C -334.20703 957.543 -329.85703 957.543 -324.63703 958.513 C -320.28703 959.483 -315.93703 961.908 -314.19703 964.333 C -312.45703 967.243 -312.45703 969.668 -312.45703 974.518 L -312.45703 989.068 C -312.45703 993.918 -312.45703 996.343 -314.19703 999.253 C -315.93703 1001.678 -320.28703 1004.103 -324.63703 1005.073 C -329.85703 1006.043 -334.20703 1006.043 -342.90703 1006.043 L -369.00703 1006.043 C -377.70703 1006.043 -382.05703 1006.043 -387.27703 1005.073 C -391.62703 1004.103 -395.97703 1001.678 -397.71703 999.253 C -399.45703 996.343 -399.45703 993.918 -399.45703 989.068 L -399.45703 974.518 C -399.45703 969.668 -399.45703 967.243 -397.71703 964.333 C -395.97703 961.908 -391.62703 959.483 -387.27703 958.513 C -382.05703 957.543 -377.70703 957.543 -369.00703 957.543 M -369.00703 957.543" stroke="#a5a5a5" stroke-linecap="round" stroke-linejoin="round" stroke-width="2"/>
        <text transform="translate(-394.45703 972.293)" fill="black">
          <tspan font-family="Helvetica" font-size="16" fill="black" x="13.152344" y="15" xml:space="preserve">Embed</tspan>
        </text>
      </g>
      <g id="Graphic_101">
        <path d="M -491.55 957.543 L -465.45 957.543 C -456.75 957.543 -452.4 957.543 -447.18 958.513 C -442.83 959.483 -438.48 961.908 -436.74 964.333 C -435 967.243 -435 969.668 -435 974.518 L -435 989.068 C -435 993.918 -435 996.343 -436.74 999.253 C -438.48 1001.678 -442.83 1004.103 -447.18 1005.073 C -452.4 1006.043 -456.75 1006.043 -465.45 1006.043 L -491.55 1006.043 C -500.25 1006.043 -504.6 1006.043 -509.82 1005.073 C -514.17 1004.103 -518.52 1001.678 -520.26 999.253 C -522 996.343 -522 993.918 -522 989.068 L -522 974.518 C -522 969.668 -522 967.243 -520.26 964.333 C -518.52 961.908 -514.17 959.483 -509.82 958.513 C -504.6 957.543 -500.25 957.543 -491.55 957.543 M -491.55 957.543" fill="#f8dedf"/>
        <path d="M -491.55 957.543 L -465.45 957.543 C -456.75 957.543 -452.4 957.543 -447.18 958.513 C -442.83 959.483 -438.48 961.908 -436.74 964.333 C -435 967.243 -435 969.668 -435 974.518 L -435 989.068 C -435 993.918 -435 996.343 -436.74 999.253 C -438.48 1001.678 -442.83 1004.103 -447.18 1005.073 C -452.4 1006.043 -456.75 1006.043 -465.45 1006.043 L -491.55 1006.043 C -500.25 1006.043 -504.6 1006.043 -509.82 1005.073 C -514.17 1004.103 -518.52 1001.678 -520.26 999.253 C -522 996.343 -522 993.918 -522 989.068 L -522 974.518 C -522 969.668 -522 967.243 -520.26 964.333 C -518.52 961.908 -514.17 959.483 -509.82 958.513 C -504.6 957.543 -500.25 957.543 -491.55 957.543 M -491.55 957.543" stroke="#a5a5a5" stroke-linecap="round" stroke-linejoin="round" stroke-width="2"/>
        <text transform="translate(-517 972.293)" fill="black">
          <tspan font-family="Helvetica" font-size="16" fill="black" x="13.152344" y="15" xml:space="preserve">Tokens</tspan>
        </text>
      </g>
      <g id="Line_100">
        <line x1="-434" y1="981.793" x2="-410.35703" y2="981.793" marker-end="url(#FilledArrow_Marker)" stroke="black" stroke-linecap="round" stroke-linejoin="round" stroke-width="1"/>
      </g>
      <g id="Graphic_99">
        <path d="M 172.38424 958.8763 L 198.48424 958.8763 C 207.18424 958.8763 211.53424 958.8763 216.75424 959.8463 C 221.10424 960.8163 225.45424 963.2413 227.19424 965.6663 C 228.93424 968.5763 228.93424 971.0013 228.93424 975.8513 L 228.93424 990.4013 C 228.93424 995.2513 228.93424 997.6763 227.19424 1000.5863 C 225.45424 1003.0113 221.10424 1005.4363 216.75424 1006.4063 C 211.53424 1007.3763 207.18424 1007.3763 198.48424 1007.3763 L 172.38424 1007.3763 C 163.68424 1007.3763 159.33424 1007.3763 154.11424 1006.4063 C 149.76424 1005.4363 145.41424 1003.0113 143.67424 1000.5863 C 141.93424 997.6763 141.93424 995.2513 141.93424 990.4013 L 141.93424 975.8513 C 141.93424 971.0013 141.93424 968.5763 143.67424 965.6663 C 145.41424 963.2413 149.76424 960.8163 154.11424 959.8463 C 159.33424 958.8763 163.68424 958.8763 172.38424 958.8763 M 172.38424 958.8763" fill="#f8dedf"/>
        <path d="M 172.38424 958.8763 L 198.48424 958.8763 C 207.18424 958.8763 211.53424 958.8763 216.75424 959.8463 C 221.10424 960.8163 225.45424 963.2413 227.19424 965.6663 C 228.93424 968.5763 228.93424 971.0013 228.93424 975.8513 L 228.93424 990.4013 C 228.93424 995.2513 228.93424 997.6763 227.19424 1000.5863 C 225.45424 1003.0113 221.10424 1005.4363 216.75424 1006.4063 C 211.53424 1007.3763 207.18424 1007.3763 198.48424 1007.3763 L 172.38424 1007.3763 C 163.68424 1007.3763 159.33424 1007.3763 154.11424 1006.4063 C 149.76424 1005.4363 145.41424 1003.0113 143.67424 1000.5863 C 141.93424 997.6763 141.93424 995.2513 141.93424 990.4013 L 141.93424 975.8513 C 141.93424 971.0013 141.93424 968.5763 143.67424 965.6663 C 145.41424 963.2413 149.76424 960.8163 154.11424 959.8463 C 159.33424 958.8763 163.68424 958.8763 172.38424 958.8763 M 172.38424 958.8763" stroke="#a5a5a5" stroke-linecap="round" stroke-linejoin="round" stroke-width="2"/>
        <text transform="translate(146.93424 973.6263)" fill="black">
          <tspan font-family="Helvetica" font-size="16" fill="black" x="17.152344" y="15" xml:space="preserve">Logits</tspan>
        </text>
      </g>
      <g id="Graphic_98">
        <path d="M 45.39987 958.8763 L 71.49987 958.8763 C 80.19987 958.8763 84.54987 958.8763 89.76987 959.8463 C 94.11987 960.8163 98.46987 963.2413 100.20987 965.6663 C 101.94987 968.5763 101.94987 971.0013 101.94987 975.8513 L 101.94987 990.4013 C 101.94987 995.2513 101.94987 997.6763 100.20987 1000.5863 C 98.46987 1003.0113 94.11987 1005.4363 89.76987 1006.4063 C 84.54987 1007.3763 80.19987 1007.3763 71.49987 1007.3763 L 45.39987 1007.3763 C 36.69987 1007.3763 32.34987 1007.3763 27.12987 1006.4063 C 22.77987 1005.4363 18.42987 1003.0113 16.68987 1000.5863 C 14.94987 997.6763 14.94987 995.2513 14.94987 990.4013 L 14.94987 975.8513 C 14.94987 971.0013 14.94987 968.5763 16.68987 965.6663 C 18.42987 963.2413 22.77987 960.8163 27.12987 959.8463 C 32.34987 958.8763 36.69987 958.8763 45.39987 958.8763 M 45.39987 958.8763" fill="#f8dedf"/>
        <path d="M 45.39987 958.8763 L 71.49987 958.8763 C 80.19987 958.8763 84.54987 958.8763 89.76987 959.8463 C 94.11987 960.8163 98.46987 963.2413 100.20987 965.6663 C 101.94987 968.5763 101.94987 971.0013 101.94987 975.8513 L 101.94987 990.4013 C 101.94987 995.2513 101.94987 997.6763 100.20987 1000.5863 C 98.46987 1003.0113 94.11987 1005.4363 89.76987 1006.4063 C 84.54987 1007.3763 80.19987 1007.3763 71.49987 1007.3763 L 45.39987 1007.3763 C 36.69987 1007.3763 32.34987 1007.3763 27.12987 1006.4063 C 22.77987 1005.4363 18.42987 1003.0113 16.68987 1000.5863 C 14.94987 997.6763 14.94987 995.2513 14.94987 990.4013 L 14.94987 975.8513 C 14.94987 971.0013 14.94987 968.5763 16.68987 965.6663 C 18.42987 963.2413 22.77987 960.8163 27.12987 959.8463 C 32.34987 958.8763 36.69987 958.8763 45.39987 958.8763 M 45.39987 958.8763" stroke="#a5a5a5" stroke-linecap="round" stroke-linejoin="round" stroke-width="2"/>
        <text transform="translate(19.94987 973.6263)" fill="black">
          <tspan font-family="Helvetica" font-size="16" fill="black" x="3.8125" y="15" xml:space="preserve">Unembed</tspan>
        </text>
      </g>
      <g id="Line_97">
        <line x1="102.94987" y1="983.1263" x2="131.03424" y2="983.1263" marker-end="url(#FilledArrow_Marker)" stroke="black" stroke-linecap="round" stroke-linejoin="round" stroke-width="1"/>
      </g>
      <g id="Graphic_96">
        <path d="M -93.69909 744.25 L -107.34909 744.25 C -111.89909 744.25 -114.17409 744.25 -116.90409 748.1587 C -119.17909 752.0673 -121.45409 761.839 -122.36409 771.6107 C -123.27409 783.3367 -123.27409 793.1084 -123.27409 812.6518 L -123.27409 871.2818 C -123.27409 890.8252 -123.27409 900.5969 -122.36409 912.3229 C -121.45409 922.0946 -119.17909 931.8662 -116.90409 935.7749 C -114.17409 939.6836 -111.89909 939.6836 -107.34909 939.6836 L -93.69909 939.6836 C -89.14909 939.6836 -86.87409 939.6836 -84.14409 935.7749 C -81.86909 931.8662 -79.59409 922.0946 -78.68409 912.3229 C -77.77409 900.5969 -77.77409 890.8252 -77.77409 871.2818 L -77.77409 812.6518 C -77.77409 793.1084 -77.77409 783.3367 -78.68409 771.6107 C -79.59409 761.839 -81.86909 752.0673 -84.14409 748.1587 C -86.87409 744.25 -89.14909 744.25 -93.69909 744.25 M -93.69909 744.25" fill="#d7e9d6"/>
        <path d="M -93.69909 744.25 L -107.34909 744.25 C -111.89909 744.25 -114.17409 744.25 -116.90409 748.1587 C -119.17909 752.0673 -121.45409 761.839 -122.36409 771.6107 C -123.27409 783.3367 -123.27409 793.1084 -123.27409 812.6518 L -123.27409 871.2818 C -123.27409 890.8252 -123.27409 900.5969 -122.36409 912.3229 C -121.45409 922.0946 -119.17909 931.8662 -116.90409 935.7749 C -114.17409 939.6836 -111.89909 939.6836 -107.34909 939.6836 L -93.69909 939.6836 C -89.14909 939.6836 -86.87409 939.6836 -84.14409 935.7749 C -81.86909 931.8662 -79.59409 922.0946 -78.68409 912.3229 C -77.77409 900.5969 -77.77409 890.8252 -77.77409 871.2818 L -77.77409 812.6518 C -77.77409 793.1084 -77.77409 783.3367 -78.68409 771.6107 C -79.59409 761.839 -81.86909 752.0673 -84.14409 748.1587 C -86.87409 744.25 -89.14909 744.25 -93.69909 744.25 M -93.69909 744.25" stroke="#a5a5a5" stroke-linecap="round" stroke-linejoin="round" stroke-width="2"/>
        <text transform="translate(-118.27409 832.4668)" fill="black">
          <tspan font-family="Helvetica" font-size="16" fill="black" x="1.3007812" y="15" xml:space="preserve">MLP</tspan>
        </text>
      </g>
      <g id="Group_93">
        <g id="Graphic_95">
          <circle cx="-54.16211" cy="983.0736" r="18.0000287622342" fill="#e3d5e8"/>
          <circle cx="-54.16211" cy="983.0736" r="18.0000287622342" stroke="#a5a5a5" stroke-linecap="round" stroke-linejoin="round" stroke-width="2"/>
        </g>
        <g id="Graphic_94">
          <text transform="translate(-62.921875 962.2096)" fill="black">
            <tspan font-family="Helvetica" font-size="30" fill="black" x="0" y="29" xml:space="preserve">+</tspan>
          </text>
        </g>
      </g>
      <g id="Graphic_92">
        <path d="M -228.683 890.9336 L -216.6373 890.9336 C -212.62207 890.9336 -210.61445 890.9336 -208.20531 891.9036 C -206.1977 892.8736 -204.19008 895.2986 -203.38703 897.7236 C -202.58398 900.6336 -202.58398 903.0586 -202.58398 907.9086 L -202.58398 922.4586 C -202.58398 927.3086 -202.58398 929.7336 -203.38703 932.6436 C -204.19008 935.0686 -206.1977 937.4936 -208.20531 938.4636 C -210.61445 939.4336 -212.62207 939.4336 -216.6373 939.4336 L -228.683 939.4336 C -232.69824 939.4336 -234.70586 939.4336 -237.115 938.4636 C -239.12262 937.4936 -241.13023 935.0686 -241.93328 932.6436 C -242.73633 929.7336 -242.73633 927.3086 -242.73633 922.4586 L -242.73633 907.9086 C -242.73633 903.0586 -242.73633 900.6336 -241.93328 897.7236 C -241.13023 895.2986 -239.12262 892.8736 -237.115 891.9036 C -234.70586 890.9336 -232.69824 890.9336 -228.683 890.9336 M -228.683 890.9336" fill="#dae9fc"/>
        <path d="M -228.683 890.9336 L -216.6373 890.9336 C -212.62207 890.9336 -210.61445 890.9336 -208.20531 891.9036 C -206.1977 892.8736 -204.19008 895.2986 -203.38703 897.7236 C -202.58398 900.6336 -202.58398 903.0586 -202.58398 907.9086 L -202.58398 922.4586 C -202.58398 927.3086 -202.58398 929.7336 -203.38703 932.6436 C -204.19008 935.0686 -206.1977 937.4936 -208.20531 938.4636 C -210.61445 939.4336 -212.62207 939.4336 -216.6373 939.4336 L -228.683 939.4336 C -232.69824 939.4336 -234.70586 939.4336 -237.115 938.4636 C -239.12262 937.4936 -241.13023 935.0686 -241.93328 932.6436 C -242.73633 929.7336 -242.73633 927.3086 -242.73633 922.4586 L -242.73633 907.9086 C -242.73633 903.0586 -242.73633 900.6336 -241.93328 897.7236 C -241.13023 895.2986 -239.12262 892.8736 -237.115 891.9036 C -234.70586 890.9336 -232.69824 890.9336 -228.683 890.9336 M -228.683 890.9336" stroke="#a5a5a5" stroke-linecap="round" stroke-linejoin="round" stroke-width="2"/>
      </g>
      <g id="Graphic_89">
        <path d="M -228.683 817.7168 L -216.6373 817.7168 C -212.62207 817.7168 -210.61445 817.7168 -208.20531 818.6868 C -206.1977 819.6568 -204.19008 822.0818 -203.38703 824.5068 C -202.58398 827.4168 -202.58398 829.8418 -202.58398 834.6918 L -202.58398 849.2418 C -202.58398 854.0918 -202.58398 856.5168 -203.38703 859.4268 C -204.19008 861.8518 -206.1977 864.2768 -208.20531 865.2468 C -210.61445 866.2168 -212.62207 866.2168 -216.6373 866.2168 L -228.683 866.2168 C -232.69824 866.2168 -234.70586 866.2168 -237.115 865.2468 C -239.12262 864.2768 -241.13023 861.8518 -241.93328 859.4268 C -242.73633 856.5168 -242.73633 854.0918 -242.73633 849.2418 L -242.73633 834.6918 C -242.73633 829.8418 -242.73633 827.4168 -241.93328 824.5068 C -241.13023 822.0818 -239.12262 819.6568 -237.115 818.6868 C -234.70586 817.7168 -232.69824 817.7168 -228.683 817.7168 M -228.683 817.7168" fill="#dae9fc"/>
        <path d="M -228.683 817.7168 L -216.6373 817.7168 C -212.62207 817.7168 -210.61445 817.7168 -208.20531 818.6868 C -206.1977 819.6568 -204.19008 822.0818 -203.38703 824.5068 C -202.58398 827.4168 -202.58398 829.8418 -202.58398 834.6918 L -202.58398 849.2418 C -202.58398 854.0918 -202.58398 856.5168 -203.38703 859.4268 C -204.19008 861.8518 -206.1977 864.2768 -208.20531 865.2468 C -210.61445 866.2168 -212.62207 866.2168 -216.6373 866.2168 L -228.683 866.2168 C -232.69824 866.2168 -234.70586 866.2168 -237.115 865.2468 C -239.12262 864.2768 -241.13023 861.8518 -241.93328 859.4268 C -242.73633 856.5168 -242.73633 854.0918 -242.73633 849.2418 L -242.73633 834.6918 C -242.73633 829.8418 -242.73633 827.4168 -241.93328 824.5068 C -241.13023 822.0818 -239.12262 819.6568 -237.115 818.6868 C -234.70586 817.7168 -232.69824 817.7168 -228.683 817.7168 M -228.683 817.7168" stroke="#a5a5a5" stroke-linecap="round" stroke-linejoin="round" stroke-width="2"/>
      </g>
      <g id="Graphic_86">
        <path d="M -228.73633 744 L -216.73633 744 C -212.73633 744 -210.73633 744 -208.33633 744.98 C -206.33633 745.96 -204.33633 748.41 -203.53633 750.86 C -202.73633 753.8 -202.73633 756.25 -202.73633 761.15 L -202.73633 775.85 C -202.73633 780.75 -202.73633 783.2 -203.53633 786.14 C -204.33633 788.59 -206.33633 791.04 -208.33633 792.02 C -210.73633 793 -212.73633 793 -216.73633 793 L -228.73633 793 C -232.73633 793 -234.73633 793 -237.13633 792.02 C -239.13633 791.04 -241.13633 788.59 -241.93633 786.14 C -242.73633 783.2 -242.73633 780.75 -242.73633 775.85 L -242.73633 761.15 C -242.73633 756.25 -242.73633 753.8 -241.93633 750.86 C -241.13633 748.41 -239.13633 745.96 -237.13633 744.98 C -234.73633 744 -232.73633 744 -228.73633 744 M -228.73633 744" fill="#dae9fc"/>
        <path d="M -228.73633 744 L -216.73633 744 C -212.73633 744 -210.73633 744 -208.33633 744.98 C -206.33633 745.96 -204.33633 748.41 -203.53633 750.86 C -202.73633 753.8 -202.73633 756.25 -202.73633 761.15 L -202.73633 775.85 C -202.73633 780.75 -202.73633 783.2 -203.53633 786.14 C -204.33633 788.59 -206.33633 791.04 -208.33633 792.02 C -210.73633 793 -212.73633 793 -216.73633 793 L -228.73633 793 C -232.73633 793 -234.73633 793 -237.13633 792.02 C -239.13633 791.04 -241.13633 788.59 -241.93633 786.14 C -242.73633 783.2 -242.73633 780.75 -242.73633 775.85 L -242.73633 761.15 C -242.73633 756.25 -242.73633 753.8 -241.93633 750.86 C -241.13633 748.41 -239.13633 745.96 -237.13633 744.98 C -234.73633 744 -232.73633 744 -228.73633 744 M -228.73633 744" stroke="#a5a5a5" stroke-linecap="round" stroke-linejoin="round" stroke-width="2"/>
      </g>
      <g id="Line_83">
        <path d="M -266.32703 980.4883 L -266.32703 775.4883 C -266.32703 772.7269 -264.08845 770.4883 -261.32703 770.4883 L -252.78867 770.4883" marker-end="url(#FilledArrow_Marker_2)" stroke="black" stroke-linecap="round" stroke-linejoin="round" stroke-width="1"/>
      </g>
      <g id="Line_82">
        <path d="M -266.41992 982.4883 L -266.41992 847.4883 C -266.41992 844.7269 -264.18135 842.4883 -261.41992 842.4883 L -252.78867 842.4883" marker-end="url(#FilledArrow_Marker_2)" stroke="black" stroke-linecap="round" stroke-linejoin="round" stroke-width="1"/>
      </g>
      <g id="Line_81">
        <path d="M -266.41992 980.4883 L -266.41992 922.1496 C -266.41992 919.3882 -264.18135 917.1496 -261.41992 917.1496 L -252.78867 917.1496" marker-end="url(#FilledArrow_Marker_2)" stroke="black" stroke-linecap="round" stroke-linejoin="round" stroke-width="1"/>
      </g>
      <g id="Line_80">
        <line x1="-266.41992" y1="982.4883" x2="-205.75156" y2="982.432" marker-end="url(#FilledArrow_Marker)" stroke="black" stroke-linecap="round" stroke-linejoin="round" stroke-width="1"/>
      </g>
      <g id="Line_79">
        <path d="M -178.85156 956.543 L -178.85156 775.1862 C -178.85156 772.4248 -181.09014 770.1862 -183.85156 770.1862 L -200.4027 770.1862 C -200.80163 770.1862 -201.19914 770.2339 -201.58673 770.3284 L -202.24262 770.4883" stroke="black" stroke-linecap="round" stroke-linejoin="round" stroke-width="1"/>
      </g>
      <g id="Line_78">
        <path d="M -202.3355 842.4883 L -200.90945 842.638 C -200.736 842.6562 -200.5617 842.6654 -200.3873 842.6654 L -183.85156 842.6654 C -181.09014 842.6654 -178.85156 844.9039 -178.85156 847.6654 L -178.85156 942.0239" stroke="black" stroke-linecap="round" stroke-linejoin="round" stroke-width="1"/>
      </g>
      <g id="Group_75">
        <g id="Graphic_77">
          <circle cx="-178.85156" cy="982.407" r="18.0000287622342" fill="#e3d5e8"/>
          <circle cx="-178.85156" cy="982.407" r="18.0000287622342" stroke="#a5a5a5" stroke-linecap="round" stroke-linejoin="round" stroke-width="2"/>
        </g>
        <g id="Graphic_76">
          <text transform="translate(-187.61133 961.543)" fill="black">
            <tspan font-family="Helvetica" font-size="30" fill="black" x="0" y="29" xml:space="preserve">+</tspan>
          </text>
        </g>
      </g>
      <g id="Line_74">
        <line x1="-159.85182" y1="982.5086" x2="-83.06171" y2="982.9191" marker-end="url(#FilledArrow_Marker)" stroke="black" stroke-linecap="round" stroke-linejoin="round" stroke-width="1"/>
      </g>
      <g id="Line_73">
        <path d="M -146.80534 982.4883 L -146.80534 847.4883 C -146.80534 844.7269 -144.56676 842.4883 -141.80534 842.4883 L -133.17409 842.4883" marker-end="url(#FilledArrow_Marker_2)" stroke="black" stroke-linecap="round" stroke-linejoin="round" stroke-width="1"/>
      </g>
      <g id="Line_72">
        <path d="M -77.77409 842.4883 C -77.3548 842.2726 -76.89011 842.1602 -76.41862 842.1602 L -59.16211 842.1602 C -56.400686 842.1602 -54.16211 844.3987 -54.16211 847.1602 L -54.16211 956.1736" marker-end="url(#FilledArrow_Marker_2)" stroke="black" stroke-linecap="round" stroke-linejoin="round" stroke-width="1"/>
      </g>
      <g id="Line_71">
        <path d="M -202.43164 917.1496 L -201.84877 917.1334 C -201.80246 917.1322 -201.75613 917.1315 -201.7098 917.1315 L -183.85156 917.1315 C -181.09014 917.1315 -178.85156 919.3701 -178.85156 922.1315 L -178.85156 955.507" marker-end="url(#FilledArrow_Marker_2)" stroke="black" stroke-linecap="round" stroke-linejoin="round" stroke-width="1"/>
      </g>
      <g id="Line_70">
        <line x1="-313.45703" y1="982.123" x2="-266.41992" y2="982.4883" stroke="black" stroke-linecap="round" stroke-linejoin="round" stroke-dasharray="4.0,4.0" stroke-width="1"/>
      </g>
      <g id="Line_69">
        <line x1="-313.45703" y1="982.123" x2="-300.17813" y2="982.2261" marker-end="url(#FilledArrow_Marker)" stroke="black" stroke-linecap="round" stroke-linejoin="round" stroke-width="1"/>
      </g>
      <g id="Line_68">
        <line x1="-35.1621" y1="983.0825" x2="13.94987" y2="983.1055" stroke="black" stroke-linecap="round" stroke-linejoin="round" stroke-dasharray="4.0,4.0" stroke-width="1"/>
      </g>
      <g id="Line_67">
        <line x1="-9.994895" y1="983.0943" x2="6.049871" y2="983.1018" marker-end="url(#FilledArrow_Marker)" stroke="black" stroke-linecap="round" stroke-linejoin="round" stroke-width="1"/>
      </g>
      <g id="Graphic_103">
        <path d="M 100.50381 1082.5403 L 70.98252 1082.5403 C 61.14209 1082.5403 56.221875 1082.5403 50.31762 1083.4571 C 45.3974 1084.3739 40.477188 1086.6659 38.5091 1088.9579 C 36.541016 1091.7083 36.541016 1094.0003 36.541016 1098.5843 L 36.541016 1112.3363 C 36.541016 1116.9203 36.541016 1119.2123 38.5091 1121.9627 C 40.477188 1124.2547 45.3974 1126.5467 50.31762 1127.4635 C 56.221875 1128.3803 61.14209 1128.3803 70.98252 1128.3803 L 100.50381 1128.3803 C 110.34424 1128.3803 115.26445 1128.3803 121.16871 1127.4635 C 126.08893 1126.5467 131.00914 1124.2547 132.97723 1121.9627 C 134.94531 1119.2123 134.94531 1116.9203 134.94531 1112.3363 L 134.94531 1098.5843 C 134.94531 1094.0003 134.94531 1091.7083 132.97723 1088.9579 C 131.00914 1086.6659 126.08893 1084.3739 121.16871 1083.4571 C 115.26445 1082.5403 110.34424 1082.5403 100.50381 1082.5403 M 100.50381 1082.5403" fill="#d7e9d6"/>
        <path d="M 100.50381 1082.5403 L 70.98252 1082.5403 C 61.14209 1082.5403 56.221875 1082.5403 50.31762 1083.4571 C 45.3974 1084.3739 40.477188 1086.6659 38.5091 1088.9579 C 36.541016 1091.7083 36.541016 1094.0003 36.541016 1098.5843 L 36.541016 1112.3363 C 36.541016 1116.9203 36.541016 1119.2123 38.5091 1121.9627 C 40.477188 1124.2547 45.3974 1126.5467 50.31762 1127.4635 C 56.221875 1128.3803 61.14209 1128.3803 70.98252 1128.3803 L 100.50381 1128.3803 C 110.34424 1128.3803 115.26445 1128.3803 121.16871 1127.4635 C 126.08893 1126.5467 131.00914 1124.2547 132.97723 1121.9627 C 134.94531 1119.2123 134.94531 1116.9203 134.94531 1112.3363 L 134.94531 1098.5843 C 134.94531 1094.0003 134.94531 1091.7083 132.97723 1088.9579 C 131.00914 1086.6659 126.08893 1084.3739 121.16871 1083.4571 C 115.26445 1082.5403 110.34424 1082.5403 100.50381 1082.5403 M 100.50381 1082.5403" stroke="#a5a5a5" stroke-linecap="round" stroke-linejoin="round" stroke-width="2"/>
        <text transform="translate(41.541016 1095.9603)" fill="black">
          <tspan font-family="Helvetica" font-size="16" fill="black" x="21.963867" y="15" xml:space="preserve">Linear</tspan>
        </text>
      </g>
      <g id="Line_104">
        <path d="M -16.999809 983.091 L -16.999809 1105.3164 C -16.999809 1106.9733 -15.656663 1108.3164 -13.999809 1108.3164 L -10.822577 1108.3164 C -10.815859 1108.3164 -10.809141 1108.3164 -10.802424 1108.3163 L 26.387333 1108.0665" marker-end="url(#FilledArrow_Marker_2)" stroke="black" stroke-linecap="round" stroke-linejoin="round" stroke-width="1"/>
      </g>
      <g id="Line_105">
        <line x1="264.6953" y1="1075.4749" x2="187.27148" y2="1148.1702" stroke="#a5a5a5" stroke-linecap="round" stroke-linejoin="round" stroke-width="2"/>
      </g>
      <g id="Graphic_106">
        <ellipse cx="221.64258" cy="1084.5462" rx="3.75000599213211" ry="4.00000639160742" fill="#f8dedf"/>
        <ellipse cx="221.64258" cy="1084.5462" rx="3.75000599213211" ry="4.00000639160742" stroke="black" stroke-linecap="round" stroke-linejoin="round" stroke-width="1"/>
      </g>
      <g id="Graphic_107">
        <ellipse cx="195.14844" cy="1102.3421" rx="3.75000599213211" ry="4.00000639160745" fill="#f8dedf"/>
        <ellipse cx="195.14844" cy="1102.3421" rx="3.75000599213211" ry="4.00000639160745" stroke="black" stroke-linecap="round" stroke-linejoin="round" stroke-width="1"/>
      </g>
      <g id="Graphic_109">
        <ellipse cx="200.64844" cy="1085.9749" rx="3.75000599213211" ry="4.00000639160742" fill="#f8dedf"/>
        <ellipse cx="200.64844" cy="1085.9749" rx="3.75000599213211" ry="4.00000639160742" stroke="black" stroke-linecap="round" stroke-linejoin="round" stroke-width="1"/>
      </g>
      <g id="Graphic_108">
        <ellipse cx="216.88867" cy="1102.3421" rx="3.75000599213211" ry="4.00000639160745" fill="#f8dedf"/>
        <ellipse cx="216.88867" cy="1102.3421" rx="3.75000599213211" ry="4.00000639160745" stroke="black" stroke-linecap="round" stroke-linejoin="round" stroke-width="1"/>
      </g>
      <g id="Graphic_113">
        <ellipse cx="237.8379" cy="1089.262" rx="3.75000599213211" ry="4.00000639160742" fill="#f8dedf"/>
        <ellipse cx="237.8379" cy="1089.262" rx="3.75000599213211" ry="4.00000639160742" stroke="black" stroke-linecap="round" stroke-linejoin="round" stroke-width="1"/>
      </g>
      <g id="Graphic_112">
        <ellipse cx="200.3379" cy="1122.3577" rx="3.75000599213211" ry="4.00000639160739" fill="#f8dedf"/>
        <ellipse cx="200.3379" cy="1122.3577" rx="3.75000599213211" ry="4.00000639160739" stroke="black" stroke-linecap="round" stroke-linejoin="round" stroke-width="1"/>
      </g>
      <g id="Graphic_110">
        <ellipse cx="183.52148" cy="1113.844" rx="3.7500059921321" ry="4.00000639160739" fill="#f8dedf"/>
        <ellipse cx="183.52148" cy="1113.844" rx="3.7500059921321" ry="4.00000639160739" stroke="black" stroke-linecap="round" stroke-linejoin="round" stroke-width="1"/>
      </g>
      <g id="Graphic_114">
        <ellipse cx="247.54688" cy="1077.432" rx="3.75000599213211" ry="4.00000639160736" fill="#f8dedf"/>
        <ellipse cx="247.54688" cy="1077.432" rx="3.75000599213211" ry="4.00000639160736" stroke="black" stroke-linecap="round" stroke-linejoin="round" stroke-width="1"/>
      </g>
      <g id="Graphic_133">
        <ellipse cx="250.52148" cy="1136.1243" rx="3.75000599213211" ry="4.00000639160742" fill="#dae9fc"/>
        <ellipse cx="250.52148" cy="1136.1243" rx="3.75000599213211" ry="4.00000639160742" stroke="black" stroke-linecap="round" stroke-linejoin="round" stroke-width="1"/>
      </g>
      <g id="Graphic_132">
        <ellipse cx="216.88867" cy="1140.8402" rx="3.75000599213211" ry="4.00000639160736" fill="#dae9fc"/>
        <ellipse cx="216.88867" cy="1140.8402" rx="3.75000599213211" ry="4.00000639160736" stroke="black" stroke-linecap="round" stroke-linejoin="round" stroke-width="1"/>
      </g>
      <g id="Graphic_131">
        <ellipse cx="224.28906" cy="1124.9842" rx="3.7500059921321" ry="4.00000639160745" fill="#dae9fc"/>
        <ellipse cx="224.28906" cy="1124.9842" rx="3.7500059921321" ry="4.00000639160745" stroke="black" stroke-linecap="round" stroke-linejoin="round" stroke-width="1"/>
      </g>
      <g id="Graphic_129">
        <ellipse cx="254.35742" cy="1113.844" rx="3.75000599213212" ry="4.00000639160739" fill="#dae9fc"/>
        <ellipse cx="254.35742" cy="1113.844" rx="3.75000599213212" ry="4.00000639160739" stroke="black" stroke-linecap="round" stroke-linejoin="round" stroke-width="1"/>
      </g>
      <g id="Graphic_127">
        <ellipse cx="240.62598" cy="1122.3577" rx="3.7500059921321" ry="4.00000639160739" fill="#dae9fc"/>
        <ellipse cx="240.62598" cy="1122.3577" rx="3.7500059921321" ry="4.00000639160739" stroke="black" stroke-linecap="round" stroke-linejoin="round" stroke-width="1"/>
      </g>
      <g id="Graphic_126">
        <ellipse cx="233.70508" cy="1136.1243" rx="3.75000599213212" ry="4.00000639160742" fill="#dae9fc"/>
        <ellipse cx="233.70508" cy="1136.1243" rx="3.75000599213212" ry="4.00000639160742" stroke="black" stroke-linecap="round" stroke-linejoin="round" stroke-width="1"/>
      </g>
      <g id="Graphic_125">
        <ellipse cx="268.4453" cy="1124.9842" rx="3.75000599213212" ry="4.00000639160745" fill="#dae9fc"/>
        <ellipse cx="268.4453" cy="1124.9842" rx="3.75000599213212" ry="4.00000639160745" stroke="black" stroke-linecap="round" stroke-linejoin="round" stroke-width="1"/>
      </g>
      <g id="Graphic_136">
        <ellipse cx="257.73438" cy="1097.5152" rx="3.75000599213212" ry="4.00000639160742" fill="#dae9fc"/>
        <ellipse cx="257.73438" cy="1097.5152" rx="3.75000599213212" ry="4.00000639160742" stroke="black" stroke-linecap="round" stroke-linejoin="round" stroke-width="1"/>
      </g>
      <g id="Graphic_135">
        <ellipse cx="268.4453" cy="1110.3011" rx="3.75000599213212" ry="4.00000639160742" fill="#dae9fc"/>
        <ellipse cx="268.4453" cy="1110.3011" rx="3.75000599213212" ry="4.00000639160742" stroke="black" stroke-linecap="round" stroke-linejoin="round" stroke-width="1"/>
      </g>
      <g id="Line_138">
        <line x1="135.6" y1="1107.4" x2="163.40295" y2="1107.5869" marker-end="url(#FilledArrow_Marker)" stroke="black" stroke-linecap="round" stroke-linejoin="round" stroke-width="1"/>
      </g>
      <g id="Graphic_139">
        <text transform="translate(192.36884 1045.2217)" fill="black">
          <tspan font-family="Helvetica" font-size="16" fill="black" x="0" y="15" xml:space="preserve">Yes / No</tspan>
        </text>
      </g>
      <g id="Group_176">
        <g id="Group_177">
          <title>glyph-0-0</title>
          <g id="Graphic_178">
            <path d="M -226.66578 906.8527 C -226.66578 906.837 -226.66578 906.6339 -226.9314 906.6339 C -227.38453 906.6339 -228.83766 906.7902 -229.35328 906.837 C -229.50953 906.8527 -229.72828 906.8683 -229.72828 907.2277 C -229.72828 907.4777 -229.5564 907.4777 -229.25953 907.4777 C -228.3064 907.4777 -228.25953 907.6183 -228.25953 907.8058 L -228.32203 908.212 L -231.21266 919.6808 C -231.29078 919.962 -231.29078 920.0089 -231.29078 920.1183 C -231.29078 920.587 -230.88453 920.6808 -230.71266 920.6808 C -230.40016 920.6808 -230.07203 920.4464 -229.97828 920.1652 L -229.60328 918.6495 L -229.15016 916.8527 C -229.04078 916.4152 -228.91578 915.9777 -228.82203 915.5245 C -228.77516 915.3995 -228.6189 914.7433 -228.60328 914.6183 C -228.54078 914.4464 -227.91578 913.337 -227.2439 912.7902 C -226.8064 912.4777 -226.1814 912.1027 -225.33766 912.1027 C -224.47828 912.1027 -224.25953 912.7745 -224.25953 913.4933 C -224.25953 914.5714 -225.00953 916.7433 -225.4939 917.9464 C -225.65016 918.4152 -225.7439 918.6495 -225.7439 919.0402 C -225.7439 919.9777 -225.0564 920.6808 -224.1189 920.6808 C -222.2439 920.6808 -221.50953 917.7745 -221.50953 917.6183 C -221.50953 917.4152 -221.6814 917.4152 -221.7439 917.4152 C -221.94703 917.4152 -221.94703 917.4777 -222.04078 917.7745 C -222.33766 918.8214 -222.97828 920.2433 -224.07203 920.2433 C -224.41578 920.2433 -224.5564 920.0402 -224.5564 919.587 C -224.5564 919.087 -224.3689 918.6027 -224.19703 918.1652 C -223.88453 917.3214 -222.97828 914.9464 -222.97828 913.7902 C -222.97828 912.4933 -223.77516 911.6495 -225.27516 911.6495 C -226.52516 911.6495 -227.47828 912.2745 -228.22828 913.1964 L -226.66578 906.8527" fill="black"/>
          </g>
        </g>
      </g>
      <g id="Group_173">
        <g id="Group_174">
          <title>glyph-1-0</title>
          <g id="Graphic_175">
            <path d="M -213.7014 918.9989 C -213.7014 917.4677 -213.8889 916.3583 -214.52953 915.3895 C -214.96703 914.7489 -215.8264 914.1864 -216.93578 914.1864 C -220.18578 914.1864 -220.18578 917.9989 -220.18578 918.9989 C -220.18578 919.9989 -220.18578 923.7333 -216.93578 923.7333 C -213.7014 923.7333 -213.7014 919.9989 -213.7014 918.9989 M -216.93578 923.3427 C -217.5764 923.3427 -218.43578 922.9677 -218.71703 921.827 C -218.90453 920.9989 -218.90453 919.8583 -218.90453 918.827 C -218.90453 917.7958 -218.90453 916.7333 -218.7014 915.9677 C -218.40453 914.8739 -217.5139 914.577 -216.93578 914.577 C -216.18578 914.577 -215.46703 915.0458 -215.21703 915.8427 C -214.98266 916.6083 -214.96703 917.6083 -214.96703 918.827 C -214.96703 919.8583 -214.96703 920.8895 -215.15453 921.7645 C -215.43578 923.0302 -216.3889 923.3427 -216.93578 923.3427" fill="black"/>
          </g>
        </g>
      </g>
      <g id="Group_190">
        <g id="Group_191">
          <title>glyph-0-0</title>
          <g id="Graphic_192">
            <path d="M -226.66578 833.7765 C -226.66578 833.7609 -226.66578 833.5577 -226.9314 833.5577 C -227.38453 833.5577 -228.83766 833.714 -229.35328 833.7609 C -229.50953 833.7765 -229.72828 833.7921 -229.72828 834.1515 C -229.72828 834.4015 -229.5564 834.4015 -229.25953 834.4015 C -228.3064 834.4015 -228.25953 834.5421 -228.25953 834.7296 L -228.32203 835.1359 L -231.21266 846.6046 C -231.29078 846.8859 -231.29078 846.9327 -231.29078 847.0421 C -231.29078 847.5109 -230.88453 847.6046 -230.71266 847.6046 C -230.40016 847.6046 -230.07203 847.3702 -229.97828 847.089 L -229.60328 845.5734 L -229.15016 843.7765 C -229.04078 843.339 -228.91578 842.9015 -228.82203 842.4484 C -228.77516 842.3234 -228.6189 841.6671 -228.60328 841.5421 C -228.54078 841.3702 -227.91578 840.2609 -227.2439 839.714 C -226.8064 839.4015 -226.1814 839.0265 -225.33766 839.0265 C -224.47828 839.0265 -224.25953 839.6984 -224.25953 840.4171 C -224.25953 841.4952 -225.00953 843.6671 -225.4939 844.8702 C -225.65016 845.339 -225.7439 845.5734 -225.7439 845.964 C -225.7439 846.9015 -225.0564 847.6046 -224.1189 847.6046 C -222.2439 847.6046 -221.50953 844.6984 -221.50953 844.5421 C -221.50953 844.339 -221.6814 844.339 -221.7439 844.339 C -221.94703 844.339 -221.94703 844.4015 -222.04078 844.6984 C -222.33766 845.7452 -222.97828 847.1671 -224.07203 847.1671 C -224.41578 847.1671 -224.5564 846.964 -224.5564 846.5109 C -224.5564 846.0109 -224.3689 845.5265 -224.19703 845.089 C -223.88453 844.2452 -222.97828 841.8702 -222.97828 840.714 C -222.97828 839.4171 -223.77516 838.5734 -225.27516 838.5734 C -226.52516 838.5734 -227.47828 839.1984 -228.22828 840.1202 L -226.66578 833.7765" fill="black"/>
          </g>
        </g>
      </g>
      <g id="Group_187">
        <g id="Group_188">
          <title>glyph-1-0</title>
          <g id="Graphic_189">
            <path d="M -216.23266 841.5009 C -216.23266 841.1259 -216.2639 841.1102 -216.65453 841.1102 C -217.54516 841.9852 -218.81078 842.0009 -219.3889 842.0009 L -219.3889 842.5009 C -219.04516 842.5009 -218.12328 842.5009 -217.35766 842.1102 L -217.35766 849.2352 C -217.35766 849.6884 -217.35766 849.8759 -218.74828 849.8759 L -219.27953 849.8759 L -219.27953 850.3759 C -219.02953 850.3602 -217.31078 850.3134 -216.79516 850.3134 C -216.37328 850.3134 -214.60766 850.3602 -214.31078 850.3759 L -214.31078 849.8759 L -214.84203 849.8759 C -216.23266 849.8759 -216.23266 849.6884 -216.23266 849.2352 L -216.23266 841.5009" fill="black"/>
          </g>
        </g>
      </g>
      <g id="Group_196">
        <g id="Group_197">
          <title>glyph-0-0</title>
          <g id="Graphic_198">
            <path d="M -226.75172 760.3097 C -226.75172 760.2941 -226.75172 760.0909 -227.01734 760.0909 C -227.47047 760.0909 -228.9236 760.2472 -229.43922 760.2941 C -229.59547 760.3097 -229.81422 760.3253 -229.81422 760.6847 C -229.81422 760.9347 -229.64234 760.9347 -229.34547 760.9347 C -228.39234 760.9347 -228.34547 761.0753 -228.34547 761.2628 L -228.40797 761.6691 L -231.2986 773.1378 C -231.37672 773.4191 -231.37672 773.4659 -231.37672 773.5753 C -231.37672 774.0441 -230.97047 774.1378 -230.7986 774.1378 C -230.4861 774.1378 -230.15797 773.9034 -230.06422 773.6222 L -229.68922 772.1066 L -229.2361 770.3097 C -229.12672 769.8722 -229.00172 769.4347 -228.90797 768.9816 C -228.8611 768.8566 -228.70484 768.2003 -228.68922 768.0753 C -228.62672 767.9034 -228.00172 766.7941 -227.32984 766.2472 C -226.89234 765.9347 -226.26734 765.5597 -225.4236 765.5597 C -224.56422 765.5597 -224.34547 766.2316 -224.34547 766.9503 C -224.34547 768.0284 -225.09547 770.2003 -225.57984 771.4034 C -225.7361 771.8722 -225.82984 772.1066 -225.82984 772.4972 C -225.82984 773.4347 -225.14234 774.1378 -224.20484 774.1378 C -222.32984 774.1378 -221.59547 771.2316 -221.59547 771.0753 C -221.59547 770.8722 -221.76734 770.8722 -221.82984 770.8722 C -222.03297 770.8722 -222.03297 770.9347 -222.12672 771.2316 C -222.4236 772.2784 -223.06422 773.7003 -224.15797 773.7003 C -224.50172 773.7003 -224.64234 773.4972 -224.64234 773.0441 C -224.64234 772.5441 -224.45484 772.0597 -224.28297 771.6222 C -223.97047 770.7784 -223.06422 768.4034 -223.06422 767.2472 C -223.06422 765.9503 -223.8611 765.1066 -225.3611 765.1066 C -226.6111 765.1066 -227.56422 765.7316 -228.31422 766.6534 L -226.75172 760.3097" fill="black"/>
          </g>
        </g>
      </g>
      <g id="Group_193">
        <g id="Group_194">
          <title>glyph-1-0</title>
          <g id="Graphic_195">
            <path d="M -213.9436 774.3622 L -214.41234 774.3622 C -214.45922 774.6747 -214.59984 775.5028 -214.78734 775.6434 C -214.89672 775.7216 -215.97484 775.7216 -216.16234 775.7216 L -218.72484 775.7216 C -217.27172 774.4247 -216.77172 774.0341 -215.9436 773.3778 C -214.91234 772.5497 -213.9436 771.6903 -213.9436 770.3622 C -213.9436 768.6747 -215.42797 767.6434 -217.20922 767.6434 C -218.9436 767.6434 -220.11547 768.8622 -220.11547 770.1434 C -220.11547 770.8466 -219.5061 770.9247 -219.36547 770.9247 C -219.03734 770.9247 -218.6311 770.6903 -218.6311 770.1903 C -218.6311 769.9247 -218.72484 769.4403 -219.45922 769.4403 C -219.02172 768.4559 -218.0686 768.1434 -217.41234 768.1434 C -216.02172 768.1434 -215.30297 769.2372 -215.30297 770.3622 C -215.30297 771.5809 -216.16234 772.5341 -216.61547 773.0497 L -219.97484 776.3622 C -220.11547 776.4872 -220.11547 776.5184 -220.11547 776.9091 L -214.36547 776.9091 L -213.9436 774.3622" fill="black"/>
          </g>
        </g>
      </g>
    </g>
  </g>
</svg>
