<?xml version="1.0" encoding="UTF-8" standalone="no"?>
<!DOCTYPE svg PUBLIC "-//W3C//DTD SVG 1.1//EN" "http://www.w3.org/Graphics/SVG/1.1/DTD/svg11.dtd">
<svg xmlns:xl="http://www.w3.org/1999/xlink" xmlns="http://www.w3.org/2000/svg" xmlns:dc="http://purl.org/dc/elements/1.1/" version="1.1" viewBox="-401.13477 664.2539 891.0592 484.9891" width="891.0592" height="484.9891">
  <defs>
    <marker orient="auto" overflow="visible" markerUnits="strokeWidth" id="FilledArrow_Marker" stroke-linejoin="miter" stroke-miterlimit="10" viewBox="-1 -4 10 8" markerWidth="10" markerHeight="8" color="black">
      <g>
        <path d="M 8 0 L 0 -3 L 0 3 Z" fill="currentColor" stroke="currentColor" stroke-width="1"/>
      </g>
    </marker>
    <marker orient="auto" overflow="visible" markerUnits="strokeWidth" id="FilledArrow_Marker_2" stroke-linejoin="miter" stroke-miterlimit="10" viewBox="-1 -4 10 8" markerWidth="10" markerHeight="8" color="black">
      <g>
        <path d="M 8 0 L 0 -3 L 0 3 Z" fill="currentColor" stroke="currentColor" stroke-width="1"/>
      </g>
    </marker>
  </defs>
  <g id="SAE" stroke-opacity="1" fill="none" stroke="none" fill-opacity="1" stroke-dasharray="none">
    <title>SAE</title>
    <g id="SAE_图层_2">
      <title>图层 2</title>
      <g id="Group_399">
        <g id="Graphic_398">
          <path d="M 20.92448 971.243 L 463.9245 971.243 C 466.6859 971.243 468.9245 973.4816 468.9245 976.243 L 468.9245 1123.243 C 468.9245 1126.0044 466.6859 1128.243 463.9245 1128.243 L 20.92448 1128.243 C 18.163055 1128.243 15.92448 1126.0044 15.92448 1123.243 L 15.92448 976.243 C 15.92448 973.4816 18.163055 971.243 20.92448 971.243 Z" fill="#f5f5f5"/>
          <path d="M 20.92448 971.243 L 463.9245 971.243 C 466.6859 971.243 468.9245 973.4816 468.9245 976.243 L 468.9245 1123.243 C 468.9245 1126.0044 466.6859 1128.243 463.9245 1128.243 L 20.92448 1128.243 C 18.163055 1128.243 15.92448 1126.0044 15.92448 1123.243 L 15.92448 976.243 C 15.92448 973.4816 18.163055 971.243 20.92448 971.243 Z" stroke="gray" stroke-linecap="round" stroke-linejoin="round" stroke-width="2"/>
        </g>
        <g id="Graphic_339">
          <path d="M 95.72267 1025.6368 L 192.68267 1025.6368 C 195.4441 1025.6368 197.68267 1027.8753 197.68267 1030.6368 L 197.68267 1066.4768 C 197.68267 1069.2382 195.4441 1071.4768 192.68267 1071.4768 L 95.72267 1071.4768 C 92.96125 1071.4768 90.72267 1069.2382 90.72267 1066.4768 L 90.72267 1030.6368 C 90.72267 1027.8753 92.96125 1025.6368 95.72267 1025.6368 Z" fill="#f8dedf"/>
          <path d="M 95.72267 1025.6368 L 192.68267 1025.6368 C 195.4441 1025.6368 197.68267 1027.8753 197.68267 1030.6368 L 197.68267 1066.4768 C 197.68267 1069.2382 195.4441 1071.4768 192.68267 1071.4768 L 95.72267 1071.4768 C 92.96125 1071.4768 90.72267 1069.2382 90.72267 1066.4768 L 90.72267 1030.6368 C 90.72267 1027.8753 92.96125 1025.6368 95.72267 1025.6368 Z" stroke="gray" stroke-linecap="round" stroke-linejoin="round" stroke-width="2"/>
        </g>
        <g id="Graphic_340">
          <path d="M 354.54728 996.2598 L 390.0473 996.2598 C 392.8087 996.2598 395.0473 998.4984 395.0473 1001.2598 L 395.0473 1098.2198 C 395.0473 1100.9813 392.8087 1103.2198 390.0473 1103.2198 L 354.54728 1103.2198 C 351.78585 1103.2198 349.54728 1100.9813 349.54728 1098.2198 L 349.54728 1001.2598 C 349.54728 998.4984 351.78585 996.2598 354.54728 996.2598 Z" fill="#f8dedf"/>
          <path d="M 354.54728 996.2598 L 390.0473 996.2598 C 392.8087 996.2598 395.0473 998.4984 395.0473 1001.2598 L 395.0473 1098.2198 C 395.0473 1100.9813 392.8087 1103.2198 390.0473 1103.2198 L 354.54728 1103.2198 C 351.78585 1103.2198 349.54728 1100.9813 349.54728 1098.2198 L 349.54728 1001.2598 C 349.54728 998.4984 351.78585 996.2598 354.54728 996.2598 Z" stroke="gray" stroke-linecap="round" stroke-linejoin="round" stroke-width="2"/>
        </g>
        <g id="Graphic_341">
          <path d="M 235.7053 996.2598 L 249.14366 996.2598 C 251.90508 996.2598 254.14366 998.4984 254.14366 1001.2598 L 254.14366 1098.2198 C 254.14366 1100.9813 251.90508 1103.2198 249.14366 1103.2198 L 235.7053 1103.2198 C 232.94388 1103.2198 230.7053 1100.9813 230.7053 1098.2198 L 230.7053 1001.2598 C 230.7053 998.4984 232.94388 996.2598 235.7053 996.2598 Z" fill="#e3d5e8"/>
          <path d="M 235.7053 996.2598 L 249.14366 996.2598 C 251.90508 996.2598 254.14366 998.4984 254.14366 1001.2598 L 254.14366 1098.2198 C 254.14366 1100.9813 251.90508 1103.2198 249.14366 1103.2198 L 235.7053 1103.2198 C 232.94388 1103.2198 230.7053 1100.9813 230.7053 1098.2198 L 230.7053 1001.2598 C 230.7053 998.4984 232.94388 996.2598 235.7053 996.2598 Z" stroke="gray" stroke-linecap="round" stroke-linejoin="round" stroke-width="2"/>
        </g>
        <g id="Graphic_342">
          <path d="M 295.1263 996.2598 L 308.56465 996.2598 C 311.32607 996.2598 313.56465 998.4984 313.56465 1001.2598 L 313.56465 1098.2198 C 313.56465 1100.9813 311.32607 1103.2198 308.56465 1103.2198 L 295.1263 1103.2198 C 292.36486 1103.2198 290.1263 1100.9813 290.1263 1098.2198 L 290.1263 1001.2598 C 290.1263 998.4984 292.36486 996.2598 295.1263 996.2598 Z" fill="white"/>
          <path d="M 295.1263 996.2598 L 308.56465 996.2598 C 311.32607 996.2598 313.56465 998.4984 313.56465 1001.2598 L 313.56465 1098.2198 C 313.56465 1100.9813 311.32607 1103.2198 308.56465 1103.2198 L 295.1263 1103.2198 C 292.36486 1103.2198 290.1263 1100.9813 290.1263 1098.2198 L 290.1263 1001.2598 C 290.1263 998.4984 292.36486 996.2598 295.1263 996.2598 Z" stroke="gray" stroke-linecap="round" stroke-linejoin="round" stroke-width="2"/>
        </g>
        <g id="Graphic_343">
          <path d="M 36.30168 1025.6367 L 49.74004 1025.6367 C 52.501464 1025.6367 54.74004 1027.8753 54.74004 1030.6367 L 54.74004 1066.4767 C 54.74004 1069.2381 52.501464 1071.4767 49.74004 1071.4767 L 36.30168 1071.4767 C 33.540258 1071.4767 31.30168 1069.2381 31.30168 1066.4767 L 31.30168 1030.6367 C 31.30168 1027.8753 33.540258 1025.6367 36.30168 1025.6367 Z" fill="white"/>
          <path d="M 36.30168 1025.6367 L 49.74004 1025.6367 C 52.501464 1025.6367 54.74004 1027.8753 54.74004 1030.6367 L 54.74004 1066.4767 C 54.74004 1069.2381 52.501464 1071.4767 49.74004 1071.4767 L 36.30168 1071.4767 C 33.540258 1071.4767 31.30168 1069.2381 31.30168 1066.4767 L 31.30168 1030.6367 C 31.30168 1027.8753 33.540258 1025.6367 36.30168 1025.6367 Z" stroke="gray" stroke-linecap="round" stroke-linejoin="round" stroke-width="2"/>
        </g>
        <g id="Line_345">
          <line x1="55.74004" y1="1048.5567" x2="79.82267" y2="1048.5567" marker-end="url(#FilledArrow_Marker)" stroke="black" stroke-linecap="round" stroke-linejoin="round" stroke-width="1"/>
        </g>
        <g id="Line_346">
          <line x1="198.68267" y1="1049.213" x2="219.80602" y2="1049.4674" marker-end="url(#FilledArrow_Marker)" stroke="black" stroke-linecap="round" stroke-linejoin="round" stroke-width="1"/>
        </g>
        <g id="Line_347">
          <line x1="255.14366" y1="1049.7398" x2="279.2263" y2="1049.7398" marker-end="url(#FilledArrow_Marker)" stroke="black" stroke-linecap="round" stroke-linejoin="round" stroke-width="1"/>
        </g>
        <g id="Line_348">
          <line x1="314.56465" y1="1049.7398" x2="338.64728" y2="1049.7398" marker-end="url(#FilledArrow_Marker)" stroke="black" stroke-linecap="round" stroke-linejoin="round" stroke-width="1"/>
        </g>
        <g id="Graphic_376">
          <rect x="290.1263" y="1011.5398" width="23.53125" height="15.28" fill="#f8dedf"/>
          <rect x="290.1263" y="1011.5398" width="23.53125" height="15.28" stroke="gray" stroke-linecap="round" stroke-linejoin="round" stroke-width="2"/>
        </g>
        <g id="Graphic_375">
          <rect x="290.1263" y="1042.0998" width="23.53125" height="15.28" fill="white"/>
          <rect x="290.1263" y="1042.0998" width="23.53125" height="15.28" stroke="gray" stroke-linecap="round" stroke-linejoin="round" stroke-width="2"/>
        </g>
        <g id="Graphic_374">
          <rect x="290.1263" y="1026.8198" width="23.53125" height="15.28" fill="white"/>
          <rect x="290.1263" y="1026.8198" width="23.53125" height="15.28" stroke="gray" stroke-linecap="round" stroke-linejoin="round" stroke-width="2"/>
        </g>
        <g id="Graphic_373">
          <rect x="290.1263" y="1057.3798" width="23.53125" height="15.28" fill="#fff3cc"/>
          <rect x="290.1263" y="1057.3798" width="23.53125" height="15.28" stroke="gray" stroke-linecap="round" stroke-linejoin="round" stroke-width="2"/>
        </g>
        <g id="Graphic_371">
          <rect x="290.1263" y="1072.6598" width="23.53125" height="15.28" fill="#dae9fc"/>
          <rect x="290.1263" y="1072.6598" width="23.53125" height="15.28" stroke="gray" stroke-linecap="round" stroke-linejoin="round" stroke-width="2"/>
        </g>
        <g id="Graphic_377">
          <path d="M 36.20879 1025.6367 L 49.74004 1025.6367 C 52.501464 1025.6367 54.74004 1027.8753 54.74004 1030.6367 L 54.74004 1043.9815 C 54.74004 1046.743 52.501464 1048.9815 49.74004 1048.9815 L 36.20879 1048.9815 C 33.447367 1048.9815 31.20879 1046.743 31.20879 1043.9815 L 31.20879 1030.6367 C 31.20879 1027.8753 33.447367 1025.6367 36.20879 1025.6367 Z" fill="#c3eade"/>
          <path d="M 36.20879 1025.6367 L 49.74004 1025.6367 C 52.501464 1025.6367 54.74004 1027.8753 54.74004 1030.6367 L 54.74004 1043.9815 C 54.74004 1046.743 52.501464 1048.9815 49.74004 1048.9815 L 36.20879 1048.9815 C 33.447367 1048.9815 31.20879 1046.743 31.20879 1043.9815 L 31.20879 1030.6367 C 31.20879 1027.8753 33.447367 1025.6367 36.20879 1025.6367 Z" stroke="gray" stroke-linecap="round" stroke-linejoin="round" stroke-width="2"/>
        </g>
        <g id="Graphic_378">
          <path d="M 36.30168 1048.1319 L 49.83293 1048.1319 C 52.594355 1048.1319 54.83293 1050.3705 54.83293 1053.1319 L 54.83293 1066.4767 C 54.83293 1069.2381 52.594355 1071.4767 49.83293 1071.4767 L 36.30168 1071.4767 C 33.540258 1071.4767 31.30168 1069.2381 31.30168 1066.4767 L 31.30168 1053.1319 C 31.30168 1050.3705 33.540258 1048.1319 36.30168 1048.1319 Z" fill="#f5dfcf"/>
          <path d="M 36.30168 1048.1319 L 49.83293 1048.1319 C 52.594355 1048.1319 54.83293 1050.3705 54.83293 1053.1319 L 54.83293 1066.4767 C 54.83293 1069.2381 52.594355 1071.4767 49.83293 1071.4767 L 36.30168 1071.4767 C 33.540258 1071.4767 31.30168 1069.2381 31.30168 1066.4767 L 31.30168 1053.1319 C 31.30168 1050.3705 33.540258 1048.1319 36.30168 1048.1319 Z" stroke="gray" stroke-linecap="round" stroke-linejoin="round" stroke-width="2"/>
        </g>
        <g id="Graphic_356">
          <rect x="31.20879" y="1040.9167" width="23.53125" height="15.28" fill="#d7e9d6"/>
          <rect x="31.20879" y="1040.9167" width="23.53125" height="15.28" stroke="gray" stroke-linecap="round" stroke-linejoin="round" stroke-width="2"/>
        </g>
        <g id="Group_390">
          <g id="Graphic_389">
            <path d="M 436.1228 1026.823 L 449.56116 1026.823 C 452.3226 1026.823 454.56116 1029.0616 454.56116 1031.823 L 454.56116 1067.663 C 454.56116 1070.4244 452.3226 1072.663 449.56116 1072.663 L 436.1228 1072.663 C 433.36137 1072.663 431.1228 1070.4244 431.1228 1067.663 L 431.1228 1031.823 C 431.1228 1029.0616 433.36137 1026.823 436.1228 1026.823 Z" fill="white"/>
            <path d="M 436.1228 1026.823 L 449.56116 1026.823 C 452.3226 1026.823 454.56116 1029.0616 454.56116 1031.823 L 454.56116 1067.663 C 454.56116 1070.4244 452.3226 1072.663 449.56116 1072.663 L 436.1228 1072.663 C 433.36137 1072.663 431.1228 1070.4244 431.1228 1067.663 L 431.1228 1031.823 C 431.1228 1029.0616 433.36137 1026.823 436.1228 1026.823 Z" stroke="gray" stroke-linecap="round" stroke-linejoin="round" stroke-width="2"/>
          </g>
          <g id="Graphic_387">
            <path d="M 436.0299 1026.823 L 449.56116 1026.823 C 452.3226 1026.823 454.56116 1029.0616 454.56116 1031.823 L 454.56116 1045.1678 C 454.56116 1047.9292 452.3226 1050.1678 449.56116 1050.1678 L 436.0299 1050.1678 C 433.2685 1050.1678 431.0299 1047.9292 431.0299 1045.1678 L 431.0299 1031.823 C 431.0299 1029.0616 433.2685 1026.823 436.0299 1026.823 Z" fill="#c3eade"/>
            <path d="M 436.0299 1026.823 L 449.56116 1026.823 C 452.3226 1026.823 454.56116 1029.0616 454.56116 1031.823 L 454.56116 1045.1678 C 454.56116 1047.9292 452.3226 1050.1678 449.56116 1050.1678 L 436.0299 1050.1678 C 433.2685 1050.1678 431.0299 1047.9292 431.0299 1045.1678 L 431.0299 1031.823 C 431.0299 1029.0616 433.2685 1026.823 436.0299 1026.823 Z" stroke="gray" stroke-linecap="round" stroke-linejoin="round" stroke-width="2"/>
          </g>
          <g id="Graphic_386">
            <path d="M 436.1228 1049.3182 L 449.65405 1049.3182 C 452.41547 1049.3182 454.65405 1051.5567 454.65405 1054.3182 L 454.65405 1067.663 C 454.65405 1070.4244 452.41547 1072.663 449.65405 1072.663 L 436.1228 1072.663 C 433.36137 1072.663 431.1228 1070.4244 431.1228 1067.663 L 431.1228 1054.3182 C 431.1228 1051.5567 433.36137 1049.3182 436.1228 1049.3182 Z" fill="#f5dfcf"/>
            <path d="M 436.1228 1049.3182 L 449.65405 1049.3182 C 452.41547 1049.3182 454.65405 1051.5567 454.65405 1054.3182 L 454.65405 1067.663 C 454.65405 1070.4244 452.41547 1072.663 449.65405 1072.663 L 436.1228 1072.663 C 433.36137 1072.663 431.1228 1070.4244 431.1228 1067.663 L 431.1228 1054.3182 C 431.1228 1051.5567 433.36137 1049.3182 436.1228 1049.3182 Z" stroke="gray" stroke-linecap="round" stroke-linejoin="round" stroke-width="2"/>
          </g>
          <g id="Graphic_385">
            <rect x="431.0299" y="1042.103" width="23.53125" height="15.28" fill="#d7e9d6"/>
            <rect x="431.0299" y="1042.103" width="23.53125" height="15.28" stroke="gray" stroke-linecap="round" stroke-linejoin="round" stroke-width="2"/>
          </g>
        </g>
        <g id="Line_391">
          <line x1="396.0473" y1="1049.7409" x2="420.1299" y2="1049.742" marker-end="url(#FilledArrow_Marker)" stroke="black" stroke-linecap="round" stroke-linejoin="round" stroke-width="1"/>
        </g>
        <g id="Graphic_394">
          <text transform="translate(251.92448 1028.431) rotate(90)" fill="black">
            <tspan font-family="Helvetica" font-size="16" fill="black" x="1.1348763" y="15" xml:space="preserve">ReLU</tspan>
          </text>
        </g>
      </g>
      <g id="Graphic_126">
        <path d="M -227.1418 898.7969 L -201.0418 898.7969 C -192.3418 898.7969 -187.9918 898.7969 -182.7718 899.7669 C -178.4218 900.7369 -174.0718 903.1619 -172.3318 905.5869 C -170.5918 908.4969 -170.5918 910.9219 -170.5918 915.7719 L -170.5918 930.3219 C -170.5918 935.1719 -170.5918 937.5969 -172.3318 940.5069 C -174.0718 942.9319 -178.4218 945.3569 -182.7718 946.3269 C -187.9918 947.2969 -192.3418 947.2969 -201.0418 947.2969 L -227.1418 947.2969 C -235.8418 947.2969 -240.1918 947.2969 -245.4118 946.3269 C -249.7618 945.3569 -254.1118 942.9319 -255.8518 940.5069 C -257.5918 937.5969 -257.5918 935.1719 -257.5918 930.3219 L -257.5918 915.7719 C -257.5918 910.9219 -257.5918 908.4969 -255.8518 905.5869 C -254.1118 903.1619 -249.7618 900.7369 -245.4118 899.7669 C -240.1918 898.7969 -235.8418 898.7969 -227.1418 898.7969 M -227.1418 898.7969" fill="#f8dedf"/>
        <path d="M -227.1418 898.7969 L -201.0418 898.7969 C -192.3418 898.7969 -187.9918 898.7969 -182.7718 899.7669 C -178.4218 900.7369 -174.0718 903.1619 -172.3318 905.5869 C -170.5918 908.4969 -170.5918 910.9219 -170.5918 915.7719 L -170.5918 930.3219 C -170.5918 935.1719 -170.5918 937.5969 -172.3318 940.5069 C -174.0718 942.9319 -178.4218 945.3569 -182.7718 946.3269 C -187.9918 947.2969 -192.3418 947.2969 -201.0418 947.2969 L -227.1418 947.2969 C -235.8418 947.2969 -240.1918 947.2969 -245.4118 946.3269 C -249.7618 945.3569 -254.1118 942.9319 -255.8518 940.5069 C -257.5918 937.5969 -257.5918 935.1719 -257.5918 930.3219 L -257.5918 915.7719 C -257.5918 910.9219 -257.5918 908.4969 -255.8518 905.5869 C -254.1118 903.1619 -249.7618 900.7369 -245.4118 899.7669 C -240.1918 898.7969 -235.8418 898.7969 -227.1418 898.7969 M -227.1418 898.7969" stroke="#a5a5a5" stroke-linecap="round" stroke-linejoin="round" stroke-width="2"/>
        <text transform="translate(-252.5918 913.5469)" fill="black">
          <tspan font-family="Helvetica" font-size="16" fill="black" x="13.152344" y="15" xml:space="preserve">Embed</tspan>
        </text>
      </g>
      <g id="Graphic_125">
        <path d="M -349.68477 898.7969 L -323.58477 898.7969 C -314.88477 898.7969 -310.53477 898.7969 -305.31477 899.7669 C -300.96477 900.7369 -296.61477 903.1619 -294.87477 905.5869 C -293.13477 908.4969 -293.13477 910.9219 -293.13477 915.7719 L -293.13477 930.3219 C -293.13477 935.1719 -293.13477 937.5969 -294.87477 940.5069 C -296.61477 942.9319 -300.96477 945.3569 -305.31477 946.3269 C -310.53477 947.2969 -314.88477 947.2969 -323.58477 947.2969 L -349.68477 947.2969 C -358.38477 947.2969 -362.73477 947.2969 -367.95477 946.3269 C -372.30477 945.3569 -376.65477 942.9319 -378.39477 940.5069 C -380.13477 937.5969 -380.13477 935.1719 -380.13477 930.3219 L -380.13477 915.7719 C -380.13477 910.9219 -380.13477 908.4969 -378.39477 905.5869 C -376.65477 903.1619 -372.30477 900.7369 -367.95477 899.7669 C -362.73477 898.7969 -358.38477 898.7969 -349.68477 898.7969 M -349.68477 898.7969" fill="#f8dedf"/>
        <path d="M -349.68477 898.7969 L -323.58477 898.7969 C -314.88477 898.7969 -310.53477 898.7969 -305.31477 899.7669 C -300.96477 900.7369 -296.61477 903.1619 -294.87477 905.5869 C -293.13477 908.4969 -293.13477 910.9219 -293.13477 915.7719 L -293.13477 930.3219 C -293.13477 935.1719 -293.13477 937.5969 -294.87477 940.5069 C -296.61477 942.9319 -300.96477 945.3569 -305.31477 946.3269 C -310.53477 947.2969 -314.88477 947.2969 -323.58477 947.2969 L -349.68477 947.2969 C -358.38477 947.2969 -362.73477 947.2969 -367.95477 946.3269 C -372.30477 945.3569 -376.65477 942.9319 -378.39477 940.5069 C -380.13477 937.5969 -380.13477 935.1719 -380.13477 930.3219 L -380.13477 915.7719 C -380.13477 910.9219 -380.13477 908.4969 -378.39477 905.5869 C -376.65477 903.1619 -372.30477 900.7369 -367.95477 899.7669 C -362.73477 898.7969 -358.38477 898.7969 -349.68477 898.7969 M -349.68477 898.7969" stroke="#a5a5a5" stroke-linecap="round" stroke-linejoin="round" stroke-width="2"/>
        <text transform="translate(-375.13477 913.5469)" fill="black">
          <tspan font-family="Helvetica" font-size="16" fill="black" x="13.152344" y="15" xml:space="preserve">Tokens</tspan>
        </text>
      </g>
      <g id="Line_124">
        <line x1="-292.13477" y1="923.0469" x2="-268.4918" y2="923.0469" marker-end="url(#FilledArrow_Marker)" stroke="black" stroke-linecap="round" stroke-linejoin="round" stroke-width="1"/>
      </g>
      <g id="Graphic_123">
        <path d="M 314.24948 900.1302 L 340.34948 900.1302 C 349.04948 900.1302 353.3995 900.1302 358.6195 901.1002 C 362.9695 902.0702 367.3195 904.4952 369.0595 906.9202 C 370.7995 909.8302 370.7995 912.2552 370.7995 917.1052 L 370.7995 931.6552 C 370.7995 936.5052 370.7995 938.9302 369.0595 941.8402 C 367.3195 944.2652 362.9695 946.6902 358.6195 947.6602 C 353.3995 948.6302 349.04948 948.6302 340.34948 948.6302 L 314.24948 948.6302 C 305.54948 948.6302 301.19948 948.6302 295.97948 947.6602 C 291.62948 946.6902 287.27948 944.2652 285.53948 941.8402 C 283.79948 938.9302 283.79948 936.5052 283.79948 931.6552 L 283.79948 917.1052 C 283.79948 912.2552 283.79948 909.8302 285.53948 906.9202 C 287.27948 904.4952 291.62948 902.0702 295.97948 901.1002 C 301.19948 900.1302 305.54948 900.1302 314.24948 900.1302 M 314.24948 900.1302" fill="#f8dedf"/>
        <path d="M 314.24948 900.1302 L 340.34948 900.1302 C 349.04948 900.1302 353.3995 900.1302 358.6195 901.1002 C 362.9695 902.0702 367.3195 904.4952 369.0595 906.9202 C 370.7995 909.8302 370.7995 912.2552 370.7995 917.1052 L 370.7995 931.6552 C 370.7995 936.5052 370.7995 938.9302 369.0595 941.8402 C 367.3195 944.2652 362.9695 946.6902 358.6195 947.6602 C 353.3995 948.6302 349.04948 948.6302 340.34948 948.6302 L 314.24948 948.6302 C 305.54948 948.6302 301.19948 948.6302 295.97948 947.6602 C 291.62948 946.6902 287.27948 944.2652 285.53948 941.8402 C 283.79948 938.9302 283.79948 936.5052 283.79948 931.6552 L 283.79948 917.1052 C 283.79948 912.2552 283.79948 909.8302 285.53948 906.9202 C 287.27948 904.4952 291.62948 902.0702 295.97948 901.1002 C 301.19948 900.1302 305.54948 900.1302 314.24948 900.1302 M 314.24948 900.1302" stroke="#a5a5a5" stroke-linecap="round" stroke-linejoin="round" stroke-width="2"/>
        <text transform="translate(288.79948 914.8802)" fill="black">
          <tspan font-family="Helvetica" font-size="16" fill="black" x="17.152344" y="15" xml:space="preserve">Logits</tspan>
        </text>
      </g>
      <g id="Graphic_122">
        <path d="M 187.2651 900.1302 L 213.3651 900.1302 C 222.0651 900.1302 226.4151 900.1302 231.6351 901.1002 C 235.9851 902.0702 240.3351 904.4952 242.0751 906.9202 C 243.8151 909.8302 243.8151 912.2552 243.8151 917.1052 L 243.8151 931.6552 C 243.8151 936.5052 243.8151 938.9302 242.0751 941.8402 C 240.3351 944.2652 235.9851 946.6902 231.6351 947.6602 C 226.4151 948.6302 222.0651 948.6302 213.3651 948.6302 L 187.2651 948.6302 C 178.5651 948.6302 174.2151 948.6302 168.9951 947.6602 C 164.6451 946.6902 160.2951 944.2652 158.5551 941.8402 C 156.8151 938.9302 156.8151 936.5052 156.8151 931.6552 L 156.8151 917.1052 C 156.8151 912.2552 156.8151 909.8302 158.5551 906.9202 C 160.2951 904.4952 164.6451 902.0702 168.9951 901.1002 C 174.2151 900.1302 178.5651 900.1302 187.2651 900.1302 M 187.2651 900.1302" fill="#f8dedf"/>
        <path d="M 187.2651 900.1302 L 213.3651 900.1302 C 222.0651 900.1302 226.4151 900.1302 231.6351 901.1002 C 235.9851 902.0702 240.3351 904.4952 242.0751 906.9202 C 243.8151 909.8302 243.8151 912.2552 243.8151 917.1052 L 243.8151 931.6552 C 243.8151 936.5052 243.8151 938.9302 242.0751 941.8402 C 240.3351 944.2652 235.9851 946.6902 231.6351 947.6602 C 226.4151 948.6302 222.0651 948.6302 213.3651 948.6302 L 187.2651 948.6302 C 178.5651 948.6302 174.2151 948.6302 168.9951 947.6602 C 164.6451 946.6902 160.2951 944.2652 158.5551 941.8402 C 156.8151 938.9302 156.8151 936.5052 156.8151 931.6552 L 156.8151 917.1052 C 156.8151 912.2552 156.8151 909.8302 158.5551 906.9202 C 160.2951 904.4952 164.6451 902.0702 168.9951 901.1002 C 174.2151 900.1302 178.5651 900.1302 187.2651 900.1302 M 187.2651 900.1302" stroke="#a5a5a5" stroke-linecap="round" stroke-linejoin="round" stroke-width="2"/>
        <text transform="translate(161.8151 914.8802)" fill="black">
          <tspan font-family="Helvetica" font-size="16" fill="black" x="3.8125" y="15" xml:space="preserve">Unembed</tspan>
        </text>
      </g>
      <g id="Line_121">
        <line x1="244.8151" y1="924.3802" x2="272.89948" y2="924.3802" marker-end="url(#FilledArrow_Marker)" stroke="black" stroke-linecap="round" stroke-linejoin="round" stroke-width="1"/>
      </g>
      <g id="Graphic_120">
        <path d="M 48.166146 685.5039 L 34.516146 685.5039 C 29.966146 685.5039 27.691146 685.5039 24.961146 689.4126 C 22.686146 693.32125 20.411146 703.0929 19.501146 712.8646 C 18.591146 724.5906 18.591146 734.3623 18.591146 753.9057 L 18.591146 812.5357 C 18.591146 832.0791 18.591146 841.8508 19.501146 853.5768 C 20.411146 863.3485 22.686146 873.1202 24.961146 877.0288 C 27.691146 880.9375 29.966146 880.9375 34.516146 880.9375 L 48.166146 880.9375 C 52.716146 880.9375 54.991146 880.9375 57.721146 877.0288 C 59.996146 873.1202 62.271146 863.3485 63.181146 853.5768 C 64.091146 841.8508 64.091146 832.0791 64.091146 812.5357 L 64.091146 753.9057 C 64.091146 734.3623 64.091146 724.5906 63.181146 712.8646 C 62.271146 703.0929 59.996146 693.32125 57.721146 689.4126 C 54.991146 685.5039 52.716146 685.5039 48.166146 685.5039 M 48.166146 685.5039" fill="#d7e9d6"/>
        <path d="M 48.166146 685.5039 L 34.516146 685.5039 C 29.966146 685.5039 27.691146 685.5039 24.961146 689.4126 C 22.686146 693.32125 20.411146 703.0929 19.501146 712.8646 C 18.591146 724.5906 18.591146 734.3623 18.591146 753.9057 L 18.591146 812.5357 C 18.591146 832.0791 18.591146 841.8508 19.501146 853.5768 C 20.411146 863.3485 22.686146 873.1202 24.961146 877.0288 C 27.691146 880.9375 29.966146 880.9375 34.516146 880.9375 L 48.166146 880.9375 C 52.716146 880.9375 54.991146 880.9375 57.721146 877.0288 C 59.996146 873.1202 62.271146 863.3485 63.181146 853.5768 C 64.091146 841.8508 64.091146 832.0791 64.091146 812.5357 L 64.091146 753.9057 C 64.091146 734.3623 64.091146 724.5906 63.181146 712.8646 C 62.271146 703.0929 59.996146 693.32125 57.721146 689.4126 C 54.991146 685.5039 52.716146 685.5039 48.166146 685.5039 M 48.166146 685.5039" stroke="#a5a5a5" stroke-linecap="round" stroke-linejoin="round" stroke-width="2"/>
        <text transform="translate(23.591146 773.7207)" fill="black">
          <tspan font-family="Helvetica" font-size="16" fill="black" x="1.3007812" y="15" xml:space="preserve">MLP</tspan>
        </text>
      </g>
      <g id="Group_117">
        <g id="Graphic_119">
          <circle cx="87.70313" cy="924.3275" r="18.0000287622342" fill="#e3d5e8"/>
          <circle cx="87.70313" cy="924.3275" r="18.0000287622342" stroke="#a5a5a5" stroke-linecap="round" stroke-linejoin="round" stroke-width="2"/>
        </g>
        <g id="Graphic_118">
          <text transform="translate(78.94336 903.4635)" fill="black">
            <tspan font-family="Helvetica" font-size="30" fill="black" x="0" y="29" xml:space="preserve">+</tspan>
          </text>
        </g>
      </g>
      <g id="Group_114">
        <g id="Graphic_116">
          <path d="M -86.81777 832.1875 L -74.77207 832.1875 C -70.75684 832.1875 -68.74922 832.1875 -66.34008 833.1575 C -64.33246 834.1275 -62.324844 836.5525 -61.5218 838.9775 C -60.71875 841.8875 -60.71875 844.3125 -60.71875 849.1625 L -60.71875 863.7125 C -60.71875 868.5625 -60.71875 870.9875 -61.5218 873.8975 C -62.324844 876.3225 -64.33246 878.7475 -66.34008 879.7175 C -68.74922 880.6875 -70.75684 880.6875 -74.77207 880.6875 L -86.81777 880.6875 C -90.83301 880.6875 -92.84062 880.6875 -95.24977 879.7175 C -97.25738 878.7475 -99.265 876.3225 -100.06805 873.8975 C -100.87109 870.9875 -100.87109 868.5625 -100.87109 863.7125 L -100.87109 849.1625 C -100.87109 844.3125 -100.87109 841.8875 -100.06805 838.9775 C -99.265 836.5525 -97.25738 834.1275 -95.24977 833.1575 C -92.84062 832.1875 -90.83301 832.1875 -86.81777 832.1875 M -86.81777 832.1875" fill="#dae9fc"/>
          <path d="M -86.81777 832.1875 L -74.77207 832.1875 C -70.75684 832.1875 -68.74922 832.1875 -66.34008 833.1575 C -64.33246 834.1275 -62.324844 836.5525 -61.5218 838.9775 C -60.71875 841.8875 -60.71875 844.3125 -60.71875 849.1625 L -60.71875 863.7125 C -60.71875 868.5625 -60.71875 870.9875 -61.5218 873.8975 C -62.324844 876.3225 -64.33246 878.7475 -66.34008 879.7175 C -68.74922 880.6875 -70.75684 880.6875 -74.77207 880.6875 L -86.81777 880.6875 C -90.83301 880.6875 -92.84062 880.6875 -95.24977 879.7175 C -97.25738 878.7475 -99.265 876.3225 -100.06805 873.8975 C -100.87109 870.9875 -100.87109 868.5625 -100.87109 863.7125 L -100.87109 849.1625 C -100.87109 844.3125 -100.87109 841.8875 -100.06805 838.9775 C -99.265 836.5525 -97.25738 834.1275 -95.24977 833.1575 C -92.84062 832.1875 -90.83301 832.1875 -86.81777 832.1875 M -86.81777 832.1875" stroke="#a5a5a5" stroke-linecap="round" stroke-linejoin="round" stroke-width="2"/>
        </g>
        <g id="Graphic_115">
          <rect x="-93.29492" y="840.2461" width="25" height="32" fill="#dae9fc"/>
          <text transform="translate(-88.29492 845.2461)" fill="black"/>
        </g>
      </g>
      <g id="Group_111">
        <g id="Graphic_113">
          <path d="M -86.81777 758.9707 L -74.77207 758.9707 C -70.75684 758.9707 -68.74922 758.9707 -66.34008 759.9407 C -64.33246 760.9107 -62.324844 763.3357 -61.5218 765.7607 C -60.71875 768.6707 -60.71875 771.0957 -60.71875 775.9457 L -60.71875 790.4957 C -60.71875 795.3457 -60.71875 797.7707 -61.5218 800.6807 C -62.324844 803.1057 -64.33246 805.5307 -66.34008 806.5007 C -68.74922 807.4707 -70.75684 807.4707 -74.77207 807.4707 L -86.81777 807.4707 C -90.83301 807.4707 -92.84062 807.4707 -95.24977 806.5007 C -97.25738 805.5307 -99.265 803.1057 -100.06805 800.6807 C -100.87109 797.7707 -100.87109 795.3457 -100.87109 790.4957 L -100.87109 775.9457 C -100.87109 771.0957 -100.87109 768.6707 -100.06805 765.7607 C -99.265 763.3357 -97.25738 760.9107 -95.24977 759.9407 C -92.84062 758.9707 -90.83301 758.9707 -86.81777 758.9707 M -86.81777 758.9707" fill="#dae9fc"/>
          <path d="M -86.81777 758.9707 L -74.77207 758.9707 C -70.75684 758.9707 -68.74922 758.9707 -66.34008 759.9407 C -64.33246 760.9107 -62.324844 763.3357 -61.5218 765.7607 C -60.71875 768.6707 -60.71875 771.0957 -60.71875 775.9457 L -60.71875 790.4957 C -60.71875 795.3457 -60.71875 797.7707 -61.5218 800.6807 C -62.324844 803.1057 -64.33246 805.5307 -66.34008 806.5007 C -68.74922 807.4707 -70.75684 807.4707 -74.77207 807.4707 L -86.81777 807.4707 C -90.83301 807.4707 -92.84062 807.4707 -95.24977 806.5007 C -97.25738 805.5307 -99.265 803.1057 -100.06805 800.6807 C -100.87109 797.7707 -100.87109 795.3457 -100.87109 790.4957 L -100.87109 775.9457 C -100.87109 771.0957 -100.87109 768.6707 -100.06805 765.7607 C -99.265 763.3357 -97.25738 760.9107 -95.24977 759.9407 C -92.84062 758.9707 -90.83301 758.9707 -86.81777 758.9707 M -86.81777 758.9707" stroke="#a5a5a5" stroke-linecap="round" stroke-linejoin="round" stroke-width="2"/>
        </g>
        <g id="Graphic_112">
          <rect x="-91.29492" y="767.5293" width="23" height="31.5" fill="#dae9fc"/>
          <text transform="translate(-86.29492 772.5293)" fill="black"/>
        </g>
      </g>
      <g id="Group_108">
        <g id="Graphic_110">
          <path d="M -86.87109 685.2539 L -74.87109 685.2539 C -70.87109 685.2539 -68.87109 685.2539 -66.47109 686.2339 C -64.47109 687.2139 -62.471094 689.6639 -61.671094 692.1139 C -60.871094 695.0539 -60.871094 697.5039 -60.871094 702.4039 L -60.871094 717.1039 C -60.871094 722.0039 -60.871094 724.4539 -61.671094 727.3939 C -62.471094 729.8439 -64.47109 732.2939 -66.47109 733.2739 C -68.87109 734.2539 -70.87109 734.2539 -74.87109 734.2539 L -86.87109 734.2539 C -90.87109 734.2539 -92.87109 734.2539 -95.27109 733.2739 C -97.27109 732.2939 -99.27109 729.8439 -100.07109 727.3939 C -100.87109 724.4539 -100.87109 722.0039 -100.87109 717.1039 L -100.87109 702.4039 C -100.87109 697.5039 -100.87109 695.0539 -100.07109 692.1139 C -99.27109 689.6639 -97.27109 687.2139 -95.27109 686.2339 C -92.87109 685.2539 -90.87109 685.2539 -86.87109 685.2539 M -86.87109 685.2539" fill="#dae9fc"/>
          <path d="M -86.87109 685.2539 L -74.87109 685.2539 C -70.87109 685.2539 -68.87109 685.2539 -66.47109 686.2339 C -64.47109 687.2139 -62.471094 689.6639 -61.671094 692.1139 C -60.871094 695.0539 -60.871094 697.5039 -60.871094 702.4039 L -60.871094 717.1039 C -60.871094 722.0039 -60.871094 724.4539 -61.671094 727.3939 C -62.471094 729.8439 -64.47109 732.2939 -66.47109 733.2739 C -68.87109 734.2539 -70.87109 734.2539 -74.87109 734.2539 L -86.87109 734.2539 C -90.87109 734.2539 -92.87109 734.2539 -95.27109 733.2739 C -97.27109 732.2939 -99.27109 729.8439 -100.07109 727.3939 C -100.87109 724.4539 -100.87109 722.0039 -100.87109 717.1039 L -100.87109 702.4039 C -100.87109 697.5039 -100.87109 695.0539 -100.07109 692.1139 C -99.27109 689.6639 -97.27109 687.2139 -95.27109 686.2339 C -92.87109 685.2539 -90.87109 685.2539 -86.87109 685.2539 M -86.87109 685.2539" stroke="#a5a5a5" stroke-linecap="round" stroke-linejoin="round" stroke-width="2"/>
        </g>
        <g id="Graphic_109">
          <rect x="-93.13086" y="693.7539" width="25" height="31.5" fill="#dae9fc"/>
          <text transform="translate(-88.13086 698.7539)" fill="black"/>
        </g>
      </g>
      <g id="Line_107">
        <path d="M -124.4618 921.7422 L -124.4618 716.7422 C -124.4618 713.9808 -122.22322 711.7422 -119.4618 711.7422 L -110.92344 711.7422" marker-end="url(#FilledArrow_Marker_2)" stroke="black" stroke-linecap="round" stroke-linejoin="round" stroke-width="1"/>
      </g>
      <g id="Line_106">
        <path d="M -124.55469 923.7422 L -124.55469 788.7422 C -124.55469 785.9808 -122.31611 783.7422 -119.55469 783.7422 L -110.92344 783.7422" marker-end="url(#FilledArrow_Marker_2)" stroke="black" stroke-linecap="round" stroke-linejoin="round" stroke-width="1"/>
      </g>
      <g id="Line_105">
        <path d="M -124.55469 921.7422 L -124.55469 863.4036 C -124.55469 860.6421 -122.31611 858.4036 -119.55469 858.4036 L -110.92344 858.4036" marker-end="url(#FilledArrow_Marker_2)" stroke="black" stroke-linecap="round" stroke-linejoin="round" stroke-width="1"/>
      </g>
      <g id="Line_104">
        <line x1="-124.55469" y1="923.7422" x2="-63.886325" y2="923.6859" marker-end="url(#FilledArrow_Marker)" stroke="black" stroke-linecap="round" stroke-linejoin="round" stroke-width="1"/>
      </g>
      <g id="Line_103">
        <path d="M -36.98633 897.7969 L -36.98633 716.4401 C -36.98633 713.6787 -39.224904 711.4401 -41.98633 711.4401 L -58.53746 711.4401 C -58.9364 711.4401 -59.33391 711.48785 -59.7215 711.5823 L -60.37738 711.7422" stroke="black" stroke-linecap="round" stroke-linejoin="round" stroke-width="1"/>
      </g>
      <g id="Line_102">
        <path d="M -60.470274 783.7422 L -59.04422 783.8919 C -58.87076 783.9101 -58.69647 783.9193 -58.52206 783.9193 L -41.98633 783.9193 C -39.224904 783.9193 -36.98633 786.15785 -36.98633 788.9193 L -36.98633 883.2778" stroke="black" stroke-linecap="round" stroke-linejoin="round" stroke-width="1"/>
      </g>
      <g id="Group_99">
        <g id="Graphic_101">
          <circle cx="-36.98633" cy="923.6609" r="18.0000287622342" fill="#e3d5e8"/>
          <circle cx="-36.98633" cy="923.6609" r="18.0000287622342" stroke="#a5a5a5" stroke-linecap="round" stroke-linejoin="round" stroke-width="2"/>
        </g>
        <g id="Graphic_100">
          <text transform="translate(-45.746094 902.7969)" fill="black">
            <tspan font-family="Helvetica" font-size="30" fill="black" x="0" y="29" xml:space="preserve">+</tspan>
          </text>
        </g>
      </g>
      <g id="Line_98">
        <line x1="-17.986589" y1="923.7625" x2="58.80353" y2="924.173" marker-end="url(#FilledArrow_Marker)" stroke="black" stroke-linecap="round" stroke-linejoin="round" stroke-width="1"/>
      </g>
      <g id="Line_97">
        <path d="M -4.940104 923.7422 L -4.940104 788.7422 C -4.940104 785.9808 -2.701528 783.7422 .05989583 783.7422 L 8.691146 783.7422" marker-end="url(#FilledArrow_Marker_2)" stroke="black" stroke-linecap="round" stroke-linejoin="round" stroke-width="1"/>
      </g>
      <g id="Line_96">
        <path d="M 64.091146 783.7422 C 64.51044 783.52655 64.97513 783.4141 65.44662 783.4141 L 82.703125 783.4141 C 85.46455 783.4141 87.70313 785.6526 87.70313 788.4141 L 87.70313 897.4275" marker-end="url(#FilledArrow_Marker_2)" stroke="black" stroke-linecap="round" stroke-linejoin="round" stroke-width="1"/>
      </g>
      <g id="Line_95">
        <path d="M -60.566406 858.4036 L -59.983535 858.3873 C -59.93722 858.3861 -59.890894 858.3854 -59.84456 858.3854 L -41.98633 858.3854 C -39.224904 858.3854 -36.98633 860.624 -36.98633 863.3854 L -36.98633 896.7609" marker-end="url(#FilledArrow_Marker_2)" stroke="black" stroke-linecap="round" stroke-linejoin="round" stroke-width="1"/>
      </g>
      <g id="Line_94">
        <line x1="-171.5918" y1="923.3769" x2="-124.55469" y2="923.7422" stroke="black" stroke-linecap="round" stroke-linejoin="round" stroke-dasharray="4.0,4.0" stroke-width="1"/>
      </g>
      <g id="Line_93">
        <line x1="-171.5918" y1="923.3769" x2="-158.3129" y2="923.48" marker-end="url(#FilledArrow_Marker)" stroke="black" stroke-linecap="round" stroke-linejoin="round" stroke-width="1"/>
      </g>
      <g id="Line_92">
        <line x1="106.70313" y1="924.3364" x2="155.8151" y2="924.3594" stroke="black" stroke-linecap="round" stroke-linejoin="round" stroke-dasharray="4.0,4.0" stroke-width="1"/>
      </g>
      <g id="Line_91">
        <line x1="131.87034" y1="924.3482" x2="147.9151" y2="924.3557" marker-end="url(#FilledArrow_Marker)" stroke="black" stroke-linecap="round" stroke-linejoin="round" stroke-width="1"/>
      </g>
      <g id="Group_485">
        <g id="Group_486">
          <title>glyph-0-0</title>
          <g id="Graphic_487">
            <path d="M 140.92969 1044.2881 C 141.36719 1043.5069 141.80469 1042.8506 142.92969 1042.7725 C 143.10156 1042.7412 143.27344 1042.7412 143.27344 1042.4131 C 143.27344 1042.335 143.21094 1042.21 143.05469 1042.21 C 142.63281 1042.21 142.13281 1042.2569 141.67969 1042.2569 C 141.07031 1042.2569 140.39844 1042.21 139.82031 1042.21 C 139.71094 1042.21 139.47656 1042.21 139.47656 1042.5537 C 139.47656 1042.7412 139.63281 1042.7725 139.74219 1042.7725 C 140.16406 1042.7881 140.80469 1042.9287 140.80469 1043.46 C 140.80469 1043.6631 140.71094 1043.8037 140.57031 1044.0537 L 135.72656 1052.5069 L 135.05469 1043.6006 C 135.03906 1043.2569 135.00781 1042.7881 136.32031 1042.7725 C 136.61719 1042.7725 136.80469 1042.7725 136.80469 1042.4131 C 136.80469 1042.2256 136.60156 1042.21 136.52344 1042.21 C 135.82031 1042.21 135.05469 1042.2569 134.33594 1042.2569 C 133.92969 1042.2569 132.86719 1042.21 132.46094 1042.21 C 132.35156 1042.21 132.11719 1042.21 132.11719 1042.5694 C 132.11719 1042.7725 132.30469 1042.7725 132.55469 1042.7725 C 133.33594 1042.7725 133.46094 1042.8662 133.49219 1043.21 L 133.60156 1044.6006 L 129.07031 1052.5069 L 128.38281 1043.4131 C 128.38281 1043.1944 128.38281 1042.7881 129.75781 1042.7725 C 129.92969 1042.7725 130.13281 1042.7725 130.13281 1042.4131 C 130.13281 1042.21 129.91406 1042.21 129.88281 1042.21 C 129.16406 1042.21 128.39844 1042.2569 127.66406 1042.2569 C 127.03906 1042.2569 126.39844 1042.21 125.78906 1042.21 C 125.69531 1042.21 125.46094 1042.21 125.46094 1042.5537 C 125.46094 1042.7725 125.61719 1042.7725 125.91406 1042.7725 C 126.80469 1042.7725 126.82031 1042.9287 126.86719 1043.4287 L 127.66406 1054.3819 C 127.67969 1054.71 127.71094 1054.8506 127.96094 1054.8506 C 128.16406 1054.8506 128.22656 1054.7412 128.38281 1054.4756 L 133.66406 1045.335 L 134.32031 1054.3819 C 134.36719 1054.7725 134.39844 1054.8506 134.61719 1054.8506 C 134.85156 1054.8506 134.94531 1054.6787 135.03906 1054.5069 L 140.92969 1044.2881" fill="black"/>
          </g>
        </g>
      </g>
      <g id="Group_480">
        <g id="Group_483">
          <title>glyph-1-0</title>
          <g id="Graphic_484">
            <path d="M 144.22526 1054.2916 C 144.56901 1054.2916 145.56901 1054.2604 146.24089 1054.026 C 147.17839 1053.6979 147.35026 1053.1041 147.35026 1052.7291 C 147.35026 1052.026 146.66276 1051.6197 145.78776 1051.6197 C 144.28776 1051.6197 142.25651 1052.776 142.25651 1054.9166 C 142.25651 1056.1822 143.03776 1057.276 144.50651 1057.276 C 146.63151 1057.276 147.61589 1056.0416 147.61589 1055.8541 C 147.61589 1055.776 147.50651 1055.651 147.41276 1055.651 C 147.33464 1055.651 147.30339 1055.6666 147.20964 1055.776 C 146.22526 1056.9322 144.75651 1056.9322 144.53776 1056.9322 C 143.78776 1056.9322 143.28776 1056.4166 143.28776 1055.401 C 143.28776 1055.2291 143.28776 1054.9791 143.42839 1054.2916 L 144.22526 1054.2916 M 143.53776 1053.9322 C 144.05339 1052.1197 145.44401 1051.9635 145.78776 1051.9635 C 146.35026 1051.9635 146.80339 1052.2447 146.80339 1052.7291 C 146.80339 1053.9322 144.69401 1053.9322 144.14714 1053.9322 L 143.53776 1053.9322" fill="black"/>
          </g>
        </g>
        <g id="Group_481">
          <title>glyph-1-1</title>
          <g id="Graphic_482">
            <path d="M 149.74765 1056.3541 C 149.70078 1056.526 149.62265 1056.8385 149.62265 1056.8697 C 149.62265 1057.151 149.8414 1057.276 150.04453 1057.276 C 150.2789 1057.276 150.48203 1057.1197 150.54453 1056.9947 C 150.60703 1056.8854 150.70078 1056.4791 150.76328 1056.2291 C 150.82578 1055.9791 150.9664 1055.401 151.04453 1055.0885 C 151.10703 1054.8229 151.18515 1054.5416 151.24765 1054.2604 C 151.38828 1053.7447 151.41953 1053.6354 151.7789 1053.1197 C 152.13828 1052.6197 152.7164 1051.9635 153.6539 1051.9635 C 154.38828 1051.9635 154.4039 1052.6041 154.4039 1052.8541 C 154.4039 1053.6041 153.85703 1054.9947 153.6539 1055.526 C 153.5289 1055.8697 153.4664 1055.9791 153.4664 1056.1979 C 153.4664 1056.8697 154.0289 1057.276 154.66953 1057.276 C 155.91953 1057.276 156.4664 1055.5416 156.4664 1055.3541 C 156.4664 1055.1979 156.31015 1055.1979 156.2789 1055.1979 C 156.0914 1055.1979 156.07578 1055.276 156.0289 1055.401 C 155.74765 1056.4166 155.20078 1056.9322 154.70078 1056.9322 C 154.43515 1056.9322 154.38828 1056.7447 154.38828 1056.4791 C 154.38828 1056.1979 154.45078 1056.0416 154.68515 1055.4635 C 154.82578 1055.0885 155.3414 1053.7447 155.3414 1053.0416 C 155.3414 1051.8385 154.37265 1051.6197 153.7164 1051.6197 C 152.66953 1051.6197 151.9664 1052.2604 151.5914 1052.7604 C 151.49765 1051.901 150.76328 1051.6197 150.24765 1051.6197 C 149.7164 1051.6197 149.41953 1052.0104 149.26328 1052.2916 C 148.98203 1052.7604 148.81015 1053.4791 148.81015 1053.5416 C 148.81015 1053.6979 148.98203 1053.6979 149.01328 1053.6979 C 149.20078 1053.6979 149.20078 1053.6666 149.29453 1053.3229 C 149.48203 1052.5885 149.7164 1051.9635 150.2164 1051.9635 C 150.54453 1051.9635 150.62265 1052.2447 150.62265 1052.5885 C 150.62265 1052.8229 150.51328 1053.2916 150.41953 1053.6197 C 150.3414 1053.9635 150.2164 1054.4791 150.1539 1054.7604 L 149.74765 1056.3541" fill="black"/>
          </g>
        </g>
      </g>
      <g id="Group_477">
        <g id="Group_478">
          <title>glyph-1-2</title>
          <g id="Graphic_479">
            <path d="M 162.58122 1052.3385 C 162.1281 1052.4166 161.9406 1052.776 161.9406 1053.0416 C 161.9406 1053.3854 162.20622 1053.5104 162.42497 1053.5104 C 162.70622 1053.5104 163.14372 1053.3072 163.14372 1052.7135 C 163.14372 1051.8541 162.15934 1051.6197 161.48747 1051.6197 C 159.59684 1051.6197 157.86247 1053.3541 157.86247 1055.0885 C 157.86247 1056.1666 158.61247 1057.276 160.17497 1057.276 C 162.29997 1057.276 163.28434 1056.0416 163.28434 1055.8541 C 163.28434 1055.776 163.17497 1055.651 163.08122 1055.651 C 163.0031 1055.651 162.97184 1055.6666 162.8781 1055.776 C 161.89372 1056.9322 160.42497 1056.9322 160.20622 1056.9322 C 159.29997 1056.9322 158.89372 1056.3072 158.89372 1055.526 C 158.89372 1055.1666 159.08122 1053.8072 159.72184 1052.9322 C 160.20622 1052.3229 160.86247 1051.9635 161.48747 1051.9635 C 161.65934 1051.9635 162.26872 1051.9947 162.58122 1052.3385" fill="black"/>
          </g>
        </g>
      </g>
      <g id="Graphic_488">
        <text transform="translate(20.92448 1104.243)" fill="black">
          <tspan font-family="Helvetica" font-size="16" fill="black" x="0" y="15" xml:space="preserve">Sparse Autoencoder</tspan>
        </text>
      </g>
    </g>
    <g id="SAE_Layer_1">
      <title>Layer 1</title>
      <g id="Line_405">
        <line x1="42.833333" y1="880.9375" x2="42.95405" y2="1014.7367" marker-end="url(#FilledArrow_Marker)" stroke="black" stroke-linecap="round" stroke-linejoin="round" stroke-width="1"/>
      </g>
      <g id="Graphic_432">
        <path d="M -86.81777 832.4375 L -74.77207 832.4375 C -70.75684 832.4375 -68.74922 832.4375 -66.34008 833.4075 C -64.33246 834.3775 -62.324844 836.8025 -61.5218 839.2275 C -60.71875 842.1375 -60.71875 844.5625 -60.71875 849.4125 L -60.71875 863.9625 C -60.71875 868.8125 -60.71875 871.2375 -61.5218 874.1475 C -62.324844 876.5725 -64.33246 878.9975 -66.34008 879.9675 C -68.74922 880.9375 -70.75684 880.9375 -74.77207 880.9375 L -86.81777 880.9375 C -90.83301 880.9375 -92.84062 880.9375 -95.24977 879.9675 C -97.25738 878.9975 -99.265 876.5725 -100.06805 874.1475 C -100.87109 871.2375 -100.87109 868.8125 -100.87109 863.9625 L -100.87109 849.4125 C -100.87109 844.5625 -100.87109 842.1375 -100.06805 839.2275 C -99.265 836.8025 -97.25738 834.3775 -95.24977 833.4075 C -92.84062 832.4375 -90.83301 832.4375 -86.81777 832.4375 M -86.81777 832.4375" fill="#dae9fc"/>
        <path d="M -86.81777 832.4375 L -74.77207 832.4375 C -70.75684 832.4375 -68.74922 832.4375 -66.34008 833.4075 C -64.33246 834.3775 -62.324844 836.8025 -61.5218 839.2275 C -60.71875 842.1375 -60.71875 844.5625 -60.71875 849.4125 L -60.71875 863.9625 C -60.71875 868.8125 -60.71875 871.2375 -61.5218 874.1475 C -62.324844 876.5725 -64.33246 878.9975 -66.34008 879.9675 C -68.74922 880.9375 -70.75684 880.9375 -74.77207 880.9375 L -86.81777 880.9375 C -90.83301 880.9375 -92.84062 880.9375 -95.24977 879.9675 C -97.25738 878.9975 -99.265 876.5725 -100.06805 874.1475 C -100.87109 871.2375 -100.87109 868.8125 -100.87109 863.9625 L -100.87109 849.4125 C -100.87109 844.5625 -100.87109 842.1375 -100.06805 839.2275 C -99.265 836.8025 -97.25738 834.3775 -95.24977 833.4075 C -92.84062 832.4375 -90.83301 832.4375 -86.81777 832.4375 M -86.81777 832.4375" stroke="#a5a5a5" stroke-linecap="round" stroke-linejoin="round" stroke-width="2"/>
      </g>
      <g id="Graphic_431">
        <path d="M -86.81777 759.2207 L -74.77207 759.2207 C -70.75684 759.2207 -68.74922 759.2207 -66.34008 760.1907 C -64.33246 761.1607 -62.324844 763.5857 -61.5218 766.0107 C -60.71875 768.9207 -60.71875 771.3457 -60.71875 776.1957 L -60.71875 790.7457 C -60.71875 795.5957 -60.71875 798.0207 -61.5218 800.9307 C -62.324844 803.3557 -64.33246 805.7807 -66.34008 806.7507 C -68.74922 807.7207 -70.75684 807.7207 -74.77207 807.7207 L -86.81777 807.7207 C -90.83301 807.7207 -92.84062 807.7207 -95.24977 806.7507 C -97.25738 805.7807 -99.265 803.3557 -100.06805 800.9307 C -100.87109 798.0207 -100.87109 795.5957 -100.87109 790.7457 L -100.87109 776.1957 C -100.87109 771.3457 -100.87109 768.9207 -100.06805 766.0107 C -99.265 763.5857 -97.25738 761.1607 -95.24977 760.1907 C -92.84062 759.2207 -90.83301 759.2207 -86.81777 759.2207 M -86.81777 759.2207" fill="#dae9fc"/>
        <path d="M -86.81777 759.2207 L -74.77207 759.2207 C -70.75684 759.2207 -68.74922 759.2207 -66.34008 760.1907 C -64.33246 761.1607 -62.324844 763.5857 -61.5218 766.0107 C -60.71875 768.9207 -60.71875 771.3457 -60.71875 776.1957 L -60.71875 790.7457 C -60.71875 795.5957 -60.71875 798.0207 -61.5218 800.9307 C -62.324844 803.3557 -64.33246 805.7807 -66.34008 806.7507 C -68.74922 807.7207 -70.75684 807.7207 -74.77207 807.7207 L -86.81777 807.7207 C -90.83301 807.7207 -92.84062 807.7207 -95.24977 806.7507 C -97.25738 805.7807 -99.265 803.3557 -100.06805 800.9307 C -100.87109 798.0207 -100.87109 795.5957 -100.87109 790.7457 L -100.87109 776.1957 C -100.87109 771.3457 -100.87109 768.9207 -100.06805 766.0107 C -99.265 763.5857 -97.25738 761.1607 -95.24977 760.1907 C -92.84062 759.2207 -90.83301 759.2207 -86.81777 759.2207 M -86.81777 759.2207" stroke="#a5a5a5" stroke-linecap="round" stroke-linejoin="round" stroke-width="2"/>
      </g>
      <g id="Graphic_430">
        <path d="M -86.87109 685.5039 L -74.87109 685.5039 C -70.87109 685.5039 -68.87109 685.5039 -66.47109 686.4839 C -64.47109 687.4639 -62.471094 689.9139 -61.671094 692.3639 C -60.871094 695.3039 -60.871094 697.7539 -60.871094 702.6539 L -60.871094 717.3539 C -60.871094 722.2539 -60.871094 724.7039 -61.671094 727.6439 C -62.471094 730.0939 -64.47109 732.5439 -66.47109 733.5239 C -68.87109 734.5039 -70.87109 734.5039 -74.87109 734.5039 L -86.87109 734.5039 C -90.87109 734.5039 -92.87109 734.5039 -95.27109 733.5239 C -97.27109 732.5439 -99.27109 730.0939 -100.07109 727.6439 C -100.87109 724.7039 -100.87109 722.2539 -100.87109 717.3539 L -100.87109 702.6539 C -100.87109 697.7539 -100.87109 695.3039 -100.07109 692.3639 C -99.27109 689.9139 -97.27109 687.4639 -95.27109 686.4839 C -92.87109 685.5039 -90.87109 685.5039 -86.87109 685.5039 M -86.87109 685.5039" fill="#dae9fc"/>
        <path d="M -86.87109 685.5039 L -74.87109 685.5039 C -70.87109 685.5039 -68.87109 685.5039 -66.47109 686.4839 C -64.47109 687.4639 -62.471094 689.9139 -61.671094 692.3639 C -60.871094 695.3039 -60.871094 697.7539 -60.871094 702.6539 L -60.871094 717.3539 C -60.871094 722.2539 -60.871094 724.7039 -61.671094 727.6439 C -62.471094 730.0939 -64.47109 732.5439 -66.47109 733.5239 C -68.87109 734.5039 -70.87109 734.5039 -74.87109 734.5039 L -86.87109 734.5039 C -90.87109 734.5039 -92.87109 734.5039 -95.27109 733.5239 C -97.27109 732.5439 -99.27109 730.0939 -100.07109 727.6439 C -100.87109 724.7039 -100.87109 722.2539 -100.87109 717.3539 L -100.87109 702.6539 C -100.87109 697.7539 -100.87109 695.3039 -100.07109 692.3639 C -99.27109 689.9139 -97.27109 687.4639 -95.27109 686.4839 C -92.87109 685.5039 -90.87109 685.5039 -86.87109 685.5039 M -86.87109 685.5039" stroke="#a5a5a5" stroke-linecap="round" stroke-linejoin="round" stroke-width="2"/>
      </g>
      <g id="Group_427">
        <g id="Group_428">
          <title>glyph-0-0</title>
          <g id="Graphic_429">
            <path d="M -84.80055 848.3566 C -84.80055 848.3409 -84.80055 848.1378 -85.06617 848.1378 C -85.5193 848.1378 -86.97242 848.2941 -87.48805 848.3409 C -87.6443 848.3566 -87.86305 848.3722 -87.86305 848.7316 C -87.86305 848.9816 -87.69117 848.9816 -87.3943 848.9816 C -86.44117 848.9816 -86.3943 849.1222 -86.3943 849.3097 L -86.4568 849.7159 L -89.34742 861.1847 C -89.42555 861.4659 -89.42555 861.5128 -89.42555 861.6222 C -89.42555 862.0909 -89.0193 862.1847 -88.84742 862.1847 C -88.53492 862.1847 -88.2068 861.9503 -88.11305 861.6691 L -87.73805 860.1534 L -87.28492 858.3566 C -87.17555 857.9191 -87.05055 857.4816 -86.9568 857.0284 C -86.90992 856.9034 -86.75367 856.2472 -86.73805 856.1222 C -86.67555 855.9503 -86.05055 854.8409 -85.37867 854.2941 C -84.94117 853.9816 -84.31617 853.6066 -83.47242 853.6066 C -82.61305 853.6066 -82.3943 854.2784 -82.3943 854.9972 C -82.3943 856.0753 -83.1443 858.2472 -83.62867 859.4503 C -83.78492 859.9191 -83.87867 860.1534 -83.87867 860.5441 C -83.87867 861.4816 -83.19117 862.1847 -82.25367 862.1847 C -80.37867 862.1847 -79.6443 859.2784 -79.6443 859.1222 C -79.6443 858.9191 -79.81617 858.9191 -79.87867 858.9191 C -80.0818 858.9191 -80.0818 858.9816 -80.17555 859.2784 C -80.47242 860.3253 -81.11305 861.7472 -82.2068 861.7472 C -82.55055 861.7472 -82.69117 861.5441 -82.69117 861.0909 C -82.69117 860.5909 -82.50367 860.1066 -82.3318 859.6691 C -82.0193 858.8253 -81.11305 856.4503 -81.11305 855.2941 C -81.11305 853.9972 -81.90992 853.1534 -83.40992 853.1534 C -84.65992 853.1534 -85.61305 853.7784 -86.36305 854.7003 L -84.80055 848.3566" fill="black"/>
          </g>
        </g>
      </g>
      <g id="Group_424">
        <g id="Group_425">
          <title>glyph-1-0</title>
          <g id="Graphic_426">
            <path d="M -71.83617 860.5028 C -71.83617 858.9716 -72.02367 857.8622 -72.6643 856.8934 C -73.1018 856.2528 -73.96117 855.6903 -75.07055 855.6903 C -78.32055 855.6903 -78.32055 859.5028 -78.32055 860.5028 C -78.32055 861.5028 -78.32055 865.2372 -75.07055 865.2372 C -71.83617 865.2372 -71.83617 861.5028 -71.83617 860.5028 M -75.07055 864.8466 C -75.71117 864.8466 -76.57055 864.4716 -76.8518 863.3309 C -77.0393 862.5028 -77.0393 861.3622 -77.0393 860.3309 C -77.0393 859.2997 -77.0393 858.2372 -76.83617 857.4716 C -76.5393 856.3778 -75.64867 856.0809 -75.07055 856.0809 C -74.32055 856.0809 -73.6018 856.5497 -73.3518 857.3466 C -73.11742 858.1122 -73.1018 859.1122 -73.1018 860.3309 C -73.1018 861.3622 -73.1018 862.3934 -73.2893 863.2684 C -73.57055 864.5341 -74.52367 864.8466 -75.07055 864.8466" fill="black"/>
          </g>
        </g>
      </g>
      <g id="Group_421">
        <g id="Group_422">
          <title>glyph-0-0</title>
          <g id="Graphic_423">
            <path d="M -84.80055 775.2804 C -84.80055 775.2648 -84.80055 775.0616 -85.06617 775.0616 C -85.5193 775.0616 -86.97242 775.2179 -87.48805 775.2648 C -87.6443 775.2804 -87.86305 775.296 -87.86305 775.6554 C -87.86305 775.9054 -87.69117 775.9054 -87.3943 775.9054 C -86.44117 775.9054 -86.3943 776.046 -86.3943 776.2335 L -86.4568 776.6398 L -89.34742 788.1085 C -89.42555 788.3898 -89.42555 788.4366 -89.42555 788.546 C -89.42555 789.0148 -89.0193 789.1085 -88.84742 789.1085 C -88.53492 789.1085 -88.2068 788.8741 -88.11305 788.5929 L -87.73805 787.0773 L -87.28492 785.2804 C -87.17555 784.8429 -87.05055 784.4054 -86.9568 783.9523 C -86.90992 783.8273 -86.75367 783.171 -86.73805 783.046 C -86.67555 782.8741 -86.05055 781.7648 -85.37867 781.2179 C -84.94117 780.9054 -84.31617 780.5304 -83.47242 780.5304 C -82.61305 780.5304 -82.3943 781.2023 -82.3943 781.921 C -82.3943 782.9991 -83.1443 785.171 -83.62867 786.3741 C -83.78492 786.8429 -83.87867 787.0773 -83.87867 787.4679 C -83.87867 788.4054 -83.19117 789.1085 -82.25367 789.1085 C -80.37867 789.1085 -79.6443 786.2023 -79.6443 786.046 C -79.6443 785.8429 -79.81617 785.8429 -79.87867 785.8429 C -80.0818 785.8429 -80.0818 785.9054 -80.17555 786.2023 C -80.47242 787.2491 -81.11305 788.671 -82.2068 788.671 C -82.55055 788.671 -82.69117 788.4679 -82.69117 788.0148 C -82.69117 787.5148 -82.50367 787.0304 -82.3318 786.5929 C -82.0193 785.7491 -81.11305 783.3741 -81.11305 782.2179 C -81.11305 780.921 -81.90992 780.0773 -83.40992 780.0773 C -84.65992 780.0773 -85.61305 780.7023 -86.36305 781.6241 L -84.80055 775.2804" fill="black"/>
          </g>
        </g>
      </g>
      <g id="Group_418">
        <g id="Group_419">
          <title>glyph-1-0</title>
          <g id="Graphic_420">
            <path d="M -74.36742 783.0048 C -74.36742 782.6298 -74.39867 782.6141 -74.7893 782.6141 C -75.67992 783.4891 -76.94555 783.5048 -77.52367 783.5048 L -77.52367 784.0048 C -77.17992 784.0048 -76.25805 784.0048 -75.49242 783.6141 L -75.49242 790.7391 C -75.49242 791.1923 -75.49242 791.3798 -76.88305 791.3798 L -77.4143 791.3798 L -77.4143 791.8798 C -77.1643 791.8641 -75.44555 791.8173 -74.92992 791.8173 C -74.50805 791.8173 -72.74242 791.8641 -72.44555 791.8798 L -72.44555 791.3798 L -72.9768 791.3798 C -74.36742 791.3798 -74.36742 791.1923 -74.36742 790.7391 L -74.36742 783.0048" fill="black"/>
          </g>
        </g>
      </g>
      <g id="Group_415">
        <g id="Group_416">
          <title>glyph-0-0</title>
          <g id="Graphic_417">
            <path d="M -84.88648 701.8136 C -84.88648 701.798 -84.88648 701.59484 -85.15211 701.59484 C -85.60523 701.59484 -87.05836 701.7511 -87.57398 701.798 C -87.73023 701.8136 -87.94898 701.8292 -87.94898 702.1886 C -87.94898 702.4386 -87.77711 702.4386 -87.48023 702.4386 C -86.52711 702.4386 -86.48023 702.5792 -86.48023 702.7667 L -86.54273 703.173 L -89.43336 714.6417 C -89.51148 714.923 -89.51148 714.96984 -89.51148 715.0792 C -89.51148 715.548 -89.10523 715.6417 -88.93336 715.6417 C -88.62086 715.6417 -88.29273 715.40734 -88.19898 715.1261 L -87.82398 713.6105 L -87.37086 711.8136 C -87.26148 711.3761 -87.13648 710.9386 -87.04273 710.4855 C -86.99586 710.3605 -86.83961 709.7042 -86.82398 709.5792 C -86.76148 709.40734 -86.13648 708.298 -85.46461 707.7511 C -85.02711 707.4386 -84.40211 707.0636 -83.55836 707.0636 C -82.69898 707.0636 -82.48023 707.7355 -82.48023 708.4542 C -82.48023 709.53234 -83.23023 711.7042 -83.71461 712.90734 C -83.87086 713.3761 -83.96461 713.6105 -83.96461 714.0011 C -83.96461 714.9386 -83.27711 715.6417 -82.33961 715.6417 C -80.46461 715.6417 -79.73023 712.7355 -79.73023 712.5792 C -79.73023 712.3761 -79.90211 712.3761 -79.96461 712.3761 C -80.16773 712.3761 -80.16773 712.4386 -80.26148 712.7355 C -80.55836 713.78234 -81.19898 715.2042 -82.29273 715.2042 C -82.63648 715.2042 -82.77711 715.0011 -82.77711 714.548 C -82.77711 714.048 -82.58961 713.5636 -82.41773 713.1261 C -82.10523 712.28234 -81.19898 709.90734 -81.19898 708.7511 C -81.19898 707.4542 -81.99586 706.6105 -83.49586 706.6105 C -84.74586 706.6105 -85.69898 707.2355 -86.44898 708.15734 L -84.88648 701.8136" fill="black"/>
          </g>
        </g>
      </g>
      <g id="Group_412">
        <g id="Group_413">
          <title>glyph-1-0</title>
          <g id="Graphic_414">
            <path d="M -72.07836 715.8661 L -72.54711 715.8661 C -72.593984 716.1786 -72.73461 717.0067 -72.92211 717.14734 C -73.031484 717.2255 -74.10961 717.2255 -74.29711 717.2255 L -76.85961 717.2255 C -75.40648 715.9286 -74.90648 715.538 -74.07836 714.8817 C -73.04711 714.0536 -72.07836 713.1942 -72.07836 711.8661 C -72.07836 710.1786 -73.56273 709.14734 -75.34398 709.14734 C -77.07836 709.14734 -78.25023 710.3661 -78.25023 711.64734 C -78.25023 712.3505 -77.64086 712.4286 -77.50023 712.4286 C -77.17211 712.4286 -76.76586 712.1942 -76.76586 711.6942 C -76.76586 711.4286 -76.85961 710.9442 -77.59398 710.9442 C -77.15648 709.95984 -76.20336 709.64734 -75.54711 709.64734 C -74.15648 709.64734 -73.43773 710.7411 -73.43773 711.8661 C -73.43773 713.08484 -74.29711 714.038 -74.75023 714.5536 L -78.10961 717.8661 C -78.25023 717.9911 -78.25023 718.02234 -78.25023 718.413 L -72.500234 718.413 L -72.07836 715.8661" fill="black"/>
          </g>
        </g>
      </g>
      <g id="Group_474">
        <g id="Group_475">
          <title>glyph-0-0</title>
          <g id="Graphic_476">
            <path d="M 369.81657 1042.9415 C 370.25407 1042.1603 370.69157 1041.504 371.81657 1041.4259 C 371.98844 1041.3947 372.1603 1041.3947 372.1603 1041.0665 C 372.1603 1040.9884 372.0978 1040.8634 371.94157 1040.8634 C 371.5197 1040.8634 371.0197 1040.9103 370.56657 1040.9103 C 369.9572 1040.9103 369.2853 1040.8634 368.7072 1040.8634 C 368.5978 1040.8634 368.36344 1040.8634 368.36344 1041.2072 C 368.36344 1041.3947 368.5197 1041.4259 368.62907 1041.4259 C 369.05094 1041.4415 369.69157 1041.5822 369.69157 1042.1134 C 369.69157 1042.3165 369.5978 1042.4572 369.4572 1042.7072 L 364.61344 1051.1603 L 363.94157 1042.254 C 363.92594 1041.9103 363.8947 1041.4415 365.2072 1041.4259 C 365.50407 1041.4259 365.69157 1041.4259 365.69157 1041.0665 C 365.69157 1040.879 365.48844 1040.8634 365.4103 1040.8634 C 364.7072 1040.8634 363.94157 1040.9103 363.2228 1040.9103 C 362.81657 1040.9103 361.75407 1040.8634 361.3478 1040.8634 C 361.23844 1040.8634 361.00407 1040.8634 361.00407 1041.2228 C 361.00407 1041.4259 361.19157 1041.4259 361.44157 1041.4259 C 362.2228 1041.4259 362.3478 1041.5197 362.37907 1041.8634 L 362.48844 1043.254 L 357.9572 1051.1603 L 357.2697 1042.0665 C 357.2697 1041.8478 357.2697 1041.4415 358.6447 1041.4259 C 358.81657 1041.4259 359.0197 1041.4259 359.0197 1041.0665 C 359.0197 1040.8634 358.80094 1040.8634 358.7697 1040.8634 C 358.05094 1040.8634 357.2853 1040.9103 356.55094 1040.9103 C 355.92594 1040.9103 355.2853 1040.8634 354.67594 1040.8634 C 354.5822 1040.8634 354.3478 1040.8634 354.3478 1041.2072 C 354.3478 1041.4259 354.50407 1041.4259 354.80094 1041.4259 C 355.69157 1041.4259 355.7072 1041.5822 355.75407 1042.0822 L 356.55094 1053.0353 C 356.56657 1053.3634 356.5978 1053.504 356.8478 1053.504 C 357.05094 1053.504 357.11344 1053.3947 357.2697 1053.129 L 362.55094 1043.9884 L 363.2072 1053.0353 C 363.25407 1053.4259 363.2853 1053.504 363.50407 1053.504 C 363.73844 1053.504 363.8322 1053.3322 363.92594 1053.1603 L 369.81657 1042.9415" fill="black"/>
          </g>
        </g>
      </g>
      <g id="Group_471">
        <g id="Group_472">
          <title>glyph-1-0</title>
          <g id="Graphic_473">
            <path d="M 377.4733 1047.4763 C 377.4733 1047.445 377.5202 1047.2888 377.5202 1047.2732 C 377.5202 1047.2107 377.4733 1047.1013 377.31707 1047.1013 C 377.06707 1047.1013 376.0202 1047.195 375.7077 1047.2263 C 375.61394 1047.2419 375.42644 1047.2419 375.42644 1047.5075 C 375.42644 1047.6794 375.61394 1047.6794 375.75457 1047.6794 C 376.36394 1047.6794 376.36394 1047.7732 376.36394 1047.8825 C 376.36394 1047.9607 376.3327 1048.0388 376.31707 1048.1482 L 375.5983 1051.0075 C 375.3327 1050.6013 374.9108 1050.2732 374.30144 1050.2732 C 372.69207 1050.2732 371.06707 1052.0388 371.06707 1053.8513 C 371.06707 1055.07 371.87957 1055.9294 372.9577 1055.9294 C 373.6452 1055.9294 374.23894 1055.5388 374.73894 1055.0544 C 374.98894 1055.8044 375.7077 1055.9294 376.0358 1055.9294 C 376.48894 1055.9294 376.80144 1055.6482 377.0202 1055.2575 C 377.30144 1054.7732 377.4733 1054.0544 377.4733 1054.0075 C 377.4733 1053.8513 377.30144 1053.8513 377.2702 1053.8513 C 377.0827 1053.8513 377.0827 1053.8982 376.98894 1054.2419 C 376.8327 1054.8357 376.5983 1055.5857 376.06707 1055.5857 C 375.73894 1055.5857 375.6608 1055.3044 375.6608 1054.9607 C 375.6608 1054.7263 375.67644 1054.6169 375.7233 1054.445 L 377.4733 1047.4763 M 374.7858 1054.2419 C 374.7077 1054.5857 374.42644 1054.8357 374.1608 1055.07 C 374.0358 1055.1794 373.5358 1055.5857 373.00457 1055.5857 C 372.5358 1055.5857 372.0827 1055.2575 372.0827 1054.3669 C 372.0827 1053.695 372.44207 1052.32 372.73894 1051.82 C 373.31707 1050.8044 373.9577 1050.6169 374.30144 1050.6169 C 375.17644 1050.6169 375.42644 1051.57 375.42644 1051.7107 C 375.42644 1051.7575 375.3952 1051.8513 375.37957 1051.8825 L 374.7858 1054.2419" fill="black"/>
          </g>
        </g>
      </g>
      <g id="Group_466">
        <g id="Group_469">
          <title>glyph-1-1</title>
          <g id="Graphic_470">
            <path d="M 380.5791 1052.945 C 380.92287 1052.945 381.92287 1052.9138 382.59474 1052.6794 C 383.53224 1052.3513 383.7041 1051.7575 383.7041 1051.3825 C 383.7041 1050.6794 383.0166 1050.2732 382.1416 1050.2732 C 380.6416 1050.2732 378.61037 1051.4294 378.61037 1053.57 C 378.61037 1054.8357 379.3916 1055.9294 380.86037 1055.9294 C 382.98537 1055.9294 383.96974 1054.695 383.96974 1054.5075 C 383.96974 1054.4294 383.86037 1054.3044 383.7666 1054.3044 C 383.6885 1054.3044 383.65724 1054.32 383.5635 1054.4294 C 382.5791 1055.5857 381.11037 1055.5857 380.8916 1055.5857 C 380.1416 1055.5857 379.6416 1055.07 379.6416 1054.0544 C 379.6416 1053.8825 379.6416 1053.6325 379.78224 1052.945 L 380.5791 1052.945 M 379.8916 1052.5857 C 380.40724 1050.7732 381.79787 1050.6169 382.1416 1050.6169 C 382.7041 1050.6169 383.15724 1050.8982 383.15724 1051.3825 C 383.15724 1052.5857 381.04787 1052.5857 380.501 1052.5857 L 379.8916 1052.5857" fill="black"/>
          </g>
        </g>
        <g id="Group_467">
          <title>glyph-1-2</title>
          <g id="Graphic_468">
            <path d="M 390.07026 1050.9919 C 389.61713 1051.07 389.42963 1051.4294 389.42963 1051.695 C 389.42963 1052.0388 389.69526 1052.1638 389.914 1052.1638 C 390.19526 1052.1638 390.63276 1051.9607 390.63276 1051.3669 C 390.63276 1050.5075 389.6484 1050.2732 388.9765 1050.2732 C 387.0859 1050.2732 385.3515 1052.0075 385.3515 1053.7419 C 385.3515 1054.82 386.1015 1055.9294 387.664 1055.9294 C 389.789 1055.9294 390.7734 1054.695 390.7734 1054.5075 C 390.7734 1054.4294 390.664 1054.3044 390.57026 1054.3044 C 390.49213 1054.3044 390.4609 1054.32 390.36713 1054.4294 C 389.38276 1055.5857 387.914 1055.5857 387.69526 1055.5857 C 386.789 1055.5857 386.38276 1054.9607 386.38276 1054.1794 C 386.38276 1053.82 386.57026 1052.4607 387.2109 1051.5857 C 387.69526 1050.9763 388.3515 1050.6169 388.9765 1050.6169 C 389.1484 1050.6169 389.75776 1050.6482 390.07026 1050.9919" fill="black"/>
          </g>
        </g>
      </g>
    </g>
  </g>
</svg>
